<svg xmlns="http://www.w3.org/2000/svg" xmlns:xlink="http://www.w3.org/1999/xlink" width="500" zoomAndPan="magnify" viewBox="0 0 375 374.999991" height="500" preserveAspectRatio="xMidYMid meet" version="1.0"><defs><clipPath id="bc00d22410"><path d="M 74.425781 33 L 301 33 L 301 335.542969 L 74.425781 335.542969 Z M 74.425781 33 " clip-rule="nonzero"/></clipPath><clipPath id="1c21c189dc"><path d="M 96.234375 215 L 98 215 L 98 216 L 96.234375 216 Z M 96.234375 215 " clip-rule="nonzero"/></clipPath><clipPath id="0692fd0bf3"><path d="M 96.234375 215 L 97 215 L 97 216 L 96.234375 216 Z M 96.234375 215 " clip-rule="nonzero"/></clipPath><clipPath id="d17869c4a6"><path d="M 252.796875 286.886719 L 253.675781 286.886719 L 253.675781 288.007812 L 252.796875 288.007812 Z M 252.796875 286.886719 " clip-rule="nonzero"/></clipPath><clipPath id="df75f3543c"><path d="M 111 173.28125 L 242 173.28125 L 242 318 L 111 318 Z M 111 173.28125 " clip-rule="nonzero"/></clipPath></defs><g clip-path="url(#bc00d22410)"><path fill="#004b6c" d="M 130.960938 156.238281 L 272.332031 156.238281 C 273.257812 156.242188 274.179688 156.289062 275.097656 156.382812 C 276.015625 156.476562 276.929688 156.617188 277.835938 156.796875 C 278.742188 156.980469 279.636719 157.207031 280.519531 157.476562 C 281.402344 157.746094 282.273438 158.0625 283.125 158.414062 C 283.976562 158.769531 284.8125 159.167969 285.625 159.605469 C 286.441406 160.039062 287.230469 160.515625 288 161.03125 C 288.769531 161.542969 289.507812 162.09375 290.222656 162.679688 C 290.9375 163.265625 291.621094 163.886719 292.273438 164.539062 C 292.925781 165.195312 293.546875 165.878906 294.132812 166.59375 C 294.722656 167.304688 295.269531 168.046875 295.785156 168.816406 C 296.300781 169.582031 296.773438 170.375 297.210938 171.1875 C 297.648438 172.003906 298.042969 172.835938 298.398438 173.691406 C 298.753906 174.542969 299.066406 175.410156 299.335938 176.296875 C 299.609375 177.179688 299.832031 178.074219 300.015625 178.980469 C 300.199219 179.886719 300.335938 180.796875 300.429688 181.71875 C 300.523438 182.636719 300.574219 183.558594 300.574219 184.484375 L 300.574219 307.007812 C 300.574219 307.933594 300.523438 308.855469 300.429688 309.773438 C 300.335938 310.695312 300.199219 311.609375 300.015625 312.515625 C 299.832031 313.421875 299.605469 314.320312 299.335938 315.203125 C 299.0625 316.089844 298.75 316.957031 298.394531 317.8125 C 298.039062 318.664062 297.640625 319.5 297.203125 320.316406 C 296.765625 321.128906 296.289062 321.921875 295.773438 322.691406 C 295.257812 323.457031 294.707031 324.199219 294.121094 324.914062 C 293.53125 325.628906 292.910156 326.3125 292.257812 326.964844 C 291.601562 327.621094 290.917969 328.242188 290.199219 328.828125 C 289.484375 329.414062 288.742188 329.964844 287.972656 330.476562 C 287.203125 330.992188 286.410156 331.464844 285.597656 331.902344 C 284.78125 332.339844 283.945312 332.734375 283.089844 333.089844 C 282.234375 333.441406 281.367188 333.753906 280.480469 334.023438 C 279.59375 334.292969 278.699219 334.519531 277.792969 334.699219 C 276.886719 334.882812 275.972656 335.019531 275.050781 335.109375 C 274.128906 335.203125 273.207031 335.25 272.28125 335.25 L 102.71875 335.25 C 101.792969 335.25 100.871094 335.203125 99.949219 335.109375 C 99.027344 335.019531 98.113281 334.882812 97.207031 334.699219 C 96.300781 334.519531 95.40625 334.292969 94.519531 334.023438 C 93.632812 333.753906 92.765625 333.441406 91.910156 333.089844 C 91.054688 332.734375 90.21875 332.339844 89.402344 331.902344 C 88.589844 331.464844 87.796875 330.992188 87.027344 330.476562 C 86.257812 329.964844 85.515625 329.414062 84.800781 328.828125 C 84.082031 328.242188 83.398438 327.621094 82.742188 326.964844 C 82.089844 326.3125 81.46875 325.628906 80.878906 324.914062 C 80.292969 324.199219 79.742188 323.457031 79.226562 322.691406 C 78.710938 321.921875 78.234375 321.128906 77.796875 320.316406 C 77.359375 319.5 76.960938 318.664062 76.605469 317.8125 C 76.25 316.957031 75.9375 316.089844 75.664062 315.203125 C 75.394531 314.320312 75.167969 313.421875 74.984375 312.515625 C 74.800781 311.609375 74.664062 310.695312 74.570312 309.773438 C 74.476562 308.855469 74.425781 307.933594 74.425781 307.007812 L 74.425781 184.484375 C 74.425781 183.558594 74.476562 182.636719 74.570312 181.714844 C 74.664062 180.792969 74.800781 179.878906 74.984375 178.972656 C 75.167969 178.066406 75.394531 177.171875 75.664062 176.285156 C 75.9375 175.402344 76.25 174.53125 76.605469 173.679688 C 76.960938 172.824219 77.359375 171.988281 77.796875 171.175781 C 78.234375 170.359375 78.710938 169.566406 79.226562 168.800781 C 79.742188 168.03125 80.292969 167.289062 80.878906 166.574219 C 81.46875 165.859375 82.089844 165.175781 82.742188 164.523438 C 83.398438 163.871094 84.082031 163.25 84.800781 162.664062 C 85.515625 162.078125 86.257812 161.527344 87.027344 161.011719 C 87.796875 160.5 88.589844 160.023438 89.402344 159.585938 C 90.21875 159.152344 91.054688 158.757812 91.910156 158.402344 C 92.765625 158.046875 93.632812 157.734375 94.519531 157.464844 C 95.40625 157.195312 96.300781 156.972656 97.207031 156.789062 C 98.113281 156.609375 99.027344 156.472656 99.949219 156.378906 C 100.871094 156.289062 101.792969 156.242188 102.71875 156.238281 L 102.71875 118.546875 C 102.71875 117.160156 102.753906 115.773438 102.820312 114.386719 C 102.886719 113 102.992188 111.617188 103.125 110.238281 C 103.261719 108.855469 103.433594 107.480469 103.636719 106.105469 C 103.839844 104.734375 104.078125 103.367188 104.347656 102.007812 C 104.617188 100.644531 104.921875 99.292969 105.257812 97.945312 C 105.597656 96.601562 105.964844 95.265625 106.367188 93.9375 C 106.773438 92.609375 107.207031 91.292969 107.675781 89.984375 C 108.140625 88.679688 108.640625 87.382812 109.171875 86.101562 C 109.703125 84.820312 110.265625 83.550781 110.859375 82.296875 C 111.453125 81.042969 112.074219 79.804688 112.730469 78.582031 C 113.382812 77.359375 114.066406 76.152344 114.78125 74.960938 C 115.492188 73.769531 116.234375 72.597656 117.007812 71.445312 C 117.777344 70.292969 118.574219 69.15625 119.402344 68.042969 C 120.230469 66.929688 121.082031 65.835938 121.960938 64.761719 C 122.84375 63.691406 123.75 62.640625 124.679688 61.609375 C 125.613281 60.582031 126.570312 59.578125 127.550781 58.597656 C 128.53125 57.617188 129.535156 56.660156 130.5625 55.726562 C 131.59375 54.796875 132.640625 53.890625 133.714844 53.011719 C 134.789062 52.128906 135.882812 51.277344 136.996094 50.449219 C 138.109375 49.625 139.242188 48.824219 140.398438 48.054688 C 141.550781 47.28125 142.722656 46.539062 143.914062 45.828125 C 145.105469 45.113281 146.308594 44.429688 147.535156 43.777344 C 148.757812 43.121094 149.996094 42.5 151.25 41.90625 C 152.503906 41.3125 153.773438 40.75 155.054688 40.21875 C 156.335938 39.6875 157.632812 39.1875 158.9375 38.722656 C 160.246094 38.253906 161.5625 37.820312 162.890625 37.417969 C 164.21875 37.011719 165.554688 36.644531 166.898438 36.304688 C 168.246094 35.96875 169.597656 35.664062 170.960938 35.394531 C 172.320312 35.125 173.6875 34.886719 175.058594 34.683594 C 176.433594 34.480469 177.808594 34.308594 179.191406 34.171875 C 180.570312 34.039062 181.953125 33.9375 183.339844 33.867188 C 184.726562 33.800781 186.113281 33.765625 187.5 33.765625 C 188.886719 33.765625 190.273438 33.800781 191.660156 33.867188 C 193.046875 33.9375 194.429688 34.039062 195.808594 34.171875 C 197.191406 34.308594 198.566406 34.480469 199.941406 34.683594 C 201.3125 34.886719 202.679688 35.125 204.039062 35.394531 C 205.402344 35.664062 206.753906 35.96875 208.101562 36.304688 C 209.445312 36.644531 210.78125 37.011719 212.109375 37.417969 C 213.4375 37.820312 214.753906 38.253906 216.0625 38.722656 C 217.367188 39.1875 218.664062 39.6875 219.945312 40.21875 C 221.226562 40.75 222.496094 41.3125 223.75 41.90625 C 225.003906 42.5 226.242188 43.121094 227.464844 43.777344 C 228.691406 44.429688 229.894531 45.113281 231.085938 45.828125 C 232.277344 46.539062 233.449219 47.28125 234.601562 48.054688 C 235.757812 48.824219 236.890625 49.625 238.003906 50.449219 C 239.117188 51.277344 240.210938 52.128906 241.285156 53.011719 C 242.359375 53.890625 243.40625 54.796875 244.4375 55.726562 C 245.464844 56.660156 246.46875 57.617188 247.449219 58.597656 C 248.429688 59.578125 249.386719 60.582031 250.320312 61.609375 C 251.25 62.640625 252.15625 63.691406 253.039062 64.761719 C 253.917969 65.835938 254.769531 66.929688 255.597656 68.042969 C 256.421875 69.15625 257.222656 70.292969 257.992188 71.445312 C 258.765625 72.597656 259.507812 73.769531 260.21875 74.960938 C 260.933594 76.152344 261.617188 77.359375 262.269531 78.582031 C 262.925781 79.804688 263.546875 81.042969 264.140625 82.296875 C 264.734375 83.550781 265.296875 84.820312 265.828125 86.101562 C 266.359375 87.382812 266.859375 88.679688 267.324219 89.984375 C 267.792969 91.292969 268.226562 92.609375 268.632812 93.9375 C 269.035156 95.265625 269.402344 96.601562 269.742188 97.945312 C 270.078125 99.292969 270.382812 100.644531 270.652344 102.007812 C 270.921875 103.367188 271.160156 104.734375 271.363281 106.105469 C 271.566406 107.480469 271.738281 108.855469 271.875 110.238281 C 272.007812 111.617188 272.113281 113 272.179688 114.386719 C 272.246094 115.773438 272.28125 117.160156 272.28125 118.546875 L 272.28125 123.269531 C 272.28125 124.199219 272.195312 125.117188 272.015625 126.027344 C 271.832031 126.941406 271.566406 127.824219 271.210938 128.679688 C 270.859375 129.539062 270.421875 130.355469 269.910156 131.125 C 269.394531 131.898438 268.808594 132.613281 268.152344 133.269531 C 267.496094 133.925781 266.78125 134.511719 266.011719 135.027344 C 265.242188 135.542969 264.425781 135.980469 263.570312 136.335938 C 262.710938 136.691406 261.828125 136.960938 260.917969 137.140625 C 260.007812 137.320312 259.089844 137.414062 258.160156 137.414062 C 257.230469 137.414062 256.3125 137.320312 255.402344 137.140625 C 254.492188 136.960938 253.609375 136.691406 252.75 136.335938 C 251.894531 135.980469 251.078125 135.542969 250.308594 135.027344 C 249.535156 134.511719 248.824219 133.925781 248.167969 133.269531 C 247.511719 132.613281 246.925781 131.898438 246.410156 131.125 C 245.894531 130.355469 245.460938 129.539062 245.105469 128.679688 C 244.753906 127.824219 244.484375 126.941406 244.304688 126.027344 C 244.125 125.117188 244.035156 124.199219 244.039062 123.269531 L 244.039062 118.546875 C 244.039062 116.695312 243.945312 114.847656 243.765625 113.003906 C 243.585938 111.164062 243.3125 109.332031 242.953125 107.515625 C 242.589844 105.699219 242.140625 103.90625 241.601562 102.136719 C 241.066406 100.363281 240.441406 98.621094 239.734375 96.910156 C 239.027344 95.199219 238.234375 93.527344 237.363281 91.894531 C 236.488281 90.261719 235.539062 88.675781 234.507812 87.136719 C 233.480469 85.597656 232.378906 84.109375 231.203125 82.679688 C 230.03125 81.25 228.789062 79.878906 227.476562 78.570312 C 226.167969 77.257812 224.796875 76.015625 223.367188 74.84375 C 221.9375 73.667969 220.449219 72.566406 218.910156 71.539062 C 217.371094 70.507812 215.785156 69.558594 214.152344 68.683594 C 212.519531 67.8125 210.847656 67.023438 209.136719 66.3125 C 207.425781 65.605469 205.683594 64.980469 203.910156 64.445312 C 202.140625 63.90625 200.347656 63.457031 198.53125 63.09375 C 196.714844 62.734375 194.882812 62.464844 193.042969 62.28125 C 191.199219 62.101562 189.351562 62.007812 187.5 62.007812 C 185.648438 62.007812 183.800781 62.101562 181.957031 62.28125 C 180.117188 62.464844 178.285156 62.734375 176.46875 63.09375 C 174.652344 63.457031 172.859375 63.90625 171.089844 64.445312 C 169.316406 64.980469 167.574219 65.605469 165.863281 66.3125 C 164.152344 67.023438 162.480469 67.8125 160.847656 68.683594 C 159.214844 69.558594 157.628906 70.507812 156.089844 71.539062 C 154.550781 72.566406 153.0625 73.667969 151.632812 74.84375 C 150.203125 76.015625 148.832031 77.257812 147.523438 78.570312 C 146.210938 79.878906 144.96875 81.25 143.796875 82.679688 C 142.621094 84.109375 141.519531 85.597656 140.492188 87.136719 C 139.460938 88.675781 138.511719 90.261719 137.636719 91.894531 C 136.765625 93.527344 135.972656 95.199219 135.265625 96.910156 C 134.558594 98.621094 133.933594 100.363281 133.398438 102.136719 C 132.859375 103.90625 132.410156 105.699219 132.046875 107.515625 C 131.6875 109.332031 131.414062 111.164062 131.234375 113.003906 C 131.054688 114.847656 130.960938 116.695312 130.960938 118.546875 Z M 187.5 212.777344 C 186.148438 212.769531 184.808594 212.875 183.476562 213.097656 C 182.144531 213.316406 180.839844 213.652344 179.566406 214.097656 C 178.292969 214.542969 177.066406 215.09375 175.886719 215.75 C 174.707031 216.40625 173.589844 217.160156 172.539062 218.007812 C 171.488281 218.855469 170.519531 219.785156 169.628906 220.800781 C 168.738281 221.816406 167.941406 222.898438 167.234375 224.050781 C 166.53125 225.203125 165.929688 226.40625 165.433594 227.660156 C 164.933594 228.917969 164.546875 230.207031 164.273438 231.527344 C 163.996094 232.847656 163.835938 234.183594 163.789062 235.535156 C 163.742188 236.882812 163.8125 238.226562 163.996094 239.5625 C 164.179688 240.902344 164.476562 242.214844 164.886719 243.5 C 165.296875 244.785156 165.8125 246.027344 166.4375 247.226562 C 167.058594 248.425781 167.78125 249.558594 168.597656 250.632812 C 169.417969 251.707031 170.320312 252.703125 171.3125 253.621094 C 172.300781 254.542969 173.359375 255.367188 174.492188 256.105469 C 175.625 256.839844 176.8125 257.476562 178.050781 258.007812 L 178.050781 274.140625 C 178.050781 274.757812 178.113281 275.375 178.234375 275.980469 C 178.355469 276.589844 178.535156 277.179688 178.773438 277.75 C 179.011719 278.324219 179.304688 278.867188 179.648438 279.382812 C 179.992188 279.898438 180.386719 280.375 180.824219 280.8125 C 181.261719 281.25 181.738281 281.640625 182.253906 281.984375 C 182.769531 282.328125 183.316406 282.621094 183.886719 282.855469 C 184.460938 283.09375 185.050781 283.273438 185.660156 283.394531 C 186.265625 283.515625 186.878906 283.574219 187.5 283.574219 C 188.121094 283.574219 188.734375 283.515625 189.339844 283.394531 C 189.949219 283.273438 190.539062 283.09375 191.113281 282.855469 C 191.683594 282.621094 192.230469 282.328125 192.746094 281.984375 C 193.261719 281.640625 193.738281 281.25 194.175781 280.8125 C 194.613281 280.375 195.007812 279.898438 195.351562 279.382812 C 195.695312 278.867188 195.988281 278.324219 196.226562 277.75 C 196.464844 277.179688 196.644531 276.589844 196.765625 275.980469 C 196.886719 275.375 196.945312 274.757812 196.949219 274.140625 L 196.949219 257.90625 C 198.1875 257.375 199.375 256.742188 200.507812 256.003906 C 201.640625 255.269531 202.699219 254.441406 203.6875 253.523438 C 204.679688 252.605469 205.582031 251.605469 206.402344 250.535156 C 207.21875 249.460938 207.941406 248.324219 208.5625 247.125 C 209.1875 245.929688 209.703125 244.6875 210.113281 243.398438 C 210.523438 242.113281 210.820312 240.800781 211.003906 239.464844 C 211.1875 238.125 211.257812 236.78125 211.210938 235.433594 C 211.164062 234.082031 211.003906 232.75 210.726562 231.425781 C 210.453125 230.105469 210.066406 228.816406 209.566406 227.5625 C 209.070312 226.304688 208.46875 225.101562 207.765625 223.949219 C 207.058594 222.796875 206.261719 221.714844 205.371094 220.699219 C 204.480469 219.683594 203.511719 218.753906 202.460938 217.90625 C 201.410156 217.058594 200.292969 216.304688 199.113281 215.648438 C 197.933594 214.992188 196.707031 214.441406 195.433594 213.996094 C 194.15625 213.550781 192.855469 213.21875 191.523438 212.996094 C 190.191406 212.773438 188.851562 212.667969 187.5 212.675781 Z M 187.5 212.777344 " fill-opacity="1" fill-rule="evenodd"/></g><path fill="#ffffff" d="M 98.199219 216.226562 L 98.039062 216.300781 L 98.164062 216.578125 L 98.238281 216.414062 L 98.355469 216.398438 L 98.714844 216.421875 L 98.480469 216.285156 L 98.199219 216.226562 " fill-opacity="1" fill-rule="nonzero"/><path fill="#ffffff" d="M 97.925781 219.507812 L 97.796875 219.648438 L 97.875 219.785156 L 97.988281 219.847656 L 98.105469 219.835938 L 98.203125 219.726562 L 98.214844 219.554688 L 98.09375 219.476562 L 97.925781 219.507812 " fill-opacity="1" fill-rule="nonzero"/><g clip-path="url(#1c21c189dc)"><path fill="#ffffff" d="M 96.707031 215.90625 L 96.980469 215.980469 L 97.03125 215.84375 L 96.917969 215.738281 L 96.707031 215.90625 " fill-opacity="1" fill-rule="nonzero"/></g><path fill="#ffffff" d="M 99.546875 219.121094 L 99.253906 218.871094 L 99.183594 219.363281 L 99.332031 219.5625 L 99.539062 219.667969 L 99.71875 219.640625 L 99.785156 219.433594 L 99.710938 219.289062 L 99.546875 219.121094 " fill-opacity="1" fill-rule="nonzero"/><path fill="#ffffff" d="M 100.824219 217.082031 L 100.824219 217.1875 L 100.804688 217.273438 L 100.773438 217.363281 L 100.746094 217.460938 L 101.015625 217.550781 L 101.195312 217.402344 L 101.171875 217.1875 L 100.824219 217.082031 " fill-opacity="1" fill-rule="nonzero"/><path fill="#ffffff" d="M 100.238281 218.886719 L 100.191406 219.164062 L 100.417969 219.230469 L 100.375 219.019531 L 100.238281 218.886719 " fill-opacity="1" fill-rule="nonzero"/><path fill="#ffffff" d="M 100.820312 216.347656 L 100.855469 216.238281 L 100.871094 216.125 L 100.867188 216.003906 L 100.851562 215.882812 L 100.804688 215.890625 L 100.765625 215.90625 L 100.726562 215.925781 L 100.6875 215.953125 L 100.695312 216.058594 L 100.722656 216.160156 L 100.761719 216.257812 L 100.820312 216.347656 " fill-opacity="1" fill-rule="nonzero"/><g clip-path="url(#0692fd0bf3)"><path fill="#ffffff" d="M 96.851562 215.261719 L 96.671875 215.230469 L 96.425781 215.3125 L 96.234375 215.4375 L 96.3125 215.648438 L 96.496094 215.710938 L 96.699219 215.648438 L 96.847656 215.476562 L 96.851562 215.261719 " fill-opacity="1" fill-rule="nonzero"/></g><path fill="#ffffff" d="M 113.046875 210.269531 L 113.070312 210.320312 L 113.101562 210.367188 L 113.175781 210.25 L 113.230469 210.121094 L 113.265625 209.988281 L 113.28125 209.847656 L 113.195312 209.902344 L 113.128906 209.976562 L 113.074219 210.0625 L 113.027344 210.164062 L 113.035156 210.21875 L 113.046875 210.269531 " fill-opacity="1" fill-rule="nonzero"/><path fill="#ffffff" d="M 219.90625 218.050781 L 220.042969 218.089844 L 220.101562 218.121094 L 220.152344 218.1875 L 220.050781 218.183594 L 219.996094 218.175781 L 219.921875 218.148438 L 220.121094 218.289062 L 220.480469 218.402344 L 220.710938 218.390625 L 220.53125 218.152344 L 220.488281 218.144531 L 220.464844 218.1875 L 220.449219 218.234375 L 220.417969 218.242188 L 220.390625 218.214844 L 220.3125 218.125 L 220.28125 218.097656 L 220.210938 218.003906 L 220.175781 217.894531 L 220.109375 217.808594 L 219.9375 217.765625 L 219.980469 217.855469 L 219.980469 217.914062 L 219.90625 218.050781 " fill-opacity="1" fill-rule="nonzero"/><path fill="#ffffff" d="M 220.109375 217.53125 L 220.167969 217.558594 L 220.226562 217.578125 L 220.183594 217.449219 L 220.15625 217.394531 L 220.109375 217.34375 L 220.011719 217.464844 L 220.058594 217.503906 L 220.109375 217.53125 " fill-opacity="1" fill-rule="nonzero"/><path fill="#ffffff" d="M 219.46875 263.417969 L 219.648438 263.273438 L 219.78125 263.027344 L 219.84375 262.796875 L 219.71875 262.949219 L 219.265625 263.347656 L 219.46875 263.417969 " fill-opacity="1" fill-rule="nonzero"/><path fill="#ffffff" d="M 218.710938 259.121094 L 218.664062 259.292969 L 218.542969 259.566406 L 218.507812 259.734375 L 218.511719 259.894531 L 218.539062 259.996094 L 218.796875 260.308594 L 218.9375 260.425781 L 219.082031 260.472656 L 219.210938 260.390625 L 218.855469 259.394531 L 218.710938 259.121094 " fill-opacity="1" fill-rule="nonzero"/><path fill="#ffffff" d="M 219.386719 258.453125 L 219.503906 258.578125 L 219.671875 258.460938 L 219.742188 258.191406 L 219.773438 257.664062 L 219.71875 257.621094 L 219.632812 257.601562 L 219.527344 257.597656 L 219.402344 257.609375 L 219.40625 257.839844 L 219.378906 258.164062 L 219.386719 258.453125 " fill-opacity="1" fill-rule="nonzero"/><path fill="#ffffff" d="M 226.359375 270.902344 L 226.5 270.972656 L 226.609375 270.9375 L 226.605469 270.820312 L 226.429688 270.289062 L 226.417969 270.164062 L 226.414062 270.035156 L 226.371094 269.953125 L 226.234375 269.988281 L 226.164062 270.109375 L 226.136719 270.316406 L 226.132812 270.683594 L 226.222656 270.789062 L 226.359375 270.902344 " fill-opacity="1" fill-rule="nonzero"/><path fill="#ffffff" d="M 228.554688 271.855469 L 228.582031 271.792969 L 228.597656 271.730469 L 228.597656 271.660156 L 228.59375 271.589844 L 228.515625 271.363281 L 228.394531 271.375 L 228.230469 271.472656 L 228.015625 271.496094 L 228.160156 271.566406 L 228.300781 271.652344 L 228.554688 271.855469 " fill-opacity="1" fill-rule="nonzero"/><path fill="#ffffff" d="M 227.175781 271.878906 L 227.328125 271.878906 L 227.238281 271.789062 L 227.132812 271.71875 L 227.023438 271.671875 L 226.898438 271.644531 L 226.945312 271.777344 L 227.042969 271.847656 L 227.175781 271.878906 " fill-opacity="1" fill-rule="nonzero"/><path fill="#ffffff" d="M 221.832031 252.371094 L 222.113281 252.273438 L 222.117188 252.171875 L 221.980469 252.167969 L 221.832031 252.371094 " fill-opacity="1" fill-rule="nonzero"/><g clip-path="url(#d17869c4a6)"><path fill="#ffffff" d="M 253.636719 287.175781 L 253.359375 286.949219 L 253.148438 287.15625 L 252.828125 287.808594 L 253.109375 288.007812 L 253.449219 287.886719 L 253.675781 287.570312 L 253.636719 287.175781 " fill-opacity="1" fill-rule="nonzero"/></g><path fill="#ffffff" d="M 238.746094 280.695312 L 238.667969 280.910156 L 238.632812 281.125 L 238.835938 280.746094 L 239.007812 280.347656 L 238.859375 280.5 L 238.746094 280.695312 " fill-opacity="1" fill-rule="nonzero"/><path fill="#ffffff" d="M 235.789062 273.570312 L 235.71875 273.515625 L 235.636719 273.539062 L 235.539062 273.609375 L 235.542969 273.742188 L 235.59375 273.835938 L 235.691406 273.882812 L 235.824219 273.882812 L 235.824219 273.839844 L 235.839844 273.707031 L 235.789062 273.570312 " fill-opacity="1" fill-rule="nonzero"/><path fill="#ffffff" d="M 239.402344 276.417969 L 239.351562 276.097656 L 239.292969 275.132812 L 239.222656 274.757812 L 238.800781 273.320312 L 238.648438 273.015625 L 238.277344 272.398438 L 238.003906 271.859375 L 237.832031 271.574219 L 237.660156 271.40625 L 237.4375 271.40625 L 237.234375 271.574219 L 236.878906 272.054688 L 236.777344 272.121094 L 236.734375 272.085938 L 236.742188 272.109375 L 236.867188 272.683594 L 236.890625 272.84375 L 236.882812 273.027344 L 236.757812 273.4375 L 236.542969 273.703125 L 235.941406 274.152344 L 235.722656 274.367188 L 235.640625 274.414062 L 235.480469 274.4375 L 235.367188 274.410156 L 235.304688 274.339844 L 235.238281 274.296875 L 235.101562 274.347656 L 234.972656 274.527344 L 234.988281 274.742188 L 235.054688 274.949219 L 235.089844 275.125 L 234.980469 275.472656 L 234.820312 275.78125 L 234.800781 276.070312 L 235.105469 276.367188 L 234.753906 276.308594 L 234.585938 276.5 L 234.46875 276.78125 L 234.273438 276.996094 L 234.121094 277.003906 L 234.148438 276.835938 L 234.214844 276.609375 L 234.160156 276.449219 L 234.019531 276.542969 L 233.789062 276.816406 L 233.570312 277.117188 L 233.457031 277.304688 L 233.460938 277.480469 L 233.511719 277.65625 L 233.507812 277.804688 L 233.332031 277.898438 L 233.09375 277.503906 L 232.523438 277.765625 L 232.082031 278.316406 L 232.222656 278.773438 L 232.0625 278.8125 L 231.96875 278.734375 L 231.890625 278.605469 L 231.765625 278.5 L 231.597656 278.488281 L 231.34375 278.507812 L 231.085938 278.550781 L 230.910156 278.601562 L 230.800781 278.683594 L 230.683594 278.875 L 230.597656 278.957031 L 230.449219 278.996094 L 230.273438 278.976562 L 230.019531 278.925781 L 229.871094 278.976562 L 229.449219 279.25 L 229.226562 279.308594 L 228.734375 279.328125 L 228.535156 279.398438 L 228.4375 279.503906 L 228.402344 279.628906 L 228.378906 280.195312 L 228.335938 280.394531 L 228.25 280.589844 L 227.644531 281.539062 L 227.546875 281.789062 L 227.519531 282.035156 L 227.691406 283.269531 L 227.960938 284.1875 L 228.132812 285.085938 L 228.382812 285.707031 L 228.425781 285.886719 L 228.429688 286.066406 L 228.414062 286.289062 L 228.34375 286.785156 L 228.21875 287.238281 L 228.039062 287.671875 L 227.65625 288.351562 L 227.332031 289.089844 L 227.179688 289.304688 L 226.8125 289.566406 L 226.644531 289.738281 L 226.566406 289.902344 L 226.277344 290.820312 L 226.230469 291.0625 L 226.191406 291.570312 L 226.210938 291.882812 L 226.257812 292.210938 L 226.339844 292.535156 L 226.457031 292.820312 L 226.796875 293.34375 L 226.945312 293.617188 L 227.027344 293.921875 L 227.03125 294.214844 L 226.964844 294.832031 L 226.953125 295.148438 L 226.976562 295.472656 L 227.023438 295.710938 L 227.121094 295.925781 L 227.28125 296.203125 L 227.382812 296.429688 L 227.527344 296.914062 L 227.640625 297.128906 L 227.792969 297.300781 L 228.003906 297.476562 L 228.226562 297.636719 L 228.429688 297.753906 L 229.21875 298.023438 L 229.789062 298.328125 L 230.085938 298.394531 L 230.394531 298.367188 L 230.71875 298.246094 L 231.480469 297.789062 L 231.753906 297.667969 L 232.117188 297.585938 L 232.476562 297.546875 L 232.828125 297.476562 L 233.164062 297.304688 L 233.546875 296.867188 L 233.792969 296.328125 L 237.929688 283.03125 L 238 282.351562 L 237.9375 281.707031 L 237.949219 281.40625 L 238.066406 281.082031 L 238.136719 280.972656 L 238.304688 280.785156 L 238.375 280.695312 L 238.414062 280.613281 L 238.4375 280.488281 L 238.582031 280.140625 L 238.632812 279.871094 L 238.625 279.597656 L 238.558594 279.289062 L 238.371094 278.761719 L 238.296875 278.457031 L 238.308594 278.191406 L 238.425781 277.945312 L 238.5625 277.894531 L 238.707031 277.988281 L 238.84375 278.183594 L 239.082031 278.695312 L 239.246094 278.828125 L 239.488281 278.738281 L 239.839844 278.207031 L 239.808594 277.59375 L 239.402344 276.417969 " fill-opacity="1" fill-rule="nonzero"/><path fill="#ffffff" d="M 249.460938 288.722656 L 249.085938 288.746094 L 248.878906 289.085938 L 249.132812 289.4375 L 249.542969 289.671875 L 249.90625 289.667969 L 250.019531 289.285156 L 249.828125 288.933594 L 249.460938 288.722656 " fill-opacity="1" fill-rule="nonzero"/><path fill="#ffffff" d="M 120.175781 233.738281 L 119.921875 233.777344 L 119.707031 233.878906 L 120.121094 233.980469 L 120.320312 234.058594 L 120.484375 234.183594 L 120.535156 234.070312 L 120.550781 234.007812 L 120.558594 233.945312 L 120.40625 233.785156 L 120.175781 233.738281 " fill-opacity="1" fill-rule="nonzero"/><path fill="#ffffff" d="M 110.066406 193.445312 L 109.839844 193.480469 L 109.90625 193.5625 L 109.984375 193.628906 L 110.074219 193.6875 L 110.171875 193.726562 L 110.359375 193.433594 L 110.28125 193.386719 L 110.066406 193.445312 " fill-opacity="1" fill-rule="nonzero"/><path fill="#ffffff" d="M 110.5625 191.226562 L 110.476562 191.175781 L 110.378906 191.152344 L 110.277344 191.179688 L 110.171875 191.3125 L 110.191406 191.464844 L 110.367188 191.761719 L 110.410156 191.925781 L 110.53125 191.816406 L 110.625 191.648438 L 110.664062 191.460938 L 110.625 191.300781 L 110.5625 191.226562 " fill-opacity="1" fill-rule="nonzero"/><path fill="#ffffff" d="M 111.667969 192.929688 L 111.820312 192.851562 L 111.816406 192.722656 L 111.707031 192.597656 L 111.546875 192.535156 L 111.464844 192.65625 L 111.457031 192.792969 L 111.527344 192.898438 L 111.667969 192.929688 " fill-opacity="1" fill-rule="nonzero"/><path fill="#ffffff" d="M 117.796875 192.371094 L 118.097656 191.835938 L 117.933594 191.386719 L 117.628906 191.585938 L 117.199219 192.515625 L 116.789062 192.753906 L 117.277344 192.757812 L 117.796875 192.371094 " fill-opacity="1" fill-rule="nonzero"/><path fill="#ffffff" d="M 118.203125 191.125 L 118.351562 191.058594 L 118.484375 190.96875 L 118.613281 190.859375 L 118.699219 190.753906 L 118.757812 190.628906 L 118.8125 190.453125 L 118.636719 190.472656 L 118.347656 190.601562 L 118.089844 190.808594 L 118.003906 191.054688 L 118.070312 191.132812 L 118.203125 191.125 " fill-opacity="1" fill-rule="nonzero"/><path fill="#ffffff" d="M 114.742188 193.480469 L 115.019531 193.335938 L 115.101562 192.984375 L 114.980469 192.675781 L 114.699219 192.632812 L 114.417969 192.792969 L 114.292969 193.097656 L 114.441406 193.410156 L 114.742188 193.480469 " fill-opacity="1" fill-rule="nonzero"/><path fill="#ffffff" d="M 112.214844 192.242188 L 112.515625 192.765625 L 112.710938 192.914062 L 112.992188 192.835938 L 113.089844 192.730469 L 113.144531 192.597656 L 113.1875 192.457031 L 113.242188 192.328125 L 113.339844 192.179688 L 113.4375 192.066406 L 113.707031 191.835938 L 113.554688 191.722656 L 113.355469 191.792969 L 112.96875 192.066406 L 112.78125 192.128906 L 112.394531 192.179688 L 112.214844 192.242188 " fill-opacity="1" fill-rule="nonzero"/><path fill="#ffffff" d="M 113.957031 225.589844 L 113.882812 225.578125 L 113.796875 225.578125 L 113.714844 225.585938 L 113.644531 225.597656 L 113.667969 225.691406 L 113.710938 225.75 L 113.777344 225.792969 L 113.859375 225.824219 L 113.886719 225.773438 L 113.957031 225.589844 " fill-opacity="1" fill-rule="nonzero"/><path fill="#ffffff" d="M 114.765625 226.140625 L 114.707031 226.199219 L 114.652344 226.261719 L 114.75 226.269531 L 114.828125 226.238281 L 114.882812 226.171875 L 114.910156 226.070312 L 114.832031 226.101562 L 114.765625 226.140625 " fill-opacity="1" fill-rule="nonzero"/><path fill="#ffffff" d="M 113.613281 226.984375 L 113.484375 227.074219 L 113.542969 227.167969 L 113.609375 227.199219 L 113.695312 227.179688 L 113.792969 227.132812 L 113.800781 226.976562 L 113.726562 226.941406 L 113.613281 226.984375 " fill-opacity="1" fill-rule="nonzero"/><path fill="#ffffff" d="M 114.050781 226.921875 L 114.015625 227.054688 L 114.003906 227.121094 L 114 227.179688 L 114.082031 227.140625 L 114.121094 227.089844 L 114.113281 227.019531 L 114.050781 226.921875 " fill-opacity="1" fill-rule="nonzero"/><path fill="#ffffff" d="M 114.457031 226.761719 L 114.347656 226.917969 L 114.367188 226.925781 L 114.421875 226.953125 L 114.453125 226.957031 L 114.527344 226.816406 L 114.523438 226.742188 L 114.457031 226.761719 " fill-opacity="1" fill-rule="nonzero"/><path fill="#ffffff" d="M 114.089844 226.25 L 114.007812 226.160156 L 113.886719 226.375 L 114.070312 226.402344 L 114.089844 226.25 " fill-opacity="1" fill-rule="nonzero"/><path fill="#ffffff" d="M 157.902344 239.71875 L 157.824219 239.796875 L 157.769531 239.929688 L 157.886719 239.941406 L 157.988281 239.914062 L 158.070312 239.851562 L 158.125 239.753906 L 158.003906 239.703125 L 157.902344 239.71875 " fill-opacity="1" fill-rule="nonzero"/><g clip-path="url(#df75f3543c)"><path fill="#ffffff" d="M 241.472656 228.265625 L 241.355469 228.199219 L 241.222656 228.152344 L 241.199219 228.265625 L 241.132812 228.335938 L 241.039062 228.367188 L 240.917969 228.363281 L 241.082031 228.128906 L 241.136719 227.824219 L 241.09375 227.191406 L 241.097656 226.78125 L 241.339844 225.6875 L 240.585938 225.484375 L 240.292969 225.507812 L 239.550781 226.027344 L 239.179688 226.191406 L 238.324219 226.417969 L 237.621094 226.675781 L 237.257812 226.777344 L 236.886719 226.800781 L 236.375 226.691406 L 236.191406 226.691406 L 235.960938 226.742188 L 235.289062 226.996094 L 234.894531 227.035156 L 234.136719 226.988281 L 233.765625 227.078125 L 232.703125 227.707031 L 232.308594 227.800781 L 231.921875 227.78125 L 231.160156 227.660156 L 230.773438 227.6875 L 230.390625 227.835938 L 229.671875 228.242188 L 229.296875 228.382812 L 228.253906 228.339844 L 227.496094 227.804688 L 226.167969 226.328125 L 225.816406 226.191406 L 225.007812 226.300781 L 224.796875 226.191406 L 224.996094 226.171875 L 225.214844 226.050781 L 225.628906 225.753906 L 225.988281 225.574219 L 226.164062 225.472656 L 226.308594 225.335938 L 226.453125 224.964844 L 226.34375 224.636719 L 225.921875 223.988281 L 225.898438 223.875 L 225.855469 223.773438 L 225.789062 223.6875 L 225.699219 223.617188 L 225.644531 223.792969 L 225.398438 223.691406 L 225.15625 223.464844 L 224.738281 222.992188 L 224.699219 222.976562 L 224.648438 222.980469 L 224.597656 222.980469 L 224.546875 222.949219 L 224.515625 222.882812 L 224.488281 222.71875 L 224.464844 222.648438 L 224.292969 222.332031 L 224.21875 222.242188 L 223.96875 222.035156 L 223.398438 221.691406 L 223.148438 221.488281 L 222.949219 221.234375 L 222.597656 220.679688 L 222.382812 220.433594 L 222.152344 220.265625 L 221.136719 219.765625 L 220.632812 219.601562 L 220.40625 219.488281 L 220.25 219.285156 L 220.140625 219 L 220.011719 218.746094 L 219.816406 218.632812 L 219.679688 218.695312 L 219.644531 218.867188 L 219.648438 219.082031 L 219.613281 219.269531 L 219.417969 218.980469 L 218.773438 217.734375 L 218.636719 217.394531 L 218.539062 217.039062 L 218.304688 215.832031 L 218.054688 215.066406 L 217.386719 213.578125 L 217.257812 213.414062 L 217.078125 213.265625 L 216.738281 213.039062 L 216.699219 213.027344 L 216.644531 213.023438 L 216.578125 213.003906 L 216.507812 212.964844 L 216.421875 212.878906 L 216.175781 212.574219 L 215.804688 212.277344 L 215.484375 212.074219 L 215.21875 211.820312 L 215.011719 211.371094 L 214.890625 210.859375 L 214.699219 209.277344 L 214.699219 208.21875 L 214.609375 207.566406 L 214.621094 207.347656 L 214.773438 207.433594 L 214.824219 207.476562 L 214.785156 207.277344 L 214.679688 207.09375 L 214.414062 206.757812 L 214.257812 206.460938 L 214.164062 206.167969 L 214.117188 205.859375 L 214.09375 205.527344 L 213.9375 205.246094 L 213.648438 204.964844 L 212.78125 204.269531 L 212.207031 203.925781 L 211.964844 203.679688 L 211.714844 203.148438 L 211.507812 202.359375 L 211.542969 201.691406 L 212.03125 201.535156 L 211.152344 200.71875 L 210.902344 200.394531 L 208.597656 195.878906 L 208.503906 195.539062 L 208.382812 194.847656 L 208.25 194.515625 L 207.941406 194.101562 L 207.867188 193.933594 L 207.839844 193.761719 L 207.832031 193.390625 L 207.796875 193.222656 L 207.632812 192.949219 L 207.117188 192.40625 L 206.296875 191.339844 L 206.148438 191.054688 L 206.054688 190.757812 L 205.921875 190.199219 L 205.652344 189.632812 L 205.632812 189.339844 L 205.726562 189.074219 L 205.933594 188.855469 L 206.050781 189.140625 L 206.238281 189.710938 L 206.359375 189.984375 L 206.515625 190.230469 L 206.871094 190.6875 L 207.015625 190.9375 L 207.117188 191.222656 L 207.183594 191.488281 L 207.273438 191.742188 L 207.433594 192 L 208.472656 193.140625 L 208.625 193.265625 L 208.765625 193.347656 L 208.933594 193.414062 L 209.019531 193.433594 L 209.089844 193.390625 L 209.207031 193.277344 L 209.375 193.035156 L 209.449219 192.75 L 209.511719 192.164062 L 209.597656 191.871094 L 209.8125 191.289062 L 210.042969 190.390625 L 210.164062 190.117188 L 210.367188 189.878906 L 210.300781 189.699219 L 209.898438 188.410156 L 209.65625 187.886719 L 209.625 187.734375 L 209.582031 187.582031 L 209.496094 187.34375 L 209.34375 186.933594 L 209.09375 186.261719 L 209.054688 186.15625 L 209.027344 186.09375 L 208.761719 186.246094 L 208.484375 186.363281 L 208.199219 186.441406 L 207.433594 186.535156 L 207.300781 186.535156 L 207.230469 186.515625 L 207.015625 186.433594 L 206.785156 186.472656 L 206.25 186.609375 L 206.007812 186.613281 L 205.8125 186.527344 L 205.46875 186.242188 L 205.273438 186.15625 L 205.359375 186.308594 L 205.320312 186.4375 L 205.199219 186.519531 L 205.039062 186.535156 L 205.011719 186.496094 L 204.777344 186.285156 L 204.703125 186.246094 L 204.511719 186.1875 L 204.429688 186.15625 L 204.511719 186.074219 L 204.578125 185.980469 L 204.625 185.878906 L 204.660156 185.769531 L 204.875 185.949219 L 204.988281 186.015625 L 205.121094 186.058594 L 204.929688 185.867188 L 204.792969 185.761719 L 204.640625 185.722656 L 204.132812 185.734375 L 203.929688 185.710938 L 203.441406 185.597656 L 203.121094 185.621094 L 202.546875 185.90625 L 202.140625 185.902344 L 202.507812 185.789062 L 202.683594 185.710938 L 202.824219 185.597656 L 202.113281 185.738281 L 201.910156 185.8125 L 201.820312 185.875 L 201.664062 186.039062 L 201.570312 186.105469 L 200.730469 186.472656 L 200.125 186.832031 L 199.808594 186.988281 L 199.480469 187.070312 L 199.128906 187.046875 L 198.054688 186.671875 L 196.957031 186.457031 L 195.609375 185.972656 L 193.667969 185.519531 L 193.277344 185.488281 L 192.503906 185.679688 L 192.121094 185.679688 L 191.886719 185.417969 L 191.636719 185.03125 L 191.390625 184.820312 L 191.078125 184.730469 L 190.164062 184.675781 L 189.355469 184.4375 L 188.921875 184.34375 L 188.429688 184.285156 L 188.1875 184.199219 L 188.015625 184.035156 L 187.96875 183.867188 L 187.976562 183.707031 L 187.957031 183.550781 L 187.820312 183.378906 L 187.46875 183.183594 L 186.996094 183.019531 L 186.507812 182.902344 L 185.421875 182.785156 L 185.230469 182.800781 L 185.070312 182.867188 L 184.777344 183.0625 L 184.605469 183.125 L 183.777344 183.332031 L 183.390625 183.496094 L 183 183.726562 L 182.699219 183.949219 L 182.421875 184.199219 L 182.195312 184.496094 L 182.050781 184.835938 L 182.019531 185.265625 L 182.121094 185.625 L 182.277344 185.972656 L 182.398438 186.355469 L 182.269531 187.039062 L 181.757812 187.664062 L 181.066406 188.105469 L 180.378906 188.246094 L 179.910156 188.109375 L 179.519531 187.851562 L 179.152344 187.542969 L 178.761719 187.257812 L 178.429688 187.085938 L 177.707031 186.792969 L 176.964844 186.550781 L 176.1875 186.359375 L 174.964844 186.230469 L 174.5625 186.144531 L 174.171875 185.980469 L 173.867188 185.75 L 173.632812 185.453125 L 173.460938 185.109375 L 173.1875 184.257812 L 172.972656 183.996094 L 172.632812 183.859375 L 172.113281 183.742188 L 171.386719 183.503906 L 170.652344 183.191406 L 169.90625 182.941406 L 169.132812 182.882812 L 168.34375 183.023438 L 167.960938 183.050781 L 167.542969 182.96875 L 167.324219 182.871094 L 166.90625 182.613281 L 166.691406 182.503906 L 166.199219 182.347656 L 166.035156 182.273438 L 165.894531 182.21875 L 165.613281 182.167969 L 165.464844 182.128906 L 165.59375 182.046875 L 165.421875 181.871094 L 165.203125 181.449219 L 165 181.316406 L 164.863281 181.515625 L 164.679688 181.554688 L 164.542969 181.4375 L 164.539062 181.179688 L 163.933594 181.09375 L 163.460938 180.761719 L 163.292969 180.277344 L 163.601562 179.742188 L 164.460938 179.050781 L 164.710938 178.757812 L 165.128906 178.074219 L 165.1875 177.953125 L 165.207031 177.84375 L 165.199219 177.683594 L 165.160156 177.359375 L 165.074219 177.105469 L 164.917969 176.886719 L 164.425781 176.492188 L 164.214844 176.257812 L 164.089844 175.972656 L 164.109375 175.636719 L 164.1875 175.492188 L 164.296875 175.386719 L 164.550781 175.199219 L 164.679688 175.058594 L 165.007812 174.59375 L 165.257812 174.3125 L 165.296875 174.238281 L 165.285156 174.019531 L 165.1875 173.933594 L 165.035156 173.933594 L 164.875 173.976562 L 164.722656 174.042969 L 164.242188 174.324219 L 164.070312 174.445312 L 163.980469 174.519531 L 163.90625 174.519531 L 163.78125 174.398438 L 163.613281 174.074219 L 163.53125 173.746094 L 163.367188 173.507812 L 162.949219 173.460938 L 162.964844 173.558594 L 162.953125 173.601562 L 162.917969 173.640625 L 162.863281 173.71875 L 162.816406 173.53125 L 162.828125 173.453125 L 162.878906 173.339844 L 162.292969 173.289062 L 161.65625 173.542969 L 161.039062 173.898438 L 160.488281 174.152344 L 159.476562 174.3125 L 159.171875 174.316406 L 158.859375 174.226562 L 158.226562 173.917969 L 157.890625 173.8125 L 157.863281 174.148438 L 157.371094 174.121094 L 156.492188 173.839844 L 156.296875 173.894531 L 156.128906 174.019531 L 155.964844 174.167969 L 155.785156 174.285156 L 155.550781 174.375 L 154.804688 174.585938 L 154.433594 174.730469 L 154.261719 174.746094 L 154.054688 174.695312 L 153.847656 174.585938 L 153.464844 174.324219 L 153.234375 174.242188 L 152.683594 174.183594 L 152.113281 174.203125 L 150.773438 174.453125 L 150.261719 174.460938 L 150.003906 174.484375 L 149.773438 174.558594 L 149.371094 174.796875 L 149.15625 174.886719 L 148.636719 174.96875 L 146.976562 175.035156 L 146.515625 175.117188 L 146.074219 175.253906 L 145.21875 175.621094 L 144.832031 175.835938 L 144.65625 175.964844 L 144.5 176.109375 L 144.304688 176.324219 L 144.175781 176.453125 L 144.015625 176.511719 L 143.242188 176.605469 L 142.773438 176.773438 L 142.332031 177.019531 L 141.503906 177.660156 L 141.0625 177.949219 L 140.578125 178.125 L 140.039062 178.128906 L 139.125 178.070312 L 138.800781 177.910156 L 138.613281 177.472656 L 138.363281 177.71875 L 138.085938 177.835938 L 137.777344 177.867188 L 137.441406 177.859375 L 136.949219 177.808594 L 136.753906 177.828125 L 136.234375 177.972656 L 136.0625 177.996094 L 135.472656 177.839844 L 134.695312 177.414062 L 134.148438 176.882812 L 134.242188 176.398438 L 134.027344 176.390625 L 133.683594 176.449219 L 133.332031 176.542969 L 133.105469 176.636719 L 132.9375 176.855469 L 132.792969 177.199219 L 132.582031 177.859375 L 132.078125 179.070312 L 131.78125 179.660156 L 131.445312 180.222656 L 131.050781 180.652344 L 130.550781 180.984375 L 128.851562 181.75 L 128.371094 182.042969 L 127.933594 182.398438 L 127.019531 183.285156 L 126.839844 183.5 L 126.710938 183.773438 L 126.519531 184.40625 L 126.386719 184.675781 L 125.863281 185.476562 L 125.679688 185.996094 L 125.597656 186.546875 L 125.605469 187.300781 L 125.621094 187.375 L 125.792969 187.671875 L 125.933594 187.867188 L 125.984375 187.984375 L 126 188.285156 L 125.917969 188.597656 L 125.777344 188.890625 L 124.890625 190.140625 L 124.480469 190.605469 L 122.390625 192.242188 L 121.796875 192.570312 L 121.140625 192.808594 L 120.460938 192.96875 L 120.113281 193.003906 L 119.945312 193.039062 L 119.789062 193.117188 L 119.652344 193.25 L 119.425781 193.566406 L 119.28125 193.707031 L 118.890625 194.890625 L 118.617188 195.457031 L 118.246094 195.898438 L 117.96875 196.085938 L 117.398438 196.402344 L 117.128906 196.597656 L 116.929688 196.820312 L 116.789062 197.074219 L 116.191406 198.582031 L 116.121094 198.902344 L 116.070312 199.589844 L 115.988281 199.90625 L 115.792969 200.207031 L 114.792969 201.164062 L 114.304688 201.566406 L 114.101562 201.789062 L 113.96875 202.085938 L 114.308594 201.730469 L 114.25 202.070312 L 114.046875 202.441406 L 113.800781 202.808594 L 113.625 203.132812 L 113.40625 203.917969 L 113.253906 204.34375 L 113.03125 204.699219 L 112.882812 204.835938 L 112.5625 205.066406 L 112.414062 205.222656 L 112.289062 205.433594 L 112.207031 205.660156 L 111.914062 207.09375 L 111.863281 207.613281 L 111.945312 207.949219 L 112.128906 207.421875 L 112.3125 207.554688 L 112.542969 207.992188 L 112.867188 208.359375 L 112.875 208.308594 L 112.925781 208.144531 L 113.128906 208.320312 L 113.308594 208.621094 L 113.4375 208.953125 L 113.503906 209.207031 L 113.5 209.578125 L 113.402344 209.949219 L 113.089844 210.640625 L 113.152344 210.617188 L 113.289062 210.585938 L 113.351562 210.558594 L 113.230469 210.742188 L 113.101562 210.800781 L 113.027344 210.863281 L 113.078125 211.058594 L 113.148438 211.148438 L 113.355469 211.335938 L 113.441406 211.429688 L 113.5 211.558594 L 113.542969 211.683594 L 113.8125 212.882812 L 113.863281 213.355469 L 113.871094 213.835938 L 113.792969 214.363281 L 113.640625 214.859375 L 113.238281 215.824219 L 113.074219 216.328125 L 112.976562 216.832031 L 112.917969 217.867188 L 112.648438 218.527344 L 112.210938 219.167969 L 111.652344 219.691406 L 111.023438 219.996094 L 111.054688 220.046875 L 111.101562 220.105469 L 111.148438 220.15625 L 111.195312 220.199219 L 111.464844 220.109375 L 111.882812 220.484375 L 112.269531 221.035156 L 112.429688 221.464844 L 112.683594 221.421875 L 112.761719 221.394531 L 112.523438 221.589844 L 112.578125 221.792969 L 112.75 222.015625 L 112.867188 222.277344 L 113.152344 222.738281 L 113.675781 222.550781 L 114.699219 222.4375 L 115.015625 222.507812 L 114.1875 222.601562 L 113.695312 222.675781 L 113.582031 222.871094 L 113.453125 222.867188 L 113.195312 222.894531 L 113.078125 222.878906 L 112.992188 222.816406 L 112.878906 222.710938 L 112.789062 222.613281 L 112.765625 222.574219 L 112.507812 222.59375 L 112.429688 222.765625 L 112.484375 223.296875 L 112.449219 223.800781 L 112.460938 224.070312 L 112.542969 224.21875 L 112.671875 224.183594 L 112.785156 224.070312 L 112.910156 224.035156 L 113.078125 224.234375 L 112.835938 224.214844 L 112.59375 224.292969 L 112.472656 224.449219 L 112.582031 224.675781 L 112.828125 224.804688 L 113.019531 224.878906 L 113.214844 224.910156 L 113.46875 224.902344 L 113.347656 225.074219 L 113.332031 225.238281 L 113.417969 225.382812 L 113.601562 225.492188 L 113.796875 225.5 L 113.996094 225.480469 L 114.109375 225.539062 L 114.042969 225.773438 L 114.300781 225.800781 L 114.511719 225.722656 L 114.707031 225.597656 L 114.925781 225.496094 L 115.117188 225.46875 L 115.492188 225.46875 L 115.675781 225.421875 L 115.503906 225.5625 L 115.023438 225.625 L 114.878906 225.789062 L 114.925781 226.015625 L 115.171875 226.046875 L 115.476562 226.042969 L 115.6875 226.140625 L 115.464844 226.164062 L 115.242188 226.222656 L 115.050781 226.328125 L 114.917969 226.503906 L 114.96875 226.507812 L 115.089844 226.53125 L 115.152344 226.527344 L 115.0625 226.765625 L 115.191406 226.90625 L 115.363281 227.035156 L 115.40625 227.234375 L 115.476562 227.183594 L 115.652344 227.070312 L 115.722656 227.019531 L 115.671875 227.128906 L 115.667969 227.222656 L 115.695312 227.3125 L 115.746094 227.410156 L 115.75 227.664062 L 115.835938 227.617188 L 115.949219 227.453125 L 116.039062 227.355469 L 116.199219 227.40625 L 116.304688 227.546875 L 116.4375 227.894531 L 116.597656 227.746094 L 116.59375 228.167969 L 116.757812 228.5 L 117.042969 228.757812 L 117.398438 228.972656 L 117.460938 228.988281 L 117.597656 228.964844 L 117.648438 228.976562 L 117.683594 229.023438 L 117.726562 229.179688 L 117.773438 229.242188 L 117.910156 229.347656 L 118.042969 229.425781 L 118.175781 229.441406 L 118.308594 229.359375 L 118.355469 229.734375 L 118.355469 229.921875 L 118.304688 230.113281 L 118.59375 230.175781 L 118.863281 230.425781 L 119.046875 230.753906 L 119.058594 231.046875 L 119.128906 231.175781 L 119.230469 231.273438 L 119.355469 231.335938 L 119.5 231.371094 L 119.34375 231.425781 L 119.207031 231.546875 L 119.15625 231.707031 L 119.246094 231.894531 L 119.347656 231.921875 L 119.503906 231.898438 L 119.667969 231.851562 L 119.796875 231.800781 L 119.773438 231.886719 L 119.746094 231.953125 L 119.691406 232.011719 L 119.601562 232.074219 L 119.5625 232.113281 L 119.496094 232.210938 L 119.453125 232.246094 L 119.417969 232.238281 L 119.351562 232.214844 L 119.289062 232.191406 L 119.273438 232.171875 L 119.210938 232.183594 L 119.167969 232.15625 L 119.140625 232.160156 L 119.132812 232.28125 L 119.164062 232.371094 L 119.246094 232.488281 L 119.394531 232.652344 L 119.476562 232.707031 L 119.558594 232.738281 L 119.640625 232.78125 L 119.726562 232.867188 L 119.777344 232.984375 L 119.816406 233.25 L 119.867188 233.367188 L 120.019531 233.511719 L 120.214844 233.59375 L 120.417969 233.601562 L 120.597656 233.53125 L 120.585938 233.648438 L 120.59375 234.175781 L 120.683594 234.253906 L 121.8125 234.707031 L 122.140625 234.898438 L 122.441406 235.148438 L 122.664062 235.351562 L 122.875 235.507812 L 123.355469 235.792969 L 123.570312 235.957031 L 123.898438 236.300781 L 124.113281 236.449219 L 124.617188 236.734375 L 125.070312 237.042969 L 126.8125 238.519531 L 127.265625 238.828125 L 128.824219 239.667969 L 129.390625 239.890625 L 129.949219 240.011719 L 130.246094 239.9375 L 131.09375 239.488281 L 133.378906 238.726562 L 133.996094 238.605469 L 134.652344 238.53125 L 134.515625 238.484375 L 134.375 238.472656 L 134.074219 238.492188 L 134.292969 238.371094 L 134.53125 238.386719 L 134.769531 238.460938 L 134.996094 238.511719 L 135.386719 238.503906 L 136.59375 238.339844 L 136.355469 238.269531 L 136.066406 238.269531 L 135.511719 238.328125 L 135.859375 238.179688 L 136.246094 238.183594 L 137.480469 238.492188 L 137.746094 238.523438 L 137.949219 238.488281 L 138.042969 238.382812 L 138.078125 238.257812 L 138.128906 238.15625 L 138.273438 238.117188 L 138.242188 238.277344 L 138.289062 238.394531 L 138.386719 238.480469 L 138.523438 238.53125 L 138.394531 238.535156 L 138.226562 238.503906 L 138.160156 238.515625 L 138.09375 238.5625 L 138.34375 238.609375 L 139.390625 238.832031 L 139.628906 238.925781 L 140.140625 239.171875 L 140.367188 239.230469 L 140.609375 239.175781 L 141.332031 238.734375 L 141.609375 238.625 L 142.476562 238.390625 L 143.023438 238.164062 L 144.082031 237.601562 L 144.640625 237.382812 L 144.898438 237.34375 L 145.429688 237.351562 L 145.691406 237.324219 L 145.953125 237.203125 L 146.261719 236.847656 L 146.492188 236.703125 L 146.6875 236.617188 L 146.894531 236.554688 L 147.316406 236.460938 L 148.335938 236.277344 L 149.371094 236.171875 L 150.285156 236.171875 L 150.5625 236.117188 L 150.628906 236.074219 L 150.796875 235.917969 L 150.878906 235.863281 L 150.992188 235.8125 L 151.113281 235.78125 L 151.234375 235.761719 L 151.347656 235.761719 L 150.777344 236.0625 L 151.363281 236.15625 L 151.929688 236.15625 L 152.484375 236.214844 L 153.042969 236.480469 L 153.269531 236.664062 L 153.679688 237.085938 L 153.867188 237.304688 L 154.058594 237.582031 L 154.175781 237.609375 L 154.335938 237.433594 L 154.375 237.523438 L 154.402344 237.570312 L 154.457031 237.597656 L 154.578125 237.617188 L 154.460938 237.644531 L 154.300781 237.664062 L 154.15625 237.699219 L 154.089844 237.761719 L 154.171875 237.921875 L 154.371094 237.972656 L 154.59375 237.945312 L 154.753906 237.875 L 154.632812 238.023438 L 154.449219 238.210938 L 154.382812 238.382812 L 154.617188 238.484375 L 154.578125 238.496094 L 154.488281 238.527344 L 154.441406 238.535156 L 154.574219 238.902344 L 154.734375 239.238281 L 154.945312 239.542969 L 155.226562 239.8125 L 155.480469 239.992188 L 155.738281 240.109375 L 155.960938 240.089844 L 156.121094 239.859375 L 156.164062 240.070312 L 156.378906 240.105469 L 156.613281 239.992188 L 156.707031 239.773438 L 156.769531 239.949219 L 156.890625 240.023438 L 157.050781 240.023438 L 157.238281 239.96875 L 157.144531 239.820312 L 157.105469 239.65625 L 157.09375 239.476562 L 157.0625 239.300781 L 157.15625 239.464844 L 157.199219 239.664062 L 157.269531 239.84375 L 157.441406 239.929688 L 157.667969 239.875 L 157.769531 239.707031 L 157.761719 239.496094 L 157.648438 239.320312 L 157.859375 239.464844 L 158.109375 239.609375 L 158.34375 239.640625 L 158.507812 239.433594 L 158.652344 239.648438 L 158.925781 239.699219 L 159.871094 239.566406 L 159.960938 239.453125 L 159.914062 239.25 L 159.875 238.921875 L 160.148438 239.1875 L 160.296875 239.265625 L 160.449219 239.246094 L 160.433594 239.523438 L 160.550781 239.648438 L 160.667969 239.609375 L 160.648438 239.40625 L 160.757812 239.484375 L 161.027344 239.558594 L 161.109375 239.609375 L 161.15625 239.746094 L 161.203125 240.136719 L 161.257812 240.308594 L 161.363281 240.453125 L 161.511719 240.597656 L 161.691406 240.71875 L 161.875 240.777344 L 162.015625 240.792969 L 162.140625 240.789062 L 162.210938 240.722656 L 162.207031 240.554688 L 162.3125 240.59375 L 162.414062 240.609375 L 162.511719 240.601562 L 162.597656 240.570312 L 162.53125 240.679688 L 162.539062 240.78125 L 162.601562 240.875 L 162.691406 240.957031 L 162.574219 240.941406 L 162.496094 240.953125 L 162.429688 240.996094 L 162.34375 241.0625 L 162.410156 241.214844 L 162.480469 241.335938 L 162.585938 241.402344 L 162.742188 241.394531 L 162.65625 241.582031 L 162.785156 241.851562 L 162.972656 242.164062 L 163.074219 242.46875 L 163.039062 242.808594 L 162.808594 243.894531 L 162.714844 244.648438 L 162.609375 244.980469 L 162.421875 245.332031 L 162.195312 245.617188 L 162.097656 245.78125 L 162.070312 245.957031 L 162.117188 246.09375 L 162.207031 246.140625 L 162.3125 246.183594 L 162.410156 246.308594 L 162.421875 246.492188 L 162.476562 246.71875 L 162.511719 246.941406 L 162.46875 247.117188 L 162.40625 247.144531 L 162.328125 247.09375 L 162.226562 247.035156 L 162.074219 247.054688 L 161.953125 247.175781 L 161.980469 247.328125 L 162.101562 247.492188 L 162.253906 247.640625 L 162.492188 247.777344 L 162.722656 247.824219 L 162.949219 247.839844 L 163.1875 247.894531 L 163.050781 247.921875 L 162.933594 247.972656 L 162.84375 248.058594 L 162.800781 248.179688 L 162.550781 248.0625 L 162.289062 247.984375 L 162.074219 247.859375 L 161.964844 247.613281 L 161.835938 247.929688 L 161.816406 248.847656 L 161.621094 249.253906 L 161.40625 249.441406 L 161.183594 249.546875 L 160.957031 249.542969 L 160.730469 249.382812 L 161.195312 250.382812 L 161.554688 250.800781 L 161.949219 250.773438 L 161.808594 251.027344 L 161.917969 251.128906 L 162.125 251.179688 L 162.285156 251.292969 L 161.988281 251.355469 L 161.75 251.222656 L 161.359375 250.742188 L 161.429688 250.941406 L 161.667969 251.445312 L 161.765625 251.609375 L 161.882812 251.691406 L 162.035156 251.761719 L 162.164062 251.847656 L 162.207031 251.980469 L 162.113281 251.933594 L 162.03125 251.90625 L 161.859375 251.867188 L 162.285156 252.476562 L 162.425781 252.644531 L 162.621094 252.78125 L 163.066406 252.972656 L 163.304688 253.09375 L 163.152344 253.136719 L 162.988281 253.089844 L 162.824219 253.007812 L 162.660156 252.9375 L 163.011719 253.316406 L 163.820312 253.96875 L 164.902344 255.15625 L 165.164062 255.53125 L 165.328125 255.6875 L 166.214844 256.503906 L 166.449219 256.796875 L 166.582031 257.039062 L 166.6875 257.28125 L 166.816406 257.523438 L 167.011719 257.753906 L 167.195312 258.085938 L 167.273438 258.265625 L 167.324219 258.4375 L 167.328125 258.632812 L 167.304688 258.824219 L 167.304688 259.011719 L 167.378906 259.191406 L 167.765625 259.582031 L 168.140625 259.535156 L 168.535156 259.367188 L 169 259.394531 L 168.773438 259.53125 L 168.53125 259.625 L 168.28125 259.6875 L 167.765625 259.777344 L 167.644531 259.808594 L 167.613281 259.882812 L 167.625 260.046875 L 167.683594 260.265625 L 167.792969 260.488281 L 168.386719 261.359375 L 168.5 261.585938 L 168.777344 262.417969 L 169.488281 263.96875 L 169.566406 264.410156 L 169.492188 264.75 L 169.285156 265.054688 L 168.972656 265.398438 L 169.019531 265.246094 L 169.046875 265.191406 L 168.902344 265.324219 L 168.882812 265.476562 L 168.9375 265.644531 L 169.011719 265.824219 L 169.285156 266.765625 L 169.464844 267.226562 L 170.214844 268.496094 L 170.445312 269.234375 L 170.464844 270.117188 L 170.304688 270.992188 L 170.003906 271.71875 L 169.835938 271.949219 L 169.664062 272.117188 L 169.039062 272.535156 L 168.921875 272.65625 L 168.734375 272.988281 L 168.582031 273.207031 L 168.246094 273.632812 L 168.101562 273.855469 L 168.03125 274.03125 L 167.96875 274.390625 L 167.117188 277.769531 L 166.9375 278.195312 L 166.820312 278.371094 L 166.601562 278.644531 L 166.539062 278.808594 L 166.53125 279.007812 L 166.621094 279.707031 L 166.488281 281.445312 L 166.488281 282.269531 L 166.648438 283.007812 L 166.980469 283.683594 L 167.984375 284.988281 L 169.304688 287.632812 L 169.554688 288.398438 L 169.710938 288.765625 L 171.378906 291.433594 L 171.695312 292.121094 L 171.703125 292.894531 L 171.59375 292.808594 L 171.535156 293.160156 L 171.703125 294.417969 L 171.726562 295.277344 L 171.777344 295.6875 L 172.195312 296.898438 L 172.28125 297.277344 L 172.335938 298.109375 L 172.597656 299.847656 L 172.660156 300.035156 L 172.820312 300.371094 L 172.863281 300.511719 L 172.953125 301.089844 L 173.15625 301.855469 L 173.292969 302.210938 L 173.675781 302.957031 L 174.175781 303.675781 L 174.757812 304.328125 L 175.402344 304.867188 L 175.855469 305.433594 L 176.195312 306.109375 L 177.1875 308.785156 L 178.65625 311.226562 L 178.921875 311.898438 L 178.960938 312.664062 L 178.941406 312.804688 L 178.90625 312.941406 L 178.847656 313.066406 L 178.753906 313.183594 L 178.582031 313.285156 L 178.4375 313.292969 L 178.3125 313.269531 L 178.210938 313.289062 L 178.066406 313.535156 L 178.148438 313.832031 L 178.941406 314.921875 L 179.136719 315.253906 L 179.207031 315.570312 L 179.164062 315.734375 L 179.015625 315.976562 L 178.972656 316.167969 L 178.984375 316.324219 L 179.035156 316.484375 L 179.117188 316.632812 L 179.214844 316.753906 L 179.203125 316.523438 L 179.246094 316.335938 L 179.367188 316.207031 L 179.585938 316.167969 L 179.789062 316.214844 L 179.84375 316.316406 L 179.851562 316.457031 L 179.90625 316.621094 L 179.972656 316.726562 L 179.992188 316.734375 L 180.074219 316.773438 L 180.144531 316.792969 L 180.46875 316.832031 L 180.632812 316.894531 L 180.785156 316.988281 L 180.863281 317.128906 L 180.800781 317.332031 L 181.117188 317.367188 L 181.820312 317.675781 L 182.195312 317.679688 L 182.390625 317.574219 L 182.753906 317.246094 L 182.941406 317.113281 L 183.132812 317.03125 L 183.550781 316.910156 L 183.75 316.867188 L 184.117188 316.835938 L 184.84375 316.847656 L 185.21875 316.8125 L 185.609375 316.675781 L 186.3125 316.269531 L 186.703125 316.121094 L 187.121094 316.085938 L 187.90625 316.183594 L 188.320312 316.183594 L 188.488281 316.140625 L 188.8125 316.015625 L 188.976562 315.980469 L 189.21875 315.980469 L 189.730469 316.070312 L 190.171875 316.183594 L 190.585938 316.320312 L 190.792969 316.371094 L 191.035156 316.378906 L 191.175781 316.324219 L 191.289062 316.226562 L 191.449219 316.113281 L 191.605469 316.023438 L 191.738281 315.96875 L 191.882812 315.945312 L 192.074219 315.960938 L 192.445312 316.0625 L 192.640625 316.085938 L 192.8125 316.03125 L 192.890625 315.902344 L 192.921875 315.738281 L 192.988281 315.570312 L 193.175781 315.433594 L 193.421875 315.386719 L 193.675781 315.410156 L 193.929688 315.453125 L 194.179688 315.472656 L 194.535156 315.417969 L 194.890625 315.296875 L 195.558594 314.964844 L 196.289062 314.511719 L 199.011719 312.308594 L 201.570312 309.816406 L 203.710938 306.363281 L 204.023438 305.984375 L 204.363281 305.6875 L 205.078125 305.195312 L 205.402344 304.878906 L 205.695312 304.40625 L 205.871094 303.898438 L 206.089844 302.824219 L 206.453125 301.539062 L 206.542969 301.097656 L 206.671875 299.480469 L 206.589844 299.542969 L 206.53125 299.632812 L 206.492188 299.742188 L 206.472656 299.867188 L 206.25 299.679688 L 206.121094 299.507812 L 206.085938 299.3125 L 206.136719 299.054688 L 206.289062 298.71875 L 206.496094 298.441406 L 206.75 298.203125 L 207.050781 297.992188 L 207.707031 297.628906 L 209.804688 296.832031 L 210.367188 296.53125 L 211.007812 296.054688 L 211.488281 295.460938 L 211.5625 294.808594 L 211.484375 294.707031 L 211.398438 294.738281 L 211.320312 294.730469 L 211.265625 294.5 L 211.296875 294.128906 L 211.550781 293.390625 L 211.621094 293.027344 L 211.605469 292.847656 L 211.507812 292.480469 L 211.484375 292.292969 L 211.570312 291.730469 L 211.554688 291.539062 L 211.449219 291.285156 L 211.378906 291.394531 L 211.273438 291.9375 L 211.152344 291.6875 L 211.0625 290.519531 L 210.640625 288.972656 L 210.484375 288.652344 L 210.085938 288.050781 L 209.980469 287.738281 L 210.003906 287.386719 L 210.078125 287.003906 L 210.078125 286.636719 L 209.882812 286.34375 L 210.089844 286.40625 L 210.21875 286.488281 L 210.34375 286.53125 L 210.546875 286.488281 L 210.816406 286.332031 L 211.074219 286.101562 L 211.890625 285.164062 L 212.105469 284.96875 L 212.339844 284.804688 L 212.550781 284.726562 L 212.753906 284.675781 L 212.898438 284.582031 L 212.941406 284.375 L 213.140625 284.402344 L 213.390625 284.175781 L 214.417969 282.78125 L 214.671875 282.539062 L 215.300781 282.089844 L 215.988281 281.679688 L 216.710938 281.339844 L 217.957031 280.957031 L 218.183594 280.859375 L 219.441406 280.09375 L 219.6875 279.851562 L 219.6875 279.785156 L 219.625 279.609375 L 219.621094 279.558594 L 219.695312 279.511719 L 219.863281 279.46875 L 219.929688 279.433594 L 220.011719 279.328125 L 220.226562 278.980469 L 220.941406 278.121094 L 221.136719 277.804688 L 221.199219 277.625 L 221.261719 277.164062 L 221.3125 277.050781 L 221.484375 276.78125 L 221.546875 276.652344 L 221.558594 276.375 L 221.507812 276.046875 L 221.394531 275.878906 L 221.242188 276.105469 L 221.234375 275.957031 L 221.285156 275.839844 L 221.347656 275.734375 L 221.371094 275.621094 L 221.335938 275.507812 L 221.273438 275.46875 L 221.207031 275.441406 L 221.15625 275.359375 L 221.109375 275.082031 L 221.078125 274.183594 L 221.140625 273.4375 L 221.105469 273.21875 L 221.046875 273.140625 L 220.957031 273.089844 L 220.878906 273.054688 L 220.84375 273.027344 L 220.875 272.933594 L 220.945312 272.882812 L 221.019531 272.832031 L 221.066406 272.765625 L 221.097656 272.492188 L 220.984375 271.769531 L 220.851562 270.152344 L 220.855469 269.902344 L 220.882812 269.660156 L 220.976562 269.261719 L 221.054688 269.042969 L 221.148438 268.90625 L 221.097656 268.878906 L 220.996094 268.804688 L 220.941406 268.777344 L 221.007812 268.738281 L 221.117188 268.625 L 221.175781 268.578125 L 221.089844 268.5 L 221.011719 268.40625 L 220.949219 268.308594 L 220.898438 268.199219 L 220.785156 268.027344 L 220.636719 267.898438 L 219.914062 267.453125 L 219.710938 267.347656 L 219.5 267.304688 L 219.589844 267.046875 L 219.53125 266.71875 L 219.3125 266.105469 L 219.246094 265.804688 L 219.046875 265.140625 L 218.785156 264.566406 L 218.726562 264.273438 L 218.769531 263.933594 L 218.933594 263.335938 L 218.914062 263.070312 L 218.667969 263.0625 L 218.6875 262.589844 L 218.734375 262.367188 L 218.832031 262.144531 L 219.097656 261.753906 L 219.136719 261.558594 L 219.019531 261.324219 L 218.949219 261.28125 L 218.746094 261.242188 L 218.667969 261.203125 L 218.613281 261.125 L 218.515625 260.921875 L 218.460938 260.832031 L 218.316406 260.695312 L 218.007812 260.4375 L 217.886719 260.28125 L 217.761719 259.894531 L 217.792969 259.507812 L 218.335938 257.96875 L 218.546875 257.164062 L 218.6875 257.027344 L 218.835938 256.917969 L 218.984375 256.792969 L 219.125 256.59375 L 219.382812 256.078125 L 219.867188 254.910156 L 220.25 254.21875 L 220.316406 254.035156 L 220.375 253.796875 L 220.40625 253.578125 L 220.453125 253.398438 L 220.550781 253.25 L 220.753906 253.125 L 220.996094 253.054688 L 221.191406 253.023438 L 221.371094 252.957031 L 221.5625 252.769531 L 221.667969 252.617188 L 221.730469 252.460938 L 221.746094 252.296875 L 221.707031 252.097656 L 221.726562 252.105469 L 221.820312 252.160156 L 221.871094 252.019531 L 221.953125 251.996094 L 222.0625 252.011719 L 222.195312 252 L 222.417969 251.910156 L 222.601562 251.804688 L 222.757812 251.667969 L 222.921875 251.476562 L 223.132812 251.210938 L 223.632812 250.351562 L 223.839844 250.066406 L 227.152344 246.550781 L 228.988281 245.085938 L 230.902344 243.988281 L 231.496094 243.558594 L 232.652344 242.492188 L 234.730469 240.117188 L 236.558594 237.519531 L 236.957031 236.839844 L 237.523438 235.414062 L 238.253906 234.203125 L 238.746094 233.164062 L 239.257812 232.488281 L 240.398438 230.449219 L 240.503906 230.09375 L 240.699219 228.878906 L 240.84375 228.574219 L 241.117188 228.433594 L 241.585938 228.476562 L 241.554688 228.355469 L 241.472656 228.265625 " fill-opacity="1" fill-rule="nonzero"/></g><path fill="#ffffff" d="M 156.808594 247.523438 L 156.613281 247.625 L 156.496094 247.832031 L 156.578125 248.078125 L 156.75 248.125 L 156.929688 248.015625 L 157.03125 247.800781 L 156.980469 247.566406 L 156.808594 247.523438 " fill-opacity="1" fill-rule="nonzero"/><path fill="#ffffff" d="M 158.128906 245.226562 L 158.277344 245.300781 L 158.332031 245.171875 L 158.285156 245.070312 L 158.128906 245.226562 " fill-opacity="1" fill-rule="nonzero"/><path fill="#ffffff" d="M 133.289062 278.984375 L 133.472656 278.921875 L 133.488281 278.84375 L 133.40625 278.835938 L 133.289062 278.984375 " fill-opacity="1" fill-rule="nonzero"/><path fill="#ffffff" d="M 117.027344 263.269531 L 116.933594 263.359375 L 117.027344 263.410156 L 117.074219 263.40625 L 117.148438 263.34375 L 117.074219 263.269531 L 117.027344 263.269531 " fill-opacity="1" fill-rule="nonzero"/><path fill="#ffffff" d="M 242.320312 344.519531 L 242.226562 344.507812 L 242.105469 344.582031 L 242.167969 344.675781 L 242.234375 344.738281 L 242.324219 344.761719 L 242.4375 344.746094 L 242.394531 344.605469 L 242.320312 344.519531 " fill-opacity="1" fill-rule="nonzero"/><path fill="#ffffff" d="M 161.152344 241.5625 L 161.199219 241.238281 L 161.078125 241.128906 L 160.914062 241.125 L 160.75 241.183594 L 160.625 241.277344 L 160.578125 241.351562 L 160.503906 241.582031 L 160.464844 241.675781 L 160.386719 241.742188 L 160.304688 241.75 L 160.242188 241.792969 L 160.21875 241.945312 L 160.535156 242.160156 L 160.886719 241.953125 L 161.152344 241.5625 " fill-opacity="1" fill-rule="nonzero"/><path fill="#ffffff" d="M 249.457031 257.222656 L 249.425781 257.109375 L 249.375 257.003906 L 249.300781 256.910156 L 249.160156 257.003906 L 249.464844 257.339844 L 249.457031 257.222656 " fill-opacity="1" fill-rule="nonzero"/><path fill="#ffffff" d="M 165.515625 178.949219 L 165.582031 178.875 L 165.613281 178.78125 L 165.519531 178.792969 L 165.4375 178.84375 L 165.367188 178.929688 L 165.316406 179.039062 L 165.425781 179.007812 L 165.515625 178.949219 " fill-opacity="1" fill-rule="nonzero"/><path fill="#ffffff" d="M 164.707031 180.757812 L 164.535156 180.867188 L 164.570312 181.085938 L 164.703125 181.171875 L 164.871094 181.160156 L 165.03125 181.082031 L 165.152344 180.972656 L 164.960938 180.785156 L 164.707031 180.757812 " fill-opacity="1" fill-rule="nonzero"/><path fill="#ffffff" d="M 229.792969 273.050781 L 229.859375 272.9375 L 229.914062 272.625 L 229.847656 272.574219 L 229.722656 272.496094 L 229.667969 272.429688 L 229.648438 272.527344 L 229.628906 272.722656 L 229.628906 272.921875 L 229.671875 273.039062 L 229.792969 273.050781 " fill-opacity="1" fill-rule="nonzero"/><path fill="#ffffff" d="M 112.042969 183.367188 L 112.382812 183.304688 L 112.617188 183.167969 L 112.035156 183.019531 L 111.71875 182.984375 L 111.585938 183.085938 L 111.738281 183.3125 L 112.042969 183.367188 " fill-opacity="1" fill-rule="nonzero"/></svg>