<svg xmlns="http://www.w3.org/2000/svg" xmlns:xlink="http://www.w3.org/1999/xlink" width="500" zoomAndPan="magnify" viewBox="0 0 375 149.999998" height="200" preserveAspectRatio="xMidYMid meet" version="1.0"><defs><g/><clipPath id="ade7b24f04"><path d="M 0 12.546875 L 122.25 12.546875 L 122.25 135.546875 L 0 135.546875 Z M 0 12.546875 " clip-rule="nonzero"/></clipPath></defs><g clip-path="url(#ade7b24f04)"><path fill="#edd11d" d="M 63.054688 13.484375 L 56.835938 14.007812 L 57.90625 14.085938 L 63.054688 13.484375 M 70.273438 20.179688 L 69.90625 20.207031 L 69.984375 20.21875 L 69.984375 20.222656 L 70.273438 20.179688 M 68.5625 20.296875 L 64.53125 20.574219 L 66.054688 20.773438 L 68.859375 20.378906 L 68.5625 20.296875 M 58.867188 21.75 L 58.988281 21.765625 L 58.5625 21.824219 L 58.867188 21.75 M 53.9375 20.878906 L 52.066406 21.453125 L 50.199219 22.027344 L 51.277344 21.242188 L 53.9375 20.878906 M 54.917969 22.792969 L 54.851562 22.796875 L 54.785156 22.796875 L 54.332031 22.953125 C 54.527344 22.898438 54.722656 22.847656 54.917969 22.792969 M 65.039062 22.550781 L 69.175781 23.089844 L 69.359375 23.285156 L 65.042969 22.617188 L 60.714844 23.019531 L 56.335938 22.761719 L 65.039062 22.550781 M 74.082031 23.78125 L 74.191406 23.820312 L 74.167969 23.816406 C 74.136719 23.804688 74.109375 23.792969 74.082031 23.78125 M 61.3125 12.628906 L 73.179688 15.425781 L 79.445312 16.332031 L 86.714844 19.667969 L 95.449219 24.152344 L 84.679688 17.628906 L 81.4375 16.273438 L 70.964844 13.109375 L 61.3125 12.628906 M 74.636719 24.027344 L 75.070312 24.128906 L 75.273438 24.203125 L 74.902344 24.144531 L 74.636719 24.027344 M 69.984375 20.21875 L 68.859375 20.378906 L 83.839844 24.445312 L 83.234375 24.101562 L 74.8125 21.195312 L 69.984375 20.21875 M 58.421875 21.691406 L 58.847656 21.746094 L 58.539062 21.828125 L 57.992188 21.902344 L 51.433594 23.5625 L 58.429688 21.855469 L 54.917969 22.792969 L 56.003906 22.769531 L 52.359375 23.800781 L 51.71875 23.859375 L 51.160156 24.113281 L 50.78125 24.148438 L 54.332031 22.953125 L 50.164062 24.0625 L 49.949219 24.222656 L 46.960938 24.492188 L 47.683594 24.171875 L 58.421875 21.691406 M 49.425781 24.601562 L 49.363281 24.648438 C 49.207031 24.695312 49.050781 24.738281 48.890625 24.78125 C 49.070312 24.722656 49.25 24.664062 49.425781 24.601562 M 83.839844 24.445312 L 84.160156 24.625 L 84.484375 24.808594 L 84.605469 24.652344 L 83.839844 24.445312 M 62.089844 15.460938 L 49.058594 18.984375 L 37.832031 24.234375 L 37.003906 24.824219 L 38.152344 24.363281 L 38.671875 23.988281 L 50.242188 18.769531 L 61.953125 15.722656 L 62.089844 15.460938 M 43.574219 20.054688 L 40.371094 20.433594 L 31.546875 25.140625 L 41.664062 20.5 L 33.289062 24.75 L 43.574219 20.054688 M 40.921875 24.238281 L 40.449219 24.742188 L 39.976562 25.242188 L 37.710938 25.972656 C 38.78125 25.394531 39.851562 24.816406 40.921875 24.238281 M 45.898438 25.792969 L 43.839844 26.65625 L 44.273438 26.339844 L 45.898438 25.792969 M 82.023438 26.585938 L 82.285156 26.71875 L 82.542969 26.847656 C 82.699219 26.878906 82.851562 26.90625 83.007812 26.933594 C 82.679688 26.820312 82.351562 26.703125 82.023438 26.585938 M 86.144531 27.4375 L 88.238281 27.898438 L 86.335938 27.550781 L 86.144531 27.4375 M 41.375 28.449219 L 41.214844 28.5625 L 41.058594 28.679688 C 41.226562 28.601562 41.390625 28.527344 41.558594 28.453125 C 41.496094 28.453125 41.433594 28.449219 41.375 28.449219 M 78.914062 25.84375 L 81.585938 26.433594 L 82.023438 26.585938 L 81.820312 26.484375 L 83.648438 26.886719 L 83.980469 27.113281 L 83.007812 26.933594 L 84.472656 27.453125 L 86.507812 28.851562 L 85.25 28.214844 L 84.394531 27.625 L 84.777344 27.976562 L 82.542969 26.847656 L 79.421875 26.277344 L 78.539062 25.847656 L 78.914062 25.84375 M 100.125 29.148438 L 100.136719 29.15625 L 100.148438 29.167969 L 100.140625 29.15625 L 100.125 29.148438 M 96.675781 28.679688 L 96.570312 28.691406 L 96.46875 28.699219 L 97.84375 29.785156 C 97.457031 29.414062 97.066406 29.046875 96.675781 28.679688 M 95.710938 28.777344 L 96.382812 29.394531 L 97.054688 30.007812 C 96.546875 29.605469 96.035156 29.203125 95.523438 28.796875 L 95.710938 28.777344 M 48.542969 25.246094 L 48.367188 25.375 L 41.558594 28.453125 L 43.484375 28.492188 L 43.269531 29.023438 L 39.5 29.8125 L 41.058594 28.679688 L 39.238281 29.5 L 38.738281 29.972656 L 38.691406 29.984375 L 38.441406 30.117188 L 40.53125 28.433594 L 41.375 28.449219 L 43.523438 26.882812 L 48.542969 25.246094 M 34.78125 26.78125 L 34.097656 27.089844 L 33.410156 27.398438 C 31.964844 28.433594 30.515625 29.46875 29.070312 30.503906 L 31.835938 28.890625 L 34.78125 26.78125 M 29.070312 30.503906 L 27.617188 31.351562 L 27.238281 31.738281 L 27.257812 31.964844 L 27.871094 31.359375 L 29.070312 30.503906 M 91.089844 24.082031 L 101.261719 32.269531 L 101.332031 32.28125 L 96.777344 27.046875 L 91.089844 24.082031 M 36.917969 31.691406 L 36.320312 32.257812 L 35.71875 32.820312 C 35.585938 32.886719 35.453125 32.949219 35.316406 33.011719 L 35.730469 32.554688 L 36.917969 31.691406 M 27.257812 31.964844 L 26.410156 32.800781 L 25.558594 33.632812 C 26.144531 33.28125 26.726562 32.929688 27.308594 32.578125 C 27.289062 32.371094 27.273438 32.167969 27.257812 31.964844 M 28.316406 30.632812 L 25.722656 32.621094 L 24.253906 34.421875 L 25.144531 33.886719 L 27.238281 31.738281 L 27.226562 31.578125 L 27.617188 31.351562 L 28.316406 30.632812 M 30.703125 33.257812 L 29.808594 34.117188 L 28.914062 34.972656 L 29.894531 33.832031 L 30.703125 33.257812 M 100.148438 29.167969 L 103.925781 33.363281 L 107.707031 37.558594 C 106.535156 35.820312 105.359375 34.085938 104.1875 32.351562 L 100.148438 29.167969 M 85.796875 37.023438 L 86.273438 37.273438 L 87.082031 38.144531 L 86.699219 37.902344 L 85.796875 37.023438 M 28.246094 26.632812 L 24.6875 28.925781 L 16.519531 38.425781 L 23.054688 31.03125 L 29.019531 27.152344 L 28.246094 26.632812 M 96.757812 38.894531 L 96.933594 39.03125 L 97.113281 39.167969 L 96.78125 38.9375 L 96.757812 38.894531 M 106.09375 37.757812 L 107.179688 39.238281 L 108.269531 40.71875 L 107.898438 39.839844 L 106.09375 37.757812 M 100.628906 35.363281 L 100.972656 36.582031 L 100.960938 36.632812 L 100.671875 36.339844 L 102.050781 39.609375 L 103.289062 40.746094 L 100.628906 35.363281 M 24.28125 41.011719 L 24.164062 41.21875 L 24.152344 41.226562 L 24.28125 41.011719 M 88.144531 35.074219 L 91.441406 37.886719 L 94.734375 40.699219 L 95.109375 41.308594 L 89.636719 36.753906 L 88.144531 35.074219 M 99.621094 33.679688 L 101.582031 36.535156 L 103.542969 39.394531 L 104.914062 41.371094 C 104.269531 39.839844 103.625 38.308594 102.980469 36.777344 L 99.621094 33.679688 M 104.378906 38.308594 L 105.503906 39.976562 L 106.625 41.640625 L 105.808594 40.261719 L 104.378906 38.308594 M 103.378906 42.425781 L 103.382812 42.429688 L 103.386719 42.4375 C 103.402344 42.453125 103.417969 42.46875 103.4375 42.484375 L 103.378906 42.425781 M 95.5 42.726562 L 95.527344 42.773438 L 95.558594 42.824219 L 95.507812 42.734375 L 95.5 42.726562 M 32.597656 39.519531 L 32.394531 39.621094 L 32.191406 39.726562 C 30.925781 40.847656 29.660156 41.972656 28.394531 43.097656 C 29.53125 42.242188 30.671875 41.386719 31.8125 40.53125 L 32.597656 39.519531 M 65.898438 45.566406 L 65.707031 45.597656 L 65.511719 45.628906 L 65.582031 45.578125 C 65.6875 45.574219 65.792969 45.570312 65.898438 45.566406 M 70.210938 45.402344 L 69.363281 45.769531 L 68.503906 45.46875 L 70.210938 45.402344 M 58.511719 46.144531 L 56.824219 47.066406 L 55.511719 47.285156 L 56.070312 46.554688 L 58.511719 46.144531 M 115.433594 38.894531 L 117.105469 43.640625 L 118.78125 48.382812 C 118.621094 47.683594 118.464844 46.984375 118.308594 46.285156 L 115.433594 38.894531 M 101.511719 28.828125 L 107.40625 35.757812 L 110.84375 42.335938 L 113.109375 47.289062 L 113.941406 48.425781 L 113.984375 48.542969 L 113.492188 45.820312 L 108.5625 37.09375 L 101.511719 28.828125 M 53.046875 48.484375 L 52.488281 49.199219 L 52.457031 49.222656 L 51.386719 50.21875 L 53.046875 48.484375 M 33.441406 38.433594 L 32.597656 39.519531 L 34.320312 38.648438 L 31.8125 40.53125 L 30.523438 42.1875 L 29.675781 44.105469 L 25.253906 49.636719 L 23.523438 52.816406 L 24.054688 51.1875 L 29.46875 43.425781 L 23.4375 51.542969 L 27.714844 43.953125 L 30.890625 39.898438 L 33.441406 38.433594 M 111.398438 48.480469 L 111.582031 49.335938 L 113.394531 54.4375 L 112.832031 51.566406 L 111.648438 48.753906 L 111.398438 48.480469 M 94.371094 40.867188 L 95.4375 41.84375 L 99.875 49.070312 L 100.578125 51.085938 L 95.558594 42.824219 L 101.585938 53.964844 L 101.90625 54.875 L 99.191406 51.050781 L 95.421875 42.996094 L 94.300781 41.898438 L 95.5 42.726562 L 94.371094 40.867188 M 113.394531 54.4375 L 113.429688 54.625 L 113.46875 54.808594 L 113.839844 55.6875 C 113.691406 55.269531 113.542969 54.855469 113.394531 54.4375 M 112.015625 51.367188 L 112.289062 52.652344 L 112.5625 53.933594 L 113.730469 56.152344 C 113.644531 55.703125 113.554688 55.257812 113.46875 54.808594 L 112.015625 51.367188 M 23.234375 51.910156 L 22.164062 55.324219 C 21.976562 55.671875 21.789062 56.015625 21.601562 56.359375 L 22.285156 53.59375 L 23.234375 51.910156 M 17.394531 56.242188 L 17.351562 56.390625 L 17.3125 56.542969 L 17.199219 56.753906 L 17.394531 56.242188 M 113.839844 55.6875 L 114.292969 56.96875 C 114.261719 56.824219 114.230469 56.683594 114.199219 56.542969 L 113.839844 55.6875 M 114.574219 58.808594 L 114.546875 59.375 L 114.523438 59.941406 L 114.660156 60.289062 C 114.628906 59.796875 114.601562 59.300781 114.574219 58.808594 M 45.671875 60.683594 L 45.644531 60.765625 L 45.617188 60.851562 C 45.613281 60.832031 45.609375 60.8125 45.609375 60.792969 C 45.628906 60.757812 45.652344 60.71875 45.671875 60.683594 M 47.070312 58.339844 L 45.933594 62.921875 L 45.777344 61.894531 L 46.863281 58.6875 L 47.070312 58.339844 M 45.816406 58.292969 L 45.128906 60.972656 L 44.441406 63.648438 L 45.265625 59.171875 L 45.816406 58.292969 M 114.660156 60.289062 L 114.714844 61.222656 L 114.769531 62.160156 L 115.679688 64.355469 L 115.066406 61.316406 L 114.660156 60.289062 M 102.761719 58.171875 L 103.160156 60.050781 L 103.554688 61.933594 C 103.441406 61.628906 103.328125 61.324219 103.210938 61.019531 L 103.609375 65.164062 C 103.328125 62.832031 103.042969 60.5 102.761719 58.171875 M 103.558594 56.035156 L 105.660156 62.707031 L 106.097656 65.53125 L 104.179688 58.511719 L 103.558594 56.035156 M 114.457031 61.40625 L 114.390625 62.875 L 114.378906 64.007812 L 115.015625 66.394531 L 114.769531 62.160156 L 114.457031 61.40625 M 5.058594 54.628906 L 4.988281 56.660156 C 5.066406 57.285156 5.140625 57.910156 5.214844 58.539062 C 4.136719 61.5625 3.058594 64.585938 1.976562 67.613281 L 5.058594 54.628906 M 118.78125 48.382812 L 121.089844 58.667969 L 122.269531 69.285156 L 121.425781 57.152344 L 120.421875 54.03125 L 120.257812 52.578125 L 118.78125 48.382812 M 61.15625 69.550781 L 61.152344 69.636719 L 61.148438 69.726562 L 61.136719 69.757812 C 61.144531 69.691406 61.148438 69.621094 61.15625 69.550781 M 104.675781 70.078125 L 104.707031 70.332031 L 104.734375 70.582031 L 104.691406 70.933594 L 104.605469 70.476562 L 104.675781 70.078125 M 65.570312 70.511719 L 65.300781 71.25 L 65.035156 71.992188 L 65.015625 71.464844 C 65.199219 71.148438 65.382812 70.828125 65.570312 70.511719 M 104.492188 71.117188 L 104.527344 72.347656 L 104.503906 72.535156 C 104.46875 72.238281 104.429688 71.941406 104.394531 71.644531 L 104.492188 71.117188 M 118.742188 67.789062 L 118.8125 70.359375 L 118.878906 72.929688 L 119.0625 70.746094 C 118.953125 69.761719 118.847656 68.773438 118.742188 67.789062 M 106.625 68.945312 L 106.929688 70.917969 L 107.238281 72.890625 C 107.207031 73.269531 107.179688 73.644531 107.148438 74.023438 L 106.625 68.945312 M 65.785156 73.78125 L 65.464844 74.335938 L 65.140625 74.890625 L 65.113281 74.109375 C 65.335938 74 65.5625 73.890625 65.785156 73.78125 M 88.015625 74.683594 L 88.023438 74.714844 L 88.03125 74.742188 L 87.929688 75.007812 C 87.957031 74.898438 87.988281 74.792969 88.015625 74.683594 M 104.234375 72.539062 L 104.441406 73.050781 L 104.175781 75.332031 C 104.136719 74.945312 104.101562 74.558594 104.066406 74.175781 C 104.0625 73.96875 104.054688 73.765625 104.050781 73.558594 L 104.234375 72.539062 M 104.996094 74.40625 L 105.148438 74.785156 L 105.167969 75.054688 L 104.957031 76.269531 L 104.886719 75.703125 L 105.023438 75.183594 C 105.011719 74.921875 105.003906 74.664062 104.996094 74.40625 M 64.226562 73.835938 L 64.722656 74.15625 L 64.847656 75.394531 L 63.769531 77.246094 L 64.226562 73.835938 M 117.957031 74.15625 L 117.839844 74.90625 L 117.726562 75.660156 C 117.621094 76.871094 117.519531 78.085938 117.417969 79.296875 C 117.640625 78.589844 117.867188 77.882812 118.09375 77.171875 L 117.957031 74.15625 M 102.785156 79.996094 L 102.78125 80.003906 L 102.78125 80.011719 C 102.777344 80.019531 102.777344 80.03125 102.773438 80.039062 C 102.777344 80.023438 102.78125 80.011719 102.785156 79.996094 M 104.648438 76.632812 L 104.726562 79.339844 L 104.804688 82.050781 C 104.664062 80.578125 104.527344 79.105469 104.390625 77.632812 C 104.476562 77.300781 104.5625 76.964844 104.648438 76.632812 M 42.09375 85.550781 L 42.304688 86.355469 C 42.265625 86.328125 42.226562 86.296875 42.1875 86.269531 C 42.15625 86.03125 42.125 85.789062 42.09375 85.550781 M 43.578125 86.957031 L 43.777344 87.242188 L 43.972656 87.523438 L 43.640625 87.292969 C 43.621094 87.179688 43.597656 87.070312 43.578125 86.957031 M 120.429688 72.125 L 119.519531 73.902344 L 119.027344 78.429688 L 119.085938 80.601562 L 118.644531 81.9375 L 118.4375 83.839844 L 117.867188 88.003906 L 119.300781 83.742188 L 120.15625 82.769531 L 120.429688 72.125 M 5.675781 67.109375 L 4.535156 74.746094 L 4.621094 77.664062 L 7.234375 88.386719 L 6.160156 82.152344 L 5.183594 75.460938 L 5.675781 67.109375 M 40.429688 86.640625 L 40.933594 87.265625 L 41.328125 88.488281 L 40.960938 88.234375 L 40.429688 86.640625 M 42.582031 89.328125 L 42.597656 89.351562 L 42.617188 89.375 L 42.585938 89.351562 L 42.582031 89.328125 M 42.425781 88.132812 L 42.878906 88.546875 L 43.203125 89.777344 L 42.792969 89.496094 L 42.558594 89.167969 L 42.425781 88.132812 M 45.015625 90.492188 L 45.121094 90.585938 L 45.226562 90.683594 L 45.507812 91.359375 L 45.375 91.269531 L 45.015625 90.492188 M 17.757812 91.355469 L 17.769531 91.378906 L 17.773438 91.394531 L 17.757812 91.355469 M 5.464844 85.777344 L 6.980469 89.152344 L 8.492188 92.53125 C 8.507812 92.542969 8.519531 92.558594 8.535156 92.570312 L 5.464844 85.777344 M 112.804688 85.015625 L 112.207031 86.5 L 110.261719 90.613281 L 109.644531 92.679688 L 110.46875 92.917969 L 112.804688 85.015625 M 98.1875 90.316406 L 97.367188 92.199219 L 96.183594 94.300781 C 96.851562 92.972656 97.519531 91.644531 98.1875 90.316406 M 118.878906 72.929688 L 118 83.59375 L 116.039062 88.769531 L 113.867188 95.042969 L 114.742188 93.734375 L 118.644531 81.9375 L 119.027344 78.429688 L 118.878906 72.929688 M 18.066406 90.351562 L 19.488281 93 L 20.90625 95.652344 C 20.609375 95.273438 20.3125 94.894531 20.015625 94.519531 L 18.066406 90.351562 M 42.816406 95.996094 L 45.21875 98.238281 L 44.765625 98.199219 L 43.375 96.921875 L 42.816406 95.996094 M 42.15625 91.835938 L 42.464844 91.984375 L 43.289062 94.523438 L 46.285156 98.332031 L 46.003906 98.308594 L 43.367188 95.488281 L 42.15625 91.835938 M 45.738281 97.375 L 46.289062 97.914062 L 46.636719 98.363281 L 46.46875 98.351562 L 45.738281 97.375 M 53.125 98.347656 L 54.132812 98.878906 L 53.539062 98.976562 L 53.125 98.347656 M 47.085938 98.980469 L 47.101562 98.980469 L 47.113281 98.984375 L 47.132812 99.011719 L 47.085938 98.980469 M 113.867188 95.042969 L 112.601562 96.941406 C 112.484375 97.863281 112.371094 98.78125 112.257812 99.703125 C 112.792969 98.148438 113.332031 96.597656 113.867188 95.042969 M 54.980469 99.578125 L 55.308594 99.976562 L 55.125 99.984375 L 54.050781 99.757812 L 54.050781 99.75 L 54.980469 99.578125 M 20.910156 98.332031 L 21.265625 98.78125 L 22.042969 100.492188 L 20.910156 98.332031 M 106.988281 93.214844 L 102.644531 100.644531 L 102.207031 100.859375 L 103.027344 99.207031 L 106.988281 93.214844 M 49.097656 101.851562 L 49.925781 102.621094 L 50.5625 103.449219 L 50.453125 103.410156 L 49.871094 102.878906 L 49.097656 101.851562 M 106.328125 103.546875 L 106.210938 103.726562 C 106.222656 103.714844 106.238281 103.703125 106.25 103.691406 L 106.328125 103.546875 M 24.742188 103.421875 L 24.949219 103.566406 L 25.15625 103.707031 L 25.203125 103.765625 C 25.046875 103.652344 24.894531 103.535156 24.742188 103.421875 M 101.804688 105.515625 L 101.363281 106.019531 L 101.304688 106.054688 L 101.265625 105.984375 L 101.804688 105.515625 M 111.738281 93.328125 L 106.328125 103.546875 L 109.964844 97.984375 L 108.402344 101.832031 L 106.25 103.691406 L 105.269531 105.550781 L 104.667969 106.085938 L 106.210938 103.726562 L 105.644531 104.214844 L 111.738281 93.328125 M 97.339844 107.566406 L 97.113281 107.855469 L 96.890625 108.144531 C 96.878906 108.152344 96.867188 108.15625 96.855469 108.164062 L 97.339844 107.566406 M 31.363281 108.371094 L 32.136719 108.757812 L 32.242188 108.871094 L 31.515625 108.488281 L 31.363281 108.371094 M 97.628906 109.117188 L 96.957031 109.78125 L 96.289062 110.441406 C 96.183594 110.476562 96.078125 110.511719 95.972656 110.546875 C 96.523438 110.070312 97.078125 109.59375 97.628906 109.117188 M 32.746094 110.4375 L 34.851562 111.75 L 34.90625 111.8125 L 32.757812 110.449219 L 32.746094 110.4375 M 83.4375 112.457031 L 78.910156 114.828125 L 80.597656 113.828125 L 83.4375 112.457031 M 103.933594 103.085938 L 102.660156 104.542969 L 103.1875 103.625 L 101.074219 105.640625 L 100.675781 104.925781 L 100.546875 105.046875 L 100.472656 105.78125 L 98.5625 108.03125 L 95.894531 110.574219 L 94.546875 111.023438 L 94.308594 111.316406 L 94.527344 111.027344 L 93.589844 111.339844 L 91.625 112.632812 L 88.460938 115.160156 L 92.941406 113.164062 L 95.433594 111.011719 L 94.734375 111.675781 L 100.023438 107.554688 L 97.867188 110.015625 L 99.160156 109.128906 L 97.21875 111.460938 L 101.617188 106.3125 L 102.320312 105.769531 L 104.085938 103.507812 L 103.933594 103.085938 M 121.425781 90.15625 L 116.15625 101.945312 L 113.511719 106.246094 L 113.328125 108.585938 L 106.621094 115.546875 L 108.464844 114.652344 L 115.746094 106.558594 L 119.835938 100.261719 L 118.0625 102.136719 L 121.425781 90.15625 M 86.582031 114.238281 L 86.277344 114.527344 L 84.1875 115.574219 L 83.71875 115.609375 L 86.582031 114.238281 M 14.964844 109.917969 L 15.261719 110.921875 L 15.554688 111.929688 L 20.359375 116.195312 C 20.242188 115.917969 20.125 115.636719 20.003906 115.359375 C 18.324219 113.546875 16.644531 111.730469 14.964844 109.917969 M 74.753906 115.890625 L 76.328125 116.328125 L 75.359375 116.730469 L 74.566406 116.527344 L 73.609375 116.539062 L 73.238281 116.425781 L 74.753906 115.890625 M 40.394531 117.828125 L 40.425781 117.84375 L 40.453125 117.855469 L 40.394531 117.828125 M 80.375 117.484375 L 78.347656 118.503906 L 76.085938 118.476562 L 76.863281 118.207031 L 80.375 117.484375 M 70.53125 117.765625 L 72.1875 117.976562 L 69.933594 118.527344 L 67.699219 118.375 L 69.132812 117.871094 L 70.53125 117.765625 M 105.832031 111.792969 L 105.105469 112.152344 L 104.382812 112.511719 L 96.34375 119.960938 C 99.503906 117.238281 102.667969 114.515625 105.832031 111.792969 M 121.257812 102.292969 L 118.644531 105.8125 L 116.027344 109.332031 L 105.597656 120.011719 L 113.949219 112.664062 L 121.257812 102.292969 M 70.867188 120.269531 L 70.886719 120.269531 L 70.90625 120.273438 C 70.886719 120.273438 70.863281 120.277344 70.84375 120.277344 L 70.867188 120.269531 M 105.597656 120.011719 L 105.375 120.210938 L 105.152344 120.40625 C 105.199219 120.378906 105.246094 120.351562 105.292969 120.324219 C 105.394531 120.222656 105.496094 120.117188 105.597656 120.011719 M 8.535156 92.570312 L 11.058594 98.164062 L 19.800781 109.617188 L 26.609375 115.996094 L 32.59375 119.902344 L 35.097656 120.65625 L 30.753906 117.699219 L 27.042969 114.285156 L 23.617188 112.191406 L 13.929688 100.890625 L 8.960938 93 L 8.535156 92.570312 M 39.859375 117.171875 L 40.453125 117.855469 L 42.90625 118.925781 L 42.8125 118.898438 L 40.453125 117.855469 L 40.480469 117.886719 L 42.070312 118.683594 L 40.867188 118.332031 L 41.25 118.773438 L 46.734375 120.882812 L 47.542969 120.992188 L 45.859375 120.246094 L 45.914062 120.238281 L 47.675781 121.011719 L 48.148438 121.074219 L 46.496094 120.167969 L 46.972656 120.109375 L 45.722656 119.746094 L 44.574219 119.117188 L 39.859375 117.171875 M 54.117188 121.875 L 54.1875 121.898438 L 54.046875 121.878906 C 54.070312 121.878906 54.09375 121.875 54.117188 121.875 M 54.21875 121.871094 L 63.40625 122.152344 L 64.003906 122.210938 L 58.28125 122.453125 L 54.71875 121.96875 L 54.191406 121.871094 L 54.21875 121.871094 M 29.738281 111.984375 L 39.363281 117.894531 L 40.867188 118.332031 L 40.480469 117.886719 L 35.273438 115.277344 L 39.859375 117.171875 L 38.808594 115.957031 L 44.574219 119.117188 L 46.972656 120.109375 L 52.183594 121.625 L 48.148438 121.074219 L 49.429688 121.777344 L 47.675781 121.011719 L 47.542969 120.992188 L 51 122.519531 L 46.734375 120.882812 L 44.539062 120.582031 L 34.308594 115.441406 L 29.738281 111.984375 M 90.199219 119.839844 L 85.179688 122.148438 L 84.929688 122.636719 L 80.773438 123.292969 L 82.128906 122.375 L 85.316406 121.421875 L 85.976562 121.035156 L 90.199219 119.839844 M 96.519531 121.992188 L 93.359375 123.292969 L 90.203125 124.59375 L 92.25 124.011719 C 93.671875 123.339844 95.097656 122.664062 96.519531 121.992188 M 52.074219 122.933594 L 66.003906 125.628906 L 70.117188 126.222656 L 66.957031 126.664062 L 55.921875 124.414062 L 52.074219 122.933594 M 105.152344 120.40625 L 99.476562 123.664062 L 93.800781 126.917969 L 102.222656 122.984375 L 105.152344 120.40625 M 57.160156 17.171875 L 48.726562 20.476562 C 48.480469 20.207031 44.957031 21.503906 38.152344 24.363281 L 34.78125 26.78125 L 37.785156 25.429688 C 32.878906 28.144531 29.855469 30.046875 28.710938 31.132812 L 19.710938 40.683594 L 25.558594 33.632812 L 22.40625 36.695312 L 24.253906 34.421875 L 22.761719 34.890625 L 30.484375 28.40625 L 28.316406 30.632812 L 31.289062 28.351562 C 32.214844 28.253906 34.117188 27.078125 37.003906 24.824219 L 34.410156 25.871094 L 35.496094 24.351562 L 29.84375 28.070312 L 21.191406 36.175781 L 14.417969 45.585938 L 8.5625 60.117188 L 12.503906 48.023438 L 11.84375 47.914062 L 10.171875 51.222656 L 7.644531 60.480469 L 5.953125 72.21875 L 7.238281 84.78125 L 12.507812 96.253906 L 19.738281 106.6875 L 28.929688 115.265625 L 39.886719 121.890625 L 52.054688 125.828125 L 64.4375 126.933594 C 60.6875 127.15625 56.277344 127.097656 51.214844 126.757812 L 64.585938 127.671875 L 75.867188 126.761719 L 77.824219 125.761719 L 93.4375 120.632812 L 104.382812 112.511719 L 113.007812 104.519531 L 117.492188 95.175781 L 107.210938 107.785156 L 98.0625 116.023438 L 95.621094 116.472656 L 102.445312 111.738281 L 107.347656 107.058594 C 107.875 105.867188 107.953125 105.285156 107.582031 105.3125 L 106.261719 106.425781 L 112.601562 96.941406 L 116.648438 86.089844 L 117.820312 80.820312 L 117.253906 81.226562 L 117.417969 79.296875 L 116.910156 80.886719 L 117.726562 75.660156 L 117.921875 73.328125 L 117.957031 74.15625 L 118.398438 71.324219 C 118.058594 69.335938 117.9375 65.964844 118.03125 61.210938 L 118.742188 67.789062 L 118.582031 61.816406 L 117.859375 59.589844 L 117.878906 59.789062 L 113.984375 48.542969 L 114.183594 49.644531 L 113.109375 47.289062 L 108.269531 40.71875 L 111.648438 48.753906 L 112.449219 49.628906 L 114.199219 56.542969 L 117.425781 63.636719 L 117.59375 66 L 116.734375 67.742188 L 116.167969 75 C 116.28125 71.117188 115.898438 68.246094 115.015625 66.394531 L 115.25 70.355469 L 113.628906 82.230469 L 112.804688 85.015625 L 114.976562 79.628906 L 111.152344 91.636719 L 112.046875 90.273438 L 116.09375 75.945312 L 115.9375 77.941406 L 112.425781 90.378906 L 106.164062 102.574219 L 107.730469 98.847656 L 104.085938 103.507812 L 104.347656 104.238281 L 102.320312 105.769531 L 99.199219 109.757812 C 97.445312 111.445312 96.480469 112.121094 96.3125 111.789062 L 97.867188 110.015625 L 89.464844 115.769531 L 86.113281 116.761719 L 94.136719 110.621094 C 94.738281 110.425781 95.210938 110.109375 95.554688 109.671875 L 94.546875 111.023438 L 95.890625 109.355469 L 100.546875 105.046875 L 100.574219 104.746094 L 100.675781 104.925781 L 104.464844 101.414062 L 103.1875 103.625 C 103.464844 103.621094 104.183594 102.90625 105.339844 101.480469 L 109.414062 92.851562 L 108.253906 94.863281 C 109.285156 93.878906 110.929688 89.199219 113.195312 80.824219 L 114.253906 74.109375 L 114.378906 64.007812 L 112.675781 57.65625 C 113.363281 58.761719 113.957031 60.011719 114.457031 61.40625 L 114.523438 59.941406 L 110.171875 48.945312 L 108.128906 47.046875 L 103.160156 40.214844 L 104.097656 43.828125 L 103.144531 42.207031 C 103.039062 42.074219 103.117188 42.148438 103.378906 42.425781 C 103.175781 42.289062 102.734375 41.347656 102.050781 39.609375 C 100.339844 38.394531 98.40625 36.265625 96.25 33.226562 L 90.035156 28.371094 L 90.3125 28.101562 L 84.484375 24.808594 L 84.058594 25.355469 L 81.695312 24.859375 L 70.28125 21.699219 L 69.40625 21.207031 L 66.054688 20.773438 L 58.886719 21.746094 L 64.53125 20.574219 L 60.242188 20.015625 L 65.082031 19.351562 C 68.113281 20.328125 69.722656 20.613281 69.90625 20.207031 L 65.433594 19.304688 L 67.03125 19.082031 L 82.085938 22.578125 L 96.105469 30.433594 L 99.621094 33.679688 L 99.308594 32.386719 L 104.378906 38.308594 L 101.570312 34.140625 L 102.921875 35.375 C 104.617188 38.632812 106.769531 41.890625 109.386719 45.144531 L 112.015625 51.367188 L 111.582031 49.335938 L 110.230469 45.535156 L 103.605469 34.902344 L 106.09375 37.757812 L 102.082031 32.449219 C 101.109375 32.027344 101.082031 32.226562 101.992188 33.046875 L 97.84375 29.785156 L 102.246094 33.9375 L 100.597656 32.816406 L 95.738281 28.777344 L 96.46875 28.699219 L 91.269531 24.613281 L 76.183594 18.097656 L 57.160156 17.171875 M 90.203125 124.59375 L 78.511719 127.914062 L 74.355469 129.066406 L 74.328125 129.367188 L 84.640625 127.867188 L 82.113281 127.929688 L 90.203125 124.59375 M 46.28125 125.636719 L 46.136719 125.898438 L 45.988281 126.160156 L 58.476562 129.878906 L 59.75 129.632812 L 46.28125 125.636719 M 50.621094 13.746094 L 45.648438 14.207031 L 35.496094 18.589844 L 24.453125 25.421875 L 21.90625 26.414062 L 12.945312 36.65625 L 16.351562 31.746094 C 12.5 36.066406 9.859375 39.441406 8.421875 41.867188 L 4.351562 52.199219 L 0.660156 66.492188 L -0.0117188 81.347656 L 2.019531 87.015625 L 2.425781 86.378906 L 1.886719 82.75 L 5.152344 91.546875 L 10.636719 101.265625 L 18.339844 111.84375 C 11.441406 103.203125 7.546875 98.015625 6.65625 96.28125 L 14.117188 107.503906 L 22.359375 116.183594 C 25.707031 118.292969 29.082031 120.617188 32.484375 123.15625 L 42.144531 127.320312 L 54.25 130.59375 L 56.71875 130.8125 L 49.28125 128.980469 L 36.277344 124.433594 L 24.191406 116.511719 L 14.855469 106.894531 L 13.683594 104.976562 L 23.464844 115.324219 L 33.488281 122.007812 L 25.710938 116.542969 L 16.3125 107.589844 L 11.285156 100.332031 L 4.949219 88.433594 L 2.691406 73.332031 L 4.492188 62.871094 L 6.691406 54.238281 L 13.191406 40.351562 L 15.667969 37.375 L 8.664062 50.070312 L 5.625 58.96875 L 9.550781 50.804688 L 8.726562 51.414062 L 14.011719 40.503906 L 24.398438 28.441406 L 33.980469 22.871094 L 45.671875 17.519531 L 35.066406 21.511719 L 44.835938 17.382812 L 56.203125 15.097656 L 68.085938 15.777344 L 68.609375 15.421875 L 74.710938 16.773438 L 69.070312 14.875 L 57.90625 14.085938 C 49.03125 15 43.957031 15.710938 42.679688 16.222656 L 50.621094 13.746094 M 86.5625 130.730469 L 85.246094 130.945312 L 70.886719 132.847656 L 57.957031 133.488281 L 73.574219 133.152344 L 82.441406 131.613281 L 86.144531 131.152344 L 86.5625 130.730469 M 80.617188 133.757812 L 65.886719 135.214844 L 73.109375 134.960938 L 76.011719 134.800781 L 80.617188 133.757812 M 65.886719 135.214844 L 65.632812 135.222656 L 65.375 135.234375 L 65.570312 135.246094 C 65.675781 135.234375 65.78125 135.226562 65.886719 135.214844 M 44.703125 133.40625 L 58.789062 135.464844 L 65.375 135.234375 L 51.828125 134.324219 L 44.703125 133.40625 " fill-opacity="1" fill-rule="nonzero"/></g><g fill="#212d59" fill-opacity="1"><g transform="translate(141.983433, 81.974813)"><g><path d="M 13.21875 0 L 13.21875 -58.828125 L 0.4375 -58.828125 L 0.4375 -60.21875 L 27.578125 -60.21875 L 27.578125 -58.828125 L 14.828125 -58.828125 L 14.828125 0 Z M 10 0 L 10 -56 L 0.4375 -56 L 0.4375 -57.40625 L 11.609375 -57.40625 L 11.609375 0 Z M 16.453125 0 L 16.453125 -57.40625 L 27.578125 -57.40625 L 27.578125 -56 L 18.0625 -56 L 18.0625 0 Z M 0.4375 -61.640625 L 0.4375 -63.03125 L 27.578125 -63.03125 L 27.578125 -61.640625 Z M 0.4375 -61.640625 "/></g></g></g><g fill="#212d59" fill-opacity="1"><g transform="translate(170.031047, 81.974813)"><g><path d="M 1.65625 0 L 9.140625 -63.03125 L 23.703125 -63.03125 L 31.1875 0 L 29.546875 0 L 22.28125 -61.71875 L 10.5625 -61.71875 L 3.296875 0 Z M 8.15625 0 L 10.1875 -17.765625 L 22.65625 -17.765625 L 24.6875 0 L 23.03125 0 L 21.328125 -16.46875 L 11.484375 -16.46875 L 9.8125 0 Z M 4.859375 0 L 11.578125 -60.375 L 21.25 -60.375 L 27.953125 0 L 26.296875 0 L 24.1875 -19.0625 L 8.640625 -19.0625 L 6.546875 0 Z M 8.75 -20.390625 L 24.03125 -20.390625 L 22.1875 -38.171875 L 19.84375 -59.0625 L 13 -59.0625 L 10.59375 -38.171875 Z M 10.5625 -21.703125 L 12.15625 -38.171875 L 14.125 -57.796875 L 18.71875 -57.796875 L 20.71875 -38.171875 L 22.28125 -21.703125 Z M 12.25 -23.03125 L 20.578125 -23.03125 L 19.203125 -38.171875 L 17.5 -56.484375 L 15.34375 -56.484375 L 13.625 -38.171875 Z M 12.25 -23.03125 "/></g></g></g><g fill="#212d59" fill-opacity="1"><g transform="translate(202.864865, 81.974813)"><g><path d="M 4.171875 0 L 4.171875 -63.03125 L 5.796875 -63.03125 L 5.796875 -1.40625 L 26.671875 -1.40625 L 26.671875 0 Z M 7.40625 -2.8125 L 7.40625 -63.03125 L 9.015625 -63.03125 L 9.015625 -4.21875 L 26.671875 -4.21875 L 26.671875 -2.8125 Z M 10.640625 -5.640625 L 10.640625 -63.03125 L 12.25 -63.03125 L 12.25 -7.03125 L 26.671875 -7.03125 L 26.671875 -5.640625 Z M 10.640625 -5.640625 "/></g></g></g><g fill="#212d59" fill-opacity="1"><g transform="translate(230.341281, 81.974813)"><g><path d="M 1.65625 0 L 9.140625 -63.03125 L 23.703125 -63.03125 L 31.1875 0 L 29.546875 0 L 22.28125 -61.71875 L 10.5625 -61.71875 L 3.296875 0 Z M 8.15625 0 L 10.1875 -17.765625 L 22.65625 -17.765625 L 24.6875 0 L 23.03125 0 L 21.328125 -16.46875 L 11.484375 -16.46875 L 9.8125 0 Z M 4.859375 0 L 11.578125 -60.375 L 21.25 -60.375 L 27.953125 0 L 26.296875 0 L 24.1875 -19.0625 L 8.640625 -19.0625 L 6.546875 0 Z M 8.75 -20.390625 L 24.03125 -20.390625 L 22.1875 -38.171875 L 19.84375 -59.0625 L 13 -59.0625 L 10.59375 -38.171875 Z M 10.5625 -21.703125 L 12.15625 -38.171875 L 14.125 -57.796875 L 18.71875 -57.796875 L 20.71875 -38.171875 L 22.28125 -21.703125 Z M 12.25 -23.03125 L 20.578125 -23.03125 L 19.203125 -38.171875 L 17.5 -56.484375 L 15.34375 -56.484375 L 13.625 -38.171875 Z M 12.25 -23.03125 "/></g></g></g><g fill="#212d59" fill-opacity="1"><g transform="translate(263.175099, 81.974813)"><g><path d="M 4.171875 0 L 4.171875 -63.03125 L 17.234375 -63.03125 C 20.066406 -63.03125 22.445312 -62.660156 24.375 -61.921875 C 26.300781 -61.179688 27.769531 -59.929688 28.78125 -58.171875 C 29.789062 -56.410156 30.347656 -53.988281 30.453125 -50.90625 C 30.546875 -47.925781 30.59375 -45.109375 30.59375 -42.453125 C 30.601562 -39.796875 30.554688 -37.109375 30.453125 -34.390625 C 30.347656 -31.617188 29.835938 -29.453125 28.921875 -27.890625 C 28.003906 -26.328125 26.550781 -25.128906 24.5625 -24.296875 L 31.046875 0 L 29.375 0 L 22.59375 -25.109375 C 24.75 -25.703125 26.300781 -26.726562 27.25 -28.1875 C 28.207031 -29.644531 28.738281 -31.734375 28.84375 -34.453125 C 28.945312 -37.171875 29 -39.84375 29 -42.46875 C 29 -45.09375 28.945312 -47.890625 28.84375 -50.859375 C 28.75 -53.660156 28.238281 -55.84375 27.3125 -57.40625 C 26.394531 -58.96875 25.085938 -60.0625 23.390625 -60.6875 C 21.703125 -61.320312 19.648438 -61.640625 17.234375 -61.640625 L 5.796875 -61.640625 L 5.796875 0 Z M 10.640625 0 L 10.640625 -24.609375 L 15.5625 -24.609375 C 15.925781 -24.609375 16.285156 -24.609375 16.640625 -24.609375 C 16.992188 -24.617188 17.34375 -24.625 17.6875 -24.625 L 24.3125 0 L 22.609375 0 L 16.484375 -23.21875 C 16.359375 -23.207031 16.21875 -23.203125 16.0625 -23.203125 C 15.914062 -23.203125 15.765625 -23.203125 15.609375 -23.203125 L 12.25 -23.203125 L 12.25 0 Z M 7.40625 0 L 7.40625 -60.21875 L 17.234375 -60.21875 C 19.328125 -60.21875 21.097656 -59.941406 22.546875 -59.390625 C 23.992188 -58.847656 25.113281 -57.890625 25.90625 -56.515625 C 26.695312 -55.148438 27.132812 -53.242188 27.21875 -50.796875 C 27.3125 -48.109375 27.367188 -45.414062 27.390625 -42.71875 C 27.410156 -40.019531 27.351562 -37.285156 27.21875 -34.515625 C 27.113281 -31.953125 26.539062 -30.023438 25.5 -28.734375 C 24.457031 -27.453125 22.789062 -26.617188 20.5 -26.234375 L 27.671875 0 L 25.984375 0 L 18.875 -26.078125 C 18.625 -26.054688 18.351562 -26.039062 18.0625 -26.03125 C 17.769531 -26.019531 17.484375 -26.015625 17.203125 -26.015625 L 9.015625 -26.015625 L 9.015625 0 Z M 9.015625 -27.421875 L 17.203125 -27.421875 C 19.835938 -27.421875 21.867188 -27.910156 23.296875 -28.890625 C 24.734375 -29.878906 25.503906 -31.765625 25.609375 -34.546875 C 25.710938 -37.285156 25.765625 -39.957031 25.765625 -42.5625 C 25.773438 -45.164062 25.722656 -47.894531 25.609375 -50.75 C 25.492188 -53.914062 24.71875 -56.050781 23.28125 -57.15625 C 21.851562 -58.269531 19.835938 -58.828125 17.234375 -58.828125 L 9.015625 -58.828125 Z M 10.640625 -28.84375 L 10.640625 -57.40625 L 17.234375 -57.40625 C 19.410156 -57.40625 21.0625 -56.925781 22.1875 -55.96875 C 23.3125 -55.019531 23.914062 -53.257812 24 -50.6875 C 24.082031 -47.863281 24.128906 -45.140625 24.140625 -42.515625 C 24.148438 -39.890625 24.101562 -37.253906 24 -34.609375 C 23.914062 -32.347656 23.296875 -30.820312 22.140625 -30.03125 C 20.992188 -29.238281 19.347656 -28.84375 17.203125 -28.84375 Z M 12.25 -30.234375 L 17.203125 -30.234375 C 18.890625 -30.234375 20.160156 -30.546875 21.015625 -31.171875 C 21.867188 -31.796875 22.320312 -32.960938 22.375 -34.671875 C 22.46875 -37.359375 22.507812 -40.035156 22.5 -42.703125 C 22.5 -45.367188 22.457031 -48.015625 22.375 -50.640625 C 22.320312 -52.753906 21.851562 -54.175781 20.96875 -54.90625 C 20.09375 -55.632812 18.847656 -56 17.234375 -56 L 12.25 -56 Z M 12.25 -30.234375 "/></g></g></g><g fill="#212d59" fill-opacity="1"><g transform="translate(296.422541, 81.974813)"><g><path d="M 10.640625 0 L 10.640625 -63.03125 L 12.25 -63.03125 L 12.25 0 Z M 4.171875 0 L 4.171875 -63.03125 L 5.796875 -63.03125 L 5.796875 0 Z M 7.40625 0 L 7.40625 -63.03125 L 9.015625 -63.03125 L 9.015625 0 Z M 7.40625 0 "/></g></g></g><g fill="#212d59" fill-opacity="1"><g transform="translate(312.849299, 81.974813)"><g><path d="M 4.171875 0 L 4.171875 -63.03125 L 27.171875 -63.03125 L 27.171875 -61.640625 L 5.796875 -61.640625 L 5.796875 0 Z M 10.640625 0 L 10.640625 -29.75 L 26.375 -29.75 L 26.375 -28.328125 L 12.25 -28.328125 L 12.25 0 Z M 7.40625 0 L 7.40625 -60.21875 L 27.171875 -60.21875 L 27.171875 -58.828125 L 9.015625 -58.828125 L 9.015625 -32.5625 L 26.375 -32.5625 L 26.375 -31.140625 L 9.015625 -31.140625 L 9.015625 0 Z M 10.640625 -33.96875 L 10.640625 -57.40625 L 27.171875 -57.40625 L 27.171875 -56 L 12.25 -56 L 12.25 -35.359375 L 26.375 -35.359375 L 26.375 -33.96875 Z M 10.640625 -33.96875 "/></g></g></g><g fill="#212d59" fill-opacity="1"><g transform="translate(341.448403, 81.974813)"><g><path d="M 15.5 0 L 15.5 -23.578125 L 12.546875 -23.578125 L 7.984375 -46.078125 L 4.390625 -63.03125 L 6.015625 -63.03125 L 9.578125 -46.078125 L 13.59375 -25 L 19.03125 -25 L 23.046875 -46.078125 L 26.640625 -63.03125 L 28.234375 -63.03125 L 24.640625 -46.078125 L 20.078125 -23.578125 L 17.125 -23.578125 L 17.125 0 Z M 12.265625 0 L 12.265625 -20.78125 L 10.625 -20.78125 L 1.15625 -63.03125 L 2.765625 -63.03125 L 11.796875 -22.1875 L 13.890625 -22.1875 L 13.890625 0 Z M 18.734375 0 L 18.734375 -22.1875 L 20.828125 -22.1875 L 29.859375 -63.03125 L 31.484375 -63.03125 L 22 -20.78125 L 20.328125 -20.78125 L 20.328125 0 Z M 14.4375 -26.390625 L 11 -46.078125 L 7.609375 -63.03125 L 9.21875 -63.03125 L 12.546875 -46.078125 L 15.578125 -27.8125 L 17.015625 -27.8125 L 20.078125 -46.078125 L 23.40625 -63.03125 L 25.015625 -63.03125 L 21.625 -46.078125 L 18.203125 -26.390625 Z M 14.4375 -26.390625 "/></g></g></g><g fill="#212d59" fill-opacity="1"><g transform="translate(141.983433, 133.15383)"><g><path d="M 2.984375 0 L 2.984375 -45.125 L 19.453125 -45.125 L 19.453125 -44.125 L 4.140625 -44.125 L 4.140625 0 Z M 7.609375 0 L 7.609375 -21.296875 L 18.875 -21.296875 L 18.875 -20.28125 L 8.765625 -20.28125 L 8.765625 0 Z M 5.296875 0 L 5.296875 -43.109375 L 19.453125 -43.109375 L 19.453125 -42.109375 L 6.453125 -42.109375 L 6.453125 -23.3125 L 18.875 -23.3125 L 18.875 -22.296875 L 6.453125 -22.296875 L 6.453125 0 Z M 7.609375 -24.3125 L 7.609375 -41.09375 L 19.453125 -41.09375 L 19.453125 -40.09375 L 8.765625 -40.09375 L 8.765625 -25.3125 L 18.875 -25.3125 L 18.875 -24.3125 Z M 7.609375 -24.3125 "/></g></g></g><g fill="#212d59" fill-opacity="1"><g transform="translate(162.461301, 133.15383)"><g><path d="M 12.359375 0.453125 C 8.941406 0.453125 6.488281 -0.253906 5 -1.671875 C 3.507812 -3.085938 2.734375 -5.40625 2.671875 -8.625 C 2.617188 -11.28125 2.582031 -13.753906 2.5625 -16.046875 C 2.539062 -18.335938 2.53125 -20.5625 2.53125 -22.71875 C 2.53125 -24.882812 2.539062 -27.085938 2.5625 -29.328125 C 2.582031 -31.566406 2.617188 -33.960938 2.671875 -36.515625 C 2.734375 -39.742188 3.507812 -42.0625 5 -43.46875 C 6.488281 -44.875 8.941406 -45.578125 12.359375 -45.578125 C 15.722656 -45.578125 18.15625 -44.875 19.65625 -43.46875 C 21.15625 -42.0625 21.945312 -39.742188 22.03125 -36.515625 C 22.09375 -34.003906 22.140625 -31.613281 22.171875 -29.34375 C 22.203125 -27.082031 22.21875 -24.847656 22.21875 -22.640625 C 22.21875 -20.429688 22.203125 -18.179688 22.171875 -15.890625 C 22.140625 -13.597656 22.09375 -11.171875 22.03125 -8.609375 C 21.9375 -5.359375 21.132812 -3.035156 19.625 -1.640625 C 18.125 -0.242188 15.703125 0.453125 12.359375 0.453125 Z M 12.359375 -0.5 C 15.304688 -0.5 17.441406 -1.125 18.765625 -2.375 C 20.097656 -3.632812 20.800781 -5.726562 20.875 -8.65625 C 20.9375 -11.101562 20.976562 -13.441406 21 -15.671875 C 21.03125 -17.898438 21.046875 -20.113281 21.046875 -22.3125 C 21.046875 -24.507812 21.03125 -26.765625 21 -29.078125 C 20.976562 -31.398438 20.9375 -33.863281 20.875 -36.46875 C 20.800781 -39.394531 20.101562 -41.484375 18.78125 -42.734375 C 17.457031 -43.992188 15.316406 -44.625 12.359375 -44.625 C 9.304688 -44.625 7.132812 -43.984375 5.84375 -42.703125 C 4.5625 -41.421875 3.890625 -39.34375 3.828125 -36.46875 C 3.765625 -34.039062 3.722656 -31.726562 3.703125 -29.53125 C 3.679688 -27.34375 3.671875 -25.160156 3.671875 -22.984375 C 3.671875 -20.816406 3.679688 -18.5625 3.703125 -16.21875 C 3.722656 -13.882812 3.765625 -11.363281 3.828125 -8.65625 C 3.878906 -5.707031 4.578125 -3.609375 5.921875 -2.359375 C 7.265625 -1.117188 9.410156 -0.5 12.359375 -0.5 Z M 12.359375 -1.421875 C 9.753906 -1.421875 7.882812 -1.984375 6.75 -3.109375 C 5.613281 -4.234375 5.019531 -6.085938 4.96875 -8.671875 C 4.925781 -11.304688 4.890625 -13.769531 4.859375 -16.0625 C 4.835938 -18.351562 4.828125 -20.578125 4.828125 -22.734375 C 4.835938 -24.898438 4.851562 -27.097656 4.875 -29.328125 C 4.894531 -31.566406 4.925781 -33.945312 4.96875 -36.46875 C 5.019531 -39.050781 5.613281 -40.898438 6.75 -42.015625 C 7.882812 -43.140625 9.753906 -43.703125 12.359375 -43.703125 C 14.921875 -43.703125 16.765625 -43.140625 17.890625 -42.015625 C 19.023438 -40.890625 19.632812 -39.03125 19.71875 -36.4375 C 19.78125 -33.957031 19.828125 -31.585938 19.859375 -29.328125 C 19.890625 -27.066406 19.90625 -24.832031 19.90625 -22.625 C 19.90625 -20.425781 19.890625 -18.1875 19.859375 -15.90625 C 19.828125 -13.632812 19.78125 -11.234375 19.71875 -8.703125 C 19.644531 -6.109375 19.039062 -4.242188 17.90625 -3.109375 C 16.769531 -1.984375 14.921875 -1.421875 12.359375 -1.421875 Z M 12.359375 -2.375 C 14.484375 -2.375 16.03125 -2.851562 17 -3.8125 C 17.976562 -4.78125 18.503906 -6.421875 18.578125 -8.734375 C 18.628906 -11.253906 18.664062 -13.644531 18.6875 -15.90625 C 18.71875 -18.175781 18.734375 -20.394531 18.734375 -22.5625 C 18.734375 -24.726562 18.71875 -26.941406 18.6875 -29.203125 C 18.664062 -31.472656 18.628906 -33.867188 18.578125 -36.390625 C 18.503906 -38.679688 17.988281 -40.3125 17.03125 -41.28125 C 16.070312 -42.257812 14.515625 -42.75 12.359375 -42.75 C 10.140625 -42.75 8.554688 -42.257812 7.609375 -41.28125 C 6.671875 -40.300781 6.175781 -38.6875 6.125 -36.4375 C 6.070312 -33.925781 6.03125 -31.546875 6 -29.296875 C 5.976562 -27.054688 5.96875 -24.847656 5.96875 -22.671875 C 5.96875 -20.492188 5.976562 -18.265625 6 -15.984375 C 6.03125 -13.703125 6.070312 -11.273438 6.125 -8.703125 C 6.175781 -6.441406 6.675781 -4.820312 7.625 -3.84375 C 8.570312 -2.863281 10.148438 -2.375 12.359375 -2.375 Z M 12.359375 -3.3125 C 10.554688 -3.3125 9.265625 -3.734375 8.484375 -4.578125 C 7.710938 -5.421875 7.316406 -6.804688 7.296875 -8.734375 C 7.222656 -12.023438 7.175781 -15.164062 7.15625 -18.15625 C 7.132812 -21.144531 7.132812 -24.125 7.15625 -27.09375 C 7.175781 -30.070312 7.222656 -33.179688 7.296875 -36.421875 C 7.316406 -38.378906 7.722656 -39.765625 8.515625 -40.578125 C 9.316406 -41.398438 10.597656 -41.8125 12.359375 -41.8125 C 14.148438 -41.8125 15.425781 -41.382812 16.1875 -40.53125 C 16.945312 -39.6875 17.359375 -38.300781 17.421875 -36.375 C 17.472656 -33.863281 17.515625 -31.492188 17.546875 -29.265625 C 17.578125 -27.046875 17.59375 -24.859375 17.59375 -22.703125 C 17.59375 -20.554688 17.578125 -18.347656 17.546875 -16.078125 C 17.523438 -13.816406 17.484375 -11.390625 17.421875 -8.796875 C 17.367188 -6.859375 16.960938 -5.457031 16.203125 -4.59375 C 15.441406 -3.738281 14.160156 -3.3125 12.359375 -3.3125 Z M 12.359375 -4.25 C 13.722656 -4.25 14.703125 -4.601562 15.296875 -5.3125 C 15.898438 -6.019531 16.222656 -7.191406 16.265625 -8.828125 C 16.304688 -11.234375 16.335938 -13.519531 16.359375 -15.6875 C 16.390625 -17.863281 16.40625 -20.023438 16.40625 -22.171875 C 16.414062 -24.316406 16.40625 -26.539062 16.375 -28.84375 C 16.351562 -31.15625 16.316406 -33.640625 16.265625 -36.296875 C 16.222656 -37.992188 15.894531 -39.179688 15.28125 -39.859375 C 14.664062 -40.535156 13.691406 -40.875 12.359375 -40.875 C 10.992188 -40.875 10.003906 -40.535156 9.390625 -39.859375 C 8.785156 -39.179688 8.46875 -38.019531 8.4375 -36.375 C 8.375 -33.164062 8.328125 -30.097656 8.296875 -27.171875 C 8.273438 -24.253906 8.273438 -21.304688 8.296875 -18.328125 C 8.316406 -15.359375 8.363281 -12.164062 8.4375 -8.75 C 8.46875 -7.144531 8.78125 -5.992188 9.375 -5.296875 C 9.96875 -4.597656 10.960938 -4.25 12.359375 -4.25 Z M 12.359375 -4.25 "/></g></g></g><g fill="#212d59" fill-opacity="1"><g transform="translate(187.198345, 133.15383)"><g><path d="M 12.25 0.453125 C 8.882812 0.453125 6.445312 -0.234375 4.9375 -1.609375 C 3.425781 -2.984375 2.648438 -5.28125 2.609375 -8.5 C 2.566406 -11.34375 2.535156 -14.265625 2.515625 -17.265625 C 2.492188 -20.273438 2.484375 -23.332031 2.484375 -26.4375 C 2.492188 -29.539062 2.503906 -32.65625 2.515625 -35.78125 C 2.535156 -38.914062 2.566406 -42.03125 2.609375 -45.125 L 3.75 -45.125 C 3.71875 -42.226562 3.691406 -39.242188 3.671875 -36.171875 C 3.648438 -33.097656 3.640625 -29.992188 3.640625 -26.859375 C 3.640625 -23.734375 3.648438 -20.628906 3.671875 -17.546875 C 3.691406 -14.460938 3.71875 -11.457031 3.75 -8.53125 C 3.800781 -5.65625 4.484375 -3.59375 5.796875 -2.34375 C 7.109375 -1.101562 9.257812 -0.484375 12.25 -0.484375 C 15.238281 -0.484375 17.390625 -1.101562 18.703125 -2.34375 C 20.015625 -3.59375 20.691406 -5.65625 20.734375 -8.53125 C 20.765625 -11.40625 20.789062 -14.351562 20.8125 -17.375 C 20.832031 -20.40625 20.84375 -23.472656 20.84375 -26.578125 C 20.84375 -29.679688 20.832031 -32.785156 20.8125 -35.890625 C 20.789062 -39.003906 20.765625 -42.082031 20.734375 -45.125 L 21.890625 -45.125 C 21.929688 -41.164062 21.960938 -37.132812 21.984375 -33.03125 C 22.003906 -28.925781 22.003906 -24.816406 21.984375 -20.703125 C 21.960938 -16.585938 21.929688 -12.519531 21.890625 -8.5 C 21.835938 -5.28125 21.054688 -2.984375 19.546875 -1.609375 C 18.035156 -0.234375 15.601562 0.453125 12.25 0.453125 Z M 12.25 -1.40625 C 9.6875 -1.40625 7.832031 -1.953125 6.6875 -3.046875 C 5.539062 -4.140625 4.945312 -5.960938 4.90625 -8.515625 C 4.875 -11.546875 4.847656 -14.570312 4.828125 -17.59375 C 4.804688 -20.613281 4.796875 -23.640625 4.796875 -26.671875 C 4.796875 -29.710938 4.804688 -32.765625 4.828125 -35.828125 C 4.847656 -38.898438 4.875 -42 4.90625 -45.125 L 6.0625 -45.125 C 6.03125 -42.113281 6.003906 -39.070312 5.984375 -36 C 5.960938 -32.9375 5.953125 -29.863281 5.953125 -26.78125 C 5.953125 -23.695312 5.957031 -20.628906 5.96875 -17.578125 C 5.988281 -14.535156 6.019531 -11.523438 6.0625 -8.546875 C 6.09375 -6.304688 6.585938 -4.710938 7.546875 -3.765625 C 8.515625 -2.816406 10.082031 -2.34375 12.25 -2.34375 C 14.414062 -2.34375 15.976562 -2.816406 16.9375 -3.765625 C 17.894531 -4.710938 18.390625 -6.304688 18.421875 -8.546875 C 18.453125 -11.472656 18.476562 -14.457031 18.5 -17.5 C 18.519531 -20.539062 18.53125 -23.597656 18.53125 -26.671875 C 18.53125 -29.753906 18.519531 -32.835938 18.5 -35.921875 C 18.476562 -39.015625 18.453125 -42.082031 18.421875 -45.125 L 19.578125 -45.125 C 19.609375 -42.03125 19.632812 -38.941406 19.65625 -35.859375 C 19.675781 -32.785156 19.6875 -29.71875 19.6875 -26.65625 C 19.6875 -23.59375 19.675781 -20.546875 19.65625 -17.515625 C 19.632812 -14.492188 19.609375 -11.492188 19.578125 -8.515625 C 19.546875 -5.972656 18.957031 -4.148438 17.8125 -3.046875 C 16.675781 -1.953125 14.820312 -1.40625 12.25 -1.40625 Z M 12.25 -3.265625 C 10.5 -3.265625 9.226562 -3.671875 8.4375 -4.484375 C 7.65625 -5.296875 7.25 -6.660156 7.21875 -8.578125 C 7.175781 -12.453125 7.144531 -16.421875 7.125 -20.484375 C 7.101562 -24.554688 7.101562 -28.660156 7.125 -32.796875 C 7.144531 -36.941406 7.175781 -41.050781 7.21875 -45.125 L 8.375 -45.125 C 8.34375 -42.195312 8.316406 -39.234375 8.296875 -36.234375 C 8.273438 -33.242188 8.265625 -30.222656 8.265625 -27.171875 C 8.265625 -24.117188 8.269531 -21.039062 8.28125 -17.9375 C 8.300781 -14.832031 8.332031 -11.710938 8.375 -8.578125 C 8.40625 -7.003906 8.71875 -5.878906 9.3125 -5.203125 C 9.90625 -4.535156 10.882812 -4.203125 12.25 -4.203125 C 13.625 -4.203125 14.601562 -4.535156 15.1875 -5.203125 C 15.78125 -5.878906 16.085938 -7.003906 16.109375 -8.578125 C 16.160156 -12.785156 16.191406 -16.914062 16.203125 -20.96875 C 16.222656 -25.03125 16.222656 -29.0625 16.203125 -33.0625 C 16.179688 -37.0625 16.148438 -41.082031 16.109375 -45.125 L 17.265625 -45.125 C 17.296875 -42.144531 17.320312 -39.113281 17.34375 -36.03125 C 17.363281 -32.957031 17.375 -29.867188 17.375 -26.765625 C 17.375 -23.660156 17.363281 -20.582031 17.34375 -17.53125 C 17.332031 -14.476562 17.304688 -11.492188 17.265625 -8.578125 C 17.234375 -6.648438 16.820312 -5.28125 16.03125 -4.46875 C 15.25 -3.664062 13.988281 -3.265625 12.25 -3.265625 Z M 12.25 -3.265625 "/></g></g></g><g fill="#212d59" fill-opacity="1"><g transform="translate(211.681527, 133.15383)"><g><path d="M 2.984375 0 L 2.984375 -45.125 L 13.53125 -45.125 L 16.46875 -26.28125 L 19.671875 -4.703125 L 20.890625 -4.703125 L 19.90625 -26.359375 L 19.734375 -45.125 L 20.890625 -45.125 L 21 -26.359375 L 21.90625 -3.75 L 18.875 -3.75 L 12.546875 -44.1875 L 4.140625 -44.1875 L 4.140625 0 Z M 5.296875 0 L 5.34375 -19.3125 L 5 -43.25 L 11.625 -43.25 L 18.046875 -2.8125 L 22.703125 -2.8125 L 22.125 -26.359375 L 22.15625 -45.125 L 23.34375 -45.125 L 23.3125 -26.359375 L 23.609375 -1.875 L 17.140625 -1.875 L 10.625 -42.296875 L 5.921875 -42.296875 L 6.5 -19.3125 L 6.453125 0 Z M 7.71875 0 L 7.625 -19.3125 L 6.78125 -41.375 L 9.796875 -41.375 L 16.15625 -0.9375 L 24.375 -0.9375 L 24.5 -45.125 L 25.65625 -45.125 L 25.53125 0 L 15.078125 0 L 12.078125 -19.453125 L 9.015625 -40.421875 L 7.828125 -40.421875 L 8.671875 -19.3125 L 8.875 0 Z M 7.71875 0 "/></g></g></g><g fill="#212d59" fill-opacity="1"><g transform="translate(240.339259, 133.15383)"><g><path d="M 2.984375 0 L 2.984375 -45.125 L 12.375 -45.125 C 14.3125 -45.125 15.988281 -44.875 17.40625 -44.375 C 18.832031 -43.875 19.9375 -42.972656 20.71875 -41.671875 C 21.507812 -40.367188 21.925781 -38.507812 21.96875 -36.09375 C 22.03125 -33.125 22.070312 -30.210938 22.09375 -27.359375 C 22.113281 -24.515625 22.113281 -21.597656 22.09375 -18.609375 C 22.070312 -15.628906 22.03125 -12.441406 21.96875 -9.046875 C 21.925781 -6.640625 21.519531 -4.78125 20.75 -3.46875 C 19.976562 -2.164062 18.894531 -1.257812 17.5 -0.75 C 16.101562 -0.25 14.4375 0 12.5 0 Z M 4.140625 -1 L 12.5 -1 C 13.71875 -1 14.832031 -1.113281 15.84375 -1.34375 C 16.851562 -1.570312 17.722656 -1.976562 18.453125 -2.5625 C 19.179688 -3.15625 19.75 -3.976562 20.15625 -5.03125 C 20.5625 -6.082031 20.78125 -7.429688 20.8125 -9.078125 C 20.863281 -11.992188 20.898438 -14.914062 20.921875 -17.84375 C 20.941406 -20.78125 20.941406 -23.757812 20.921875 -26.78125 C 20.910156 -29.8125 20.875 -32.910156 20.8125 -36.078125 C 20.769531 -38.203125 20.410156 -39.847656 19.734375 -41.015625 C 19.054688 -42.179688 18.09375 -42.988281 16.84375 -43.4375 C 15.59375 -43.894531 14.101562 -44.125 12.375 -44.125 L 4.140625 -44.125 Z M 5.296875 -2.015625 L 5.296875 -43.109375 L 12.375 -43.109375 C 13.90625 -43.109375 15.203125 -42.910156 16.265625 -42.515625 C 17.335938 -42.117188 18.160156 -41.410156 18.734375 -40.390625 C 19.316406 -39.367188 19.628906 -37.929688 19.671875 -36.078125 C 19.710938 -33.753906 19.742188 -31.492188 19.765625 -29.296875 C 19.785156 -27.097656 19.796875 -24.910156 19.796875 -22.734375 C 19.796875 -20.554688 19.785156 -18.34375 19.765625 -16.09375 C 19.742188 -13.851562 19.710938 -11.519531 19.671875 -9.09375 C 19.628906 -7.1875 19.3125 -5.71875 18.71875 -4.6875 C 18.125 -3.664062 17.296875 -2.960938 16.234375 -2.578125 C 15.179688 -2.203125 13.9375 -2.015625 12.5 -2.015625 Z M 6.453125 -3.015625 L 12.5 -3.015625 C 14.457031 -3.015625 15.9375 -3.453125 16.9375 -4.328125 C 17.945312 -5.203125 18.472656 -6.789062 18.515625 -9.09375 C 18.554688 -12.15625 18.582031 -15.144531 18.59375 -18.0625 C 18.613281 -20.976562 18.613281 -23.914062 18.59375 -26.875 C 18.582031 -29.832031 18.554688 -32.894531 18.515625 -36.0625 C 18.472656 -38.40625 17.925781 -40 16.875 -40.84375 C 15.820312 -41.6875 14.320312 -42.109375 12.375 -42.109375 L 6.453125 -42.109375 Z M 7.609375 -4.03125 L 7.609375 -41.09375 L 12.375 -41.09375 C 13.332031 -41.09375 14.179688 -40.960938 14.921875 -40.703125 C 15.660156 -40.441406 16.242188 -39.945312 16.671875 -39.21875 C 17.097656 -38.5 17.320312 -37.441406 17.34375 -36.046875 C 17.394531 -32.929688 17.429688 -29.941406 17.453125 -27.078125 C 17.472656 -24.210938 17.472656 -21.320312 17.453125 -18.40625 C 17.429688 -15.5 17.394531 -12.398438 17.34375 -9.109375 C 17.3125 -7.097656 16.867188 -5.75 16.015625 -5.0625 C 15.171875 -4.375 14 -4.03125 12.5 -4.03125 Z M 8.765625 -5.03125 L 12.5 -5.03125 C 13.238281 -5.03125 13.882812 -5.144531 14.4375 -5.375 C 14.988281 -5.601562 15.414062 -6.015625 15.71875 -6.609375 C 16.019531 -7.203125 16.179688 -8.050781 16.203125 -9.15625 C 16.242188 -11.988281 16.269531 -14.867188 16.28125 -17.796875 C 16.300781 -20.734375 16.300781 -23.71875 16.28125 -26.75 C 16.269531 -29.789062 16.242188 -32.875 16.203125 -36 C 16.171875 -37.613281 15.820312 -38.695312 15.15625 -39.25 C 14.5 -39.8125 13.570312 -40.09375 12.375 -40.09375 L 8.765625 -40.09375 Z M 8.765625 -5.03125 "/></g></g></g><g fill="#212d59" fill-opacity="1"><g transform="translate(264.963478, 133.15383)"><g><path d="M 1.1875 0 L 6.546875 -45.125 L 16.96875 -45.125 L 22.328125 0 L 21.15625 0 L 15.953125 -44.1875 L 7.5625 -44.1875 L 2.359375 0 Z M 5.84375 0 L 7.296875 -12.71875 L 16.21875 -12.71875 L 17.671875 0 L 16.484375 0 L 15.265625 -11.78125 L 8.21875 -11.78125 L 7.015625 0 Z M 3.484375 0 L 8.296875 -43.21875 L 15.21875 -43.21875 L 20.015625 0 L 18.828125 0 L 17.3125 -13.65625 L 6.1875 -13.65625 L 4.6875 0 Z M 6.265625 -14.59375 L 17.203125 -14.59375 L 15.875 -27.328125 L 14.203125 -42.28125 L 9.3125 -42.28125 L 7.59375 -27.328125 Z M 7.5625 -15.546875 L 8.703125 -27.328125 L 10.109375 -41.375 L 13.390625 -41.375 L 14.828125 -27.328125 L 15.953125 -15.546875 Z M 8.765625 -16.484375 L 14.734375 -16.484375 L 13.75 -27.328125 L 12.515625 -40.421875 L 10.984375 -40.421875 L 9.765625 -27.328125 Z M 8.765625 -16.484375 "/></g></g></g><g fill="#212d59" fill-opacity="1"><g transform="translate(288.47354, 133.15383)"><g><path d="M 9.46875 0 L 9.46875 -42.109375 L 0.3125 -42.109375 L 0.3125 -43.109375 L 19.734375 -43.109375 L 19.734375 -42.109375 L 10.625 -42.109375 L 10.625 0 Z M 7.15625 0 L 7.15625 -40.09375 L 0.3125 -40.09375 L 0.3125 -41.09375 L 8.3125 -41.09375 L 8.3125 0 Z M 11.78125 0 L 11.78125 -41.09375 L 19.734375 -41.09375 L 19.734375 -40.09375 L 12.9375 -40.09375 L 12.9375 0 Z M 0.3125 -44.125 L 0.3125 -45.125 L 19.734375 -45.125 L 19.734375 -44.125 Z M 0.3125 -44.125 "/></g></g></g><g fill="#212d59" fill-opacity="1"><g transform="translate(308.556518, 133.15383)"><g><path d="M 7.609375 0 L 7.609375 -45.125 L 8.765625 -45.125 L 8.765625 0 Z M 2.984375 0 L 2.984375 -45.125 L 4.140625 -45.125 L 4.140625 0 Z M 5.296875 0 L 5.296875 -45.125 L 6.453125 -45.125 L 6.453125 0 Z M 5.296875 0 "/></g></g></g><g fill="#212d59" fill-opacity="1"><g transform="translate(320.318615, 133.15383)"><g><path d="M 12.359375 0.453125 C 8.941406 0.453125 6.488281 -0.253906 5 -1.671875 C 3.507812 -3.085938 2.734375 -5.40625 2.671875 -8.625 C 2.617188 -11.28125 2.582031 -13.753906 2.5625 -16.046875 C 2.539062 -18.335938 2.53125 -20.5625 2.53125 -22.71875 C 2.53125 -24.882812 2.539062 -27.085938 2.5625 -29.328125 C 2.582031 -31.566406 2.617188 -33.960938 2.671875 -36.515625 C 2.734375 -39.742188 3.507812 -42.0625 5 -43.46875 C 6.488281 -44.875 8.941406 -45.578125 12.359375 -45.578125 C 15.722656 -45.578125 18.15625 -44.875 19.65625 -43.46875 C 21.15625 -42.0625 21.945312 -39.742188 22.03125 -36.515625 C 22.09375 -34.003906 22.140625 -31.613281 22.171875 -29.34375 C 22.203125 -27.082031 22.21875 -24.847656 22.21875 -22.640625 C 22.21875 -20.429688 22.203125 -18.179688 22.171875 -15.890625 C 22.140625 -13.597656 22.09375 -11.171875 22.03125 -8.609375 C 21.9375 -5.359375 21.132812 -3.035156 19.625 -1.640625 C 18.125 -0.242188 15.703125 0.453125 12.359375 0.453125 Z M 12.359375 -0.5 C 15.304688 -0.5 17.441406 -1.125 18.765625 -2.375 C 20.097656 -3.632812 20.800781 -5.726562 20.875 -8.65625 C 20.9375 -11.101562 20.976562 -13.441406 21 -15.671875 C 21.03125 -17.898438 21.046875 -20.113281 21.046875 -22.3125 C 21.046875 -24.507812 21.03125 -26.765625 21 -29.078125 C 20.976562 -31.398438 20.9375 -33.863281 20.875 -36.46875 C 20.800781 -39.394531 20.101562 -41.484375 18.78125 -42.734375 C 17.457031 -43.992188 15.316406 -44.625 12.359375 -44.625 C 9.304688 -44.625 7.132812 -43.984375 5.84375 -42.703125 C 4.5625 -41.421875 3.890625 -39.34375 3.828125 -36.46875 C 3.765625 -34.039062 3.722656 -31.726562 3.703125 -29.53125 C 3.679688 -27.34375 3.671875 -25.160156 3.671875 -22.984375 C 3.671875 -20.816406 3.679688 -18.5625 3.703125 -16.21875 C 3.722656 -13.882812 3.765625 -11.363281 3.828125 -8.65625 C 3.878906 -5.707031 4.578125 -3.609375 5.921875 -2.359375 C 7.265625 -1.117188 9.410156 -0.5 12.359375 -0.5 Z M 12.359375 -1.421875 C 9.753906 -1.421875 7.882812 -1.984375 6.75 -3.109375 C 5.613281 -4.234375 5.019531 -6.085938 4.96875 -8.671875 C 4.925781 -11.304688 4.890625 -13.769531 4.859375 -16.0625 C 4.835938 -18.351562 4.828125 -20.578125 4.828125 -22.734375 C 4.835938 -24.898438 4.851562 -27.097656 4.875 -29.328125 C 4.894531 -31.566406 4.925781 -33.945312 4.96875 -36.46875 C 5.019531 -39.050781 5.613281 -40.898438 6.75 -42.015625 C 7.882812 -43.140625 9.753906 -43.703125 12.359375 -43.703125 C 14.921875 -43.703125 16.765625 -43.140625 17.890625 -42.015625 C 19.023438 -40.890625 19.632812 -39.03125 19.71875 -36.4375 C 19.78125 -33.957031 19.828125 -31.585938 19.859375 -29.328125 C 19.890625 -27.066406 19.90625 -24.832031 19.90625 -22.625 C 19.90625 -20.425781 19.890625 -18.1875 19.859375 -15.90625 C 19.828125 -13.632812 19.78125 -11.234375 19.71875 -8.703125 C 19.644531 -6.109375 19.039062 -4.242188 17.90625 -3.109375 C 16.769531 -1.984375 14.921875 -1.421875 12.359375 -1.421875 Z M 12.359375 -2.375 C 14.484375 -2.375 16.03125 -2.851562 17 -3.8125 C 17.976562 -4.78125 18.503906 -6.421875 18.578125 -8.734375 C 18.628906 -11.253906 18.664062 -13.644531 18.6875 -15.90625 C 18.71875 -18.175781 18.734375 -20.394531 18.734375 -22.5625 C 18.734375 -24.726562 18.71875 -26.941406 18.6875 -29.203125 C 18.664062 -31.472656 18.628906 -33.867188 18.578125 -36.390625 C 18.503906 -38.679688 17.988281 -40.3125 17.03125 -41.28125 C 16.070312 -42.257812 14.515625 -42.75 12.359375 -42.75 C 10.140625 -42.75 8.554688 -42.257812 7.609375 -41.28125 C 6.671875 -40.300781 6.175781 -38.6875 6.125 -36.4375 C 6.070312 -33.925781 6.03125 -31.546875 6 -29.296875 C 5.976562 -27.054688 5.96875 -24.847656 5.96875 -22.671875 C 5.96875 -20.492188 5.976562 -18.265625 6 -15.984375 C 6.03125 -13.703125 6.070312 -11.273438 6.125 -8.703125 C 6.175781 -6.441406 6.675781 -4.820312 7.625 -3.84375 C 8.570312 -2.863281 10.148438 -2.375 12.359375 -2.375 Z M 12.359375 -3.3125 C 10.554688 -3.3125 9.265625 -3.734375 8.484375 -4.578125 C 7.710938 -5.421875 7.316406 -6.804688 7.296875 -8.734375 C 7.222656 -12.023438 7.175781 -15.164062 7.15625 -18.15625 C 7.132812 -21.144531 7.132812 -24.125 7.15625 -27.09375 C 7.175781 -30.070312 7.222656 -33.179688 7.296875 -36.421875 C 7.316406 -38.378906 7.722656 -39.765625 8.515625 -40.578125 C 9.316406 -41.398438 10.597656 -41.8125 12.359375 -41.8125 C 14.148438 -41.8125 15.425781 -41.382812 16.1875 -40.53125 C 16.945312 -39.6875 17.359375 -38.300781 17.421875 -36.375 C 17.472656 -33.863281 17.515625 -31.492188 17.546875 -29.265625 C 17.578125 -27.046875 17.59375 -24.859375 17.59375 -22.703125 C 17.59375 -20.554688 17.578125 -18.347656 17.546875 -16.078125 C 17.523438 -13.816406 17.484375 -11.390625 17.421875 -8.796875 C 17.367188 -6.859375 16.960938 -5.457031 16.203125 -4.59375 C 15.441406 -3.738281 14.160156 -3.3125 12.359375 -3.3125 Z M 12.359375 -4.25 C 13.722656 -4.25 14.703125 -4.601562 15.296875 -5.3125 C 15.898438 -6.019531 16.222656 -7.191406 16.265625 -8.828125 C 16.304688 -11.234375 16.335938 -13.519531 16.359375 -15.6875 C 16.390625 -17.863281 16.40625 -20.023438 16.40625 -22.171875 C 16.414062 -24.316406 16.40625 -26.539062 16.375 -28.84375 C 16.351562 -31.15625 16.316406 -33.640625 16.265625 -36.296875 C 16.222656 -37.992188 15.894531 -39.179688 15.28125 -39.859375 C 14.664062 -40.535156 13.691406 -40.875 12.359375 -40.875 C 10.992188 -40.875 10.003906 -40.535156 9.390625 -39.859375 C 8.785156 -39.179688 8.46875 -38.019531 8.4375 -36.375 C 8.375 -33.164062 8.328125 -30.097656 8.296875 -27.171875 C 8.273438 -24.253906 8.273438 -21.304688 8.296875 -18.328125 C 8.316406 -15.359375 8.363281 -12.164062 8.4375 -8.75 C 8.46875 -7.144531 8.78125 -5.992188 9.375 -5.296875 C 9.96875 -4.597656 10.960938 -4.25 12.359375 -4.25 Z M 12.359375 -4.25 "/></g></g></g><g fill="#212d59" fill-opacity="1"><g transform="translate(345.055669, 133.15383)"><g><path d="M 2.984375 0 L 2.984375 -45.125 L 13.53125 -45.125 L 16.46875 -26.28125 L 19.671875 -4.703125 L 20.890625 -4.703125 L 19.90625 -26.359375 L 19.734375 -45.125 L 20.890625 -45.125 L 21 -26.359375 L 21.90625 -3.75 L 18.875 -3.75 L 12.546875 -44.1875 L 4.140625 -44.1875 L 4.140625 0 Z M 5.296875 0 L 5.34375 -19.3125 L 5 -43.25 L 11.625 -43.25 L 18.046875 -2.8125 L 22.703125 -2.8125 L 22.125 -26.359375 L 22.15625 -45.125 L 23.34375 -45.125 L 23.3125 -26.359375 L 23.609375 -1.875 L 17.140625 -1.875 L 10.625 -42.296875 L 5.921875 -42.296875 L 6.5 -19.3125 L 6.453125 0 Z M 7.71875 0 L 7.625 -19.3125 L 6.78125 -41.375 L 9.796875 -41.375 L 16.15625 -0.9375 L 24.375 -0.9375 L 24.5 -45.125 L 25.65625 -45.125 L 25.53125 0 L 15.078125 0 L 12.078125 -19.453125 L 9.015625 -40.421875 L 7.828125 -40.421875 L 8.671875 -19.3125 L 8.875 0 Z M 7.71875 0 "/></g></g></g></svg>