<svg xmlns="http://www.w3.org/2000/svg" xmlns:xlink="http://www.w3.org/1999/xlink" width="1206" zoomAndPan="magnify" viewBox="0 0 904.5 414.749985" height="553" preserveAspectRatio="xMidYMid meet" version="1.0"><defs><clipPath id="3f6d521115"><path d="M 0.0234375 329.96875 L 903.976562 329.96875 L 903.976562 414.5 L 0.0234375 414.5 Z M 0.0234375 329.96875 " clip-rule="nonzero"/></clipPath><clipPath id="ccdca4c714"><path d="M 452 329.96875 C 202.378906 329.96875 0.0234375 349.257812 0.0234375 373.050781 C 0.0234375 396.84375 202.378906 416.132812 452 416.132812 C 701.621094 416.132812 903.976562 396.84375 903.976562 373.050781 C 903.976562 349.257812 701.621094 329.96875 452 329.96875 Z M 452 329.96875 " clip-rule="nonzero"/></clipPath><clipPath id="5485175738"><path d="M 232.011719 12.046875 L 671.996094 12.046875 L 671.996094 384.574219 L 232.011719 384.574219 Z M 232.011719 12.046875 " clip-rule="nonzero"/></clipPath><clipPath id="d617e9fb53"><path d="M 232.011719 12.046875 L 671.996094 12.046875 L 671.996094 384.574219 L 232.011719 384.574219 Z M 232.011719 12.046875 " clip-rule="nonzero"/></clipPath></defs><g clip-path="url(#3f6d521115)"><g clip-path="url(#ccdca4c714)"><path fill="#fcfcfc" d="M 0.0234375 329.96875 L 904.070312 329.96875 L 904.070312 416.132812 L 0.0234375 416.132812 Z M 0.0234375 329.96875 " fill-opacity="1" fill-rule="nonzero"/></g></g><g clip-path="url(#5485175738)"><path fill="#ffffff" d="M 406.039062 175.699219 C 406.039062 175.699219 408.082031 173.191406 406.222656 172.542969 C 406.121094 172.507812 406.019531 172.503906 405.917969 172.480469 C 405.871094 172.464844 405.820312 172.460938 405.773438 172.449219 C 405.628906 172.425781 405.484375 172.402344 405.335938 172.398438 C 405.3125 172.398438 405.289062 172.398438 405.265625 172.398438 C 403.632812 172.375 401.957031 173.425781 401.957031 173.425781 C 401.957031 173.425781 402.527344 172.035156 401.648438 171.515625 C 400.960938 170.5 399.265625 171.035156 396.914062 172.09375 C 393.285156 173.722656 390.824219 174.542969 390.824219 174.542969 C 389.648438 174.917969 388.347656 175.265625 386.953125 175.539062 L 387.902344 175.425781 C 386.570312 175.761719 385.421875 175.960938 384.742188 175.898438 C 385.503906 175.800781 386.242188 175.679688 386.953125 175.539062 L 384.46875 175.839844 C 384.421875 175.828125 384.363281 175.820312 384.324219 175.800781 C 385.285156 175.414062 386.359375 174.128906 387.082031 172.789062 C 387.527344 172.125 387.898438 171.328125 387.910156 170.46875 C 387.957031 170.050781 387.914062 169.703125 387.753906 169.460938 C 387.746094 169.445312 387.738281 169.441406 387.730469 169.429688 C 387.703125 169.359375 387.699219 169.296875 387.667969 169.226562 C 386.9375 167.605469 384.597656 169.878906 382.730469 171.820312 C 381.605469 172.808594 380.273438 173.867188 379.027344 174.421875 C 378.902344 174.480469 378.78125 174.546875 378.644531 174.59375 C 375.863281 175.550781 375.046875 176.574219 374.5 178.074219 C 373.953125 179.578125 372.316406 183.195312 372.316406 183.195312 L 357.714844 199.640625 L 358.394531 180.125 L 355.320312 180.054688 L 355.035156 180.054688 L 355.027344 179.835938 L 341.511719 179.839844 C 341.347656 178.910156 340.421875 174.859375 336.519531 171.453125 C 335.523438 170.515625 334.351562 169.667969 332.960938 169.011719 C 332.910156 168.984375 332.859375 168.957031 332.808594 168.933594 C 332.796875 168.925781 332.789062 168.921875 332.777344 168.917969 C 332.773438 168.914062 332.769531 168.914062 332.761719 168.910156 C 332.160156 168.605469 331.539062 168.339844 330.914062 168.09375 L 327.996094 167.128906 C 323.375 165.710938 319.898438 165.621094 318.085938 165.726562 C 317.222656 165.671875 316.703125 165.664062 316.703125 165.664062 L 316.703125 157.558594 C 316.703125 157.558594 327.417969 156.96875 329.054688 155.695312 C 331.523438 152.90625 332.902344 147.953125 332.828125 145.324219 C 333.371094 145.035156 334.613281 144.316406 335.308594 143.476562 C 335.730469 143.03125 335.949219 142.605469 335.796875 142.191406 C 335.546875 140.601562 332.472656 137.339844 332.472656 137.339844 C 338.289062 133.3125 336 121.058594 330.648438 116.527344 C 326.507812 113.023438 319.285156 111.1875 308.402344 112.570312 C 286.929688 115.300781 286.285156 128.609375 286.285156 138.324219 C 286.285156 138.324219 285.6875 144.644531 287.292969 148.234375 C 289.769531 153.761719 295.359375 157.421875 299.925781 157.421875 L 299.925781 165.554688 C 299.925781 165.554688 296.453125 165.636719 292.03125 166.167969 C 288.546875 166.507812 284.398438 167.207031 280.632812 168.597656 C 279.585938 168.972656 278.601562 169.390625 277.726562 169.863281 C 277.71875 169.867188 277.710938 169.875 277.699219 169.878906 C 277.636719 169.914062 277.574219 169.941406 277.511719 169.976562 C 277.199219 170.136719 276.898438 170.308594 276.605469 170.480469 C 276.484375 170.554688 276.367188 170.628906 276.246094 170.703125 C 276.125 170.78125 276 170.855469 275.882812 170.933594 C 275.863281 170.945312 275.847656 170.957031 275.832031 170.96875 C 274.484375 171.855469 273.285156 172.886719 272.324219 174.101562 C 272.097656 174.390625 271.863281 174.722656 271.628906 175.0625 C 270.007812 177.246094 268.6875 179.976562 267.339844 183.558594 C 266.019531 186.832031 264.746094 190.609375 263.617188 194.667969 C 263.601562 194.71875 263.585938 194.765625 263.570312 194.816406 C 262.441406 198.378906 261.515625 202.507812 260.832031 206.824219 L 246.261719 206.824219 C 246.261719 206.824219 236.4375 208.464844 236.4375 216.835938 C 236.4375 225.203125 236.4375 290.4375 236.4375 294.804688 C 236.4375 299.171875 240.4375 303.996094 249.171875 303.996094 C 259.636719 303.996094 294.210938 303.996094 294.210938 303.996094 L 292.480469 356.898438 L 296.300781 357.082031 L 294.34375 376.371094 C 294.34375 376.371094 293.4375 380.238281 294.210938 382.011719 C 294.980469 383.785156 296.894531 384.285156 296.894531 384.285156 C 296.894531 384.285156 354.257812 384.285156 357.121094 384.285156 C 359.988281 384.285156 360.078125 381.101562 360.078125 380.007812 C 360.078125 378.917969 359.167969 376.1875 354.210938 372.914062 C 349.253906 369.636719 342.839844 364.542969 342.839844 364.542969 L 343.75 354.535156 L 349.753906 354.851562 L 357.714844 282.75 C 357.714844 282.75 359.964844 269.171875 356.894531 262.894531 C 353.824219 256.617188 344.144531 252.140625 332.199219 251.820312 C 332.105469 251.816406 332.019531 251.808594 331.925781 251.804688 L 332.023438 244.644531 L 332.199219 251.820312 L 332.199219 231.539062 C 332.199219 231.539062 336.695312 242.082031 346.113281 241.398438 C 355.53125 240.714844 361.535156 229.117188 362.761719 227.480469 C 363.992188 225.839844 382.6875 193.359375 382.6875 193.359375 L 382.019531 191.875 L 391.183594 188.363281 C 391.183594 188.363281 400.125 186.3125 402.859375 182.691406 C 403.882812 181.730469 404.042969 181.078125 403.667969 180.519531 C 405.605469 179.761719 408.105469 177.824219 407.269531 176.269531 C 406.710938 175.085938 406.039062 175.699219 406.039062 175.699219 Z M 323.367188 369.820312 L 315.773438 364.542969 C 315.773438 364.542969 316.363281 358.265625 316.453125 357.628906 C 316.546875 356.992188 321.957031 357.742188 321.957031 357.742188 L 322.6875 354.214844 L 324.597656 354.035156 Z M 671.386719 382.628906 L 654.675781 304.085938 L 659.042969 304.085938 C 664.875 304.085938 669.597656 299.359375 669.597656 293.53125 L 669.597656 217.472656 C 669.597656 211.644531 664.875 206.917969 659.042969 206.917969 L 645.761719 206.917969 L 640.894531 191.496094 C 640.894531 191.496094 637.710938 183.082031 634.753906 178.714844 C 631.796875 174.347656 621.742188 170.160156 614.644531 168.707031 C 614.644531 168.707031 606.914062 178.988281 603.226562 178.988281 C 599.542969 178.988281 596.949219 169.113281 596.949219 169.113281 C 596.949219 169.113281 592.492188 179.578125 589.488281 179.578125 C 586.488281 179.578125 586.03125 168.796875 586.03125 168.796875 C 586.03125 168.796875 574.296875 172.527344 571.109375 174.621094 C 567.925781 176.710938 564.675781 178.894531 560.785156 189.8125 C 556.894531 200.730469 555.121094 206.667969 555.121094 206.667969 L 545.566406 206.667969 L 531.238281 196.363281 C 531.238281 196.363281 530.625 196.5 530.488281 193.679688 C 530.351562 190.859375 530.167969 188.8125 529.667969 187.71875 C 529.167969 186.628906 527.621094 181.351562 527.484375 179.441406 C 527.347656 177.53125 527.578125 172.253906 526.710938 171.707031 C 525.847656 171.160156 523.253906 172.707031 522.980469 175.757812 C 522.710938 178.804688 522.074219 181.035156 522.074219 181.035156 L 515.703125 173.710938 C 515.703125 173.710938 511.289062 168.25 509.0625 167.023438 C 506.832031 165.792969 505.058594 165.792969 504.742188 167.113281 C 504.421875 168.433594 509.425781 174.4375 511.746094 176.257812 C 510.152344 176.257812 509.335938 178.304688 510.246094 179.214844 C 508.242188 179.078125 507.46875 180.625 508.742188 182.261719 C 506.558594 182.898438 505.242188 184.761719 506.96875 188.722656 C 508.699219 192.679688 520.296875 206.371094 520.296875 206.371094 L 519.84375 206.917969 L 502.191406 206.917969 C 496.363281 206.917969 491.640625 211.644531 491.640625 217.472656 L 491.640625 229.117188 L 457.453125 229.117188 C 451.625 229.117188 446.898438 233.84375 446.898438 239.671875 L 446.898438 293.53125 C 446.898438 299.359375 451.625 304.085938 457.453125 304.085938 L 461.050781 304.085938 L 444.339844 382.625 C 444.160156 383.480469 444.808594 384.285156 445.679688 384.285156 L 447.992188 384.285156 C 448.636719 384.285156 449.195312 383.832031 449.332031 383.199219 L 466.164062 304.085938 L 491.621094 304.085938 L 474.910156 382.625 C 474.726562 383.480469 475.378906 384.285156 476.25 384.285156 L 478.5625 384.285156 C 479.207031 384.285156 479.765625 383.832031 479.902344 383.199219 L 496.734375 304.085938 L 527.484375 304.085938 L 528.234375 309.773438 L 534.308594 309.839844 L 532.855469 345.027344 L 532.308594 362.132812 L 515.429688 367.953125 C 515.429688 367.953125 500.375 373.867188 499.28125 376.050781 C 498.191406 378.234375 498.734375 380.648438 499.097656 381.785156 C 499.464844 382.921875 501.417969 384.195312 501.417969 384.195312 L 511.335938 383.96875 L 558.875 384.011719 C 558.875 384.011719 562.011719 383.832031 562.242188 380.328125 C 562.46875 376.824219 562.332031 369.320312 562.332031 369.320312 L 580.800781 309.910156 L 591.261719 309.816406 L 592.242188 304.085938 L 618.992188 304.085938 L 635.828125 383.199219 C 635.960938 383.832031 636.519531 384.285156 637.167969 384.285156 L 639.476562 384.285156 C 640.347656 384.285156 641 383.480469 640.816406 382.625 L 624.105469 304.085938 L 649.5625 304.085938 L 666.394531 383.199219 C 666.53125 383.832031 667.089844 384.285156 667.738281 384.285156 L 670.046875 384.285156 C 670.917969 384.285156 671.570312 383.480469 671.386719 382.628906 Z M 232.71875 382.628906 C 232.535156 383.480469 233.1875 384.285156 234.058594 384.285156 L 236.367188 384.285156 C 237.015625 384.285156 237.574219 383.832031 237.707031 383.199219 L 254.542969 304.085938 L 249.429688 304.085938 Z M 263.285156 382.628906 C 263.105469 383.480469 263.753906 384.285156 264.628906 384.285156 L 266.9375 384.285156 C 267.585938 384.285156 268.144531 383.832031 268.277344 383.199219 L 285.109375 304.085938 L 279.996094 304.085938 Z M 609.460938 157.878906 C 611.644531 157.695312 612.597656 155.558594 612.597656 155.558594 C 612.597656 155.558594 615.714844 159.378906 620.421875 158.96875 C 625.132812 158.5625 626.15625 152.214844 626.15625 152.214844 C 626.15625 152.214844 625.472656 148.257812 626.019531 135.019531 C 626.5625 121.78125 623.085938 112.433594 616.738281 108.75 C 610.390625 105.0625 596.472656 103.289062 585.964844 108.132812 C 575.457031 112.980469 574.433594 121.304688 574.363281 126.285156 C 574.296875 131.265625 576.480469 134.132812 576.480469 134.132812 C 576.480469 134.132812 573.476562 137.816406 573.476562 139.113281 C 573.476562 140.410156 576.34375 141.570312 576.34375 141.570312 C 576.34375 141.570312 574.023438 145.117188 573.546875 150.101562 C 573.066406 155.082031 576.753906 156.921875 579.003906 157.265625 C 581.253906 157.605469 583.03125 155.761719 583.03125 155.761719 C 583.03125 155.761719 584.667969 157.402344 587.601562 157.808594 C 590.535156 158.21875 592.445312 156.515625 592.445312 156.515625 L 592.265625 163.609375 C 592.265625 163.609375 594.628906 168.976562 596.949219 169.113281 C 599.269531 169.25 609.914062 162.972656 609.914062 162.972656 C 609.914062 162.972656 609.734375 160.335938 609.460938 157.878906 Z M 478.765625 100.695312 L 478.765625 130.992188 C 478.765625 133.933594 481.148438 136.316406 484.085938 136.316406 L 528.320312 136.316406 L 537.855469 149.964844 L 537.855469 136.316406 L 539.496094 136.316406 C 542.433594 136.316406 544.816406 133.933594 544.816406 130.992188 L 544.816406 100.695312 C 544.816406 97.757812 542.433594 95.375 539.496094 95.375 L 484.085938 95.375 C 481.148438 95.375 478.765625 97.757812 478.765625 100.695312 Z M 478.492188 58.890625 C 491.230469 58.890625 501.554688 48.566406 501.554688 35.828125 C 501.554688 23.089844 491.230469 12.761719 478.492188 12.761719 C 465.753906 12.761719 455.429688 23.089844 455.429688 35.828125 C 455.429688 48.566406 465.753906 58.890625 478.492188 58.890625 Z M 430 46.882812 L 350.664062 46.882812 C 347.722656 46.882812 345.339844 49.265625 345.339844 52.203125 L 345.339844 75.3125 C 345.339844 78.253906 347.722656 80.636719 350.664062 80.636719 L 364.445312 80.636719 L 364.445312 95.375 L 375.746094 80.636719 L 430 80.636719 C 432.9375 80.636719 435.320312 78.253906 435.320312 75.3125 L 435.320312 52.203125 C 435.320312 49.265625 432.9375 46.882812 430 46.882812 Z M 454.585938 201.0625 L 454.585938 209.609375 L 455.496094 209.609375 C 455.496094 211.792969 457.792969 213.558594 460.628906 213.558594 C 463.464844 213.558594 465.761719 211.792969 465.761719 209.609375 L 466.667969 209.609375 L 466.667969 201.0625 C 466.667969 201.0625 467.402344 197.792969 468.082031 196.9375 C 471.054688 193.214844 474.84375 189.964844 474.84375 184.851562 C 474.84375 177 468.480469 170.636719 460.628906 170.636719 C 452.777344 170.636719 446.414062 177 446.414062 184.851562 C 446.414062 189.964844 450.203125 193.214844 453.175781 196.9375 C 453.855469 197.792969 454.585938 201.0625 454.585938 201.0625 Z M 454.585938 201.0625 " fill-opacity="1" fill-rule="nonzero"/></g><path fill="#ebfbff" d="M 512.726562 280.410156 C 512.828125 281.101562 512.574219 281.761719 512.097656 282.207031 L 463.980469 282.167969 L 459.332031 251.699219 C 459.164062 250.582031 459.933594 249.542969 461.054688 249.375 L 505.03125 242.796875 C 506.148438 242.628906 507.191406 243.398438 507.359375 244.519531 Z M 357.304688 199.707031 L 355.1875 226.660156 L 325.097656 226.867188 L 325.164062 224.476562 L 320.546875 226.84375 L 312.269531 213.742188 C 312.269531 213.742188 319.046875 207.417969 320.957031 205.371094 C 322.867188 203.324219 327.007812 201.140625 327.007812 201.140625 L 328.234375 180.53125 L 341.609375 179.988281 C 340.792969 177.597656 339.152344 172.34375 332.808594 168.933594 C 326.460938 165.519531 316.703125 165.792969 316.703125 165.792969 L 316.703125 168.863281 C 316.703125 168.863281 316.910156 171.730469 310.289062 171.730469 C 303.671875 171.730469 299.941406 165.886719 299.941406 165.886719 C 299.941406 165.886719 279.96875 166.386719 273.921875 172.070312 C 267.914062 177.710938 262.59375 195.679688 260.75 206.734375 C 258.910156 217.789062 259.660156 229.320312 259.660156 229.320312 C 259.660156 229.320312 262.660156 228.777344 270.097656 229.390625 C 277.535156 230.003906 281.015625 233.550781 281.015625 238.804688 C 281.015625 244.0625 281.015625 251.703125 281.015625 251.703125 L 332.464844 251.703125 L 332.195312 231.847656 C 332.195312 231.847656 335.402344 237.851562 340.449219 240.375 C 348.09375 243.582031 354.78125 238.398438 358.601562 233.6875 C 362.421875 228.980469 371.90625 211.375 371.90625 211.375 L 382.757812 193.226562 L 372.382812 183.058594 Z M 475.230469 49.519531 L 481.707031 49.519531 L 481.707031 34.136719 L 489.101562 34.136719 L 478.46875 22.226562 L 467.835938 34.136719 L 475.230469 34.136719 Z M 609.550781 162.609375 C 609.550781 162.609375 600.542969 168.707031 596.769531 169.070312 C 594.949219 169.386719 592.402344 163.839844 592.402344 163.839844 L 586.078125 168.796875 C 586.078125 168.796875 586.167969 177.667969 589.445312 178.894531 C 591.261719 179.488281 595.449219 173.164062 596.585938 169.886719 C 598.132812 173.300781 600.042969 178.984375 603.5 178.804688 C 606.957031 178.621094 613.054688 171.070312 614.328125 168.796875 C 613.007812 166.613281 609.550781 162.609375 609.550781 162.609375 Z M 609.550781 162.609375 " fill-opacity="1" fill-rule="nonzero"/><g clip-path="url(#d617e9fb53)"><path fill="#212d59" d="M 452.757812 197.273438 C 453.191406 197.816406 453.773438 199.902344 454.050781 201.128906 L 454.050781 209.609375 C 454.050781 209.90625 454.289062 210.144531 454.585938 210.144531 L 455.027344 210.144531 C 455.367188 212.363281 457.734375 214.09375 460.628906 214.09375 C 463.523438 214.09375 465.890625 212.363281 466.226562 210.144531 L 466.671875 210.144531 C 466.964844 210.144531 467.203125 209.90625 467.203125 209.609375 L 467.203125 201.128906 C 467.480469 199.902344 468.066406 197.816406 468.5 197.273438 C 469.046875 196.589844 469.621094 195.921875 470.191406 195.253906 C 472.742188 192.285156 475.378906 189.214844 475.378906 184.851562 C 475.378906 176.71875 468.761719 170.101562 460.628906 170.101562 C 452.496094 170.101562 445.878906 176.71875 445.878906 184.851562 C 445.878906 189.214844 448.515625 192.285156 451.0625 195.253906 C 451.636719 195.921875 452.210938 196.589844 452.757812 197.273438 Z M 455.121094 209.074219 L 455.121094 201.597656 L 466.136719 201.597656 L 466.136719 209.074219 Z M 458.199219 191.582031 C 456.855469 190.890625 456.132812 189.707031 455.773438 188.890625 C 454.839844 186.757812 455.105469 184.523438 455.886719 183.671875 C 456.21875 183.3125 456.574219 183.121094 456.890625 183.121094 C 456.984375 183.121094 457.074219 183.136719 457.160156 183.167969 C 457.660156 183.367188 458.199219 184.214844 458.199219 186.015625 Z M 461.988281 200.53125 L 459.265625 200.53125 L 459.265625 193.066406 C 460.136719 193.246094 461.117188 193.246094 461.988281 193.066406 Z M 460.628906 171.167969 C 468.171875 171.167969 474.308594 177.308594 474.308594 184.851562 C 474.308594 188.820312 471.917969 191.605469 469.382812 194.558594 C 468.800781 195.234375 468.21875 195.914062 467.664062 196.605469 C 467.058594 197.363281 466.476562 199.574219 466.246094 200.53125 L 463.058594 200.53125 L 463.058594 192.746094 C 464.546875 192.148438 465.738281 190.96875 466.460938 189.320312 C 467.464844 187.027344 467.332031 184.226562 466.15625 182.949219 C 465.421875 182.152344 464.503906 181.863281 463.707031 182.175781 C 462.617188 182.601562 461.988281 184 461.988281 186.015625 L 461.988281 191.976562 C 461.167969 192.175781 460.085938 192.175781 459.265625 191.976562 L 459.265625 186.015625 C 459.265625 184 458.640625 182.601562 457.550781 182.175781 C 456.753906 181.863281 455.835938 182.152344 455.101562 182.949219 C 453.925781 184.226562 453.789062 187.027344 454.796875 189.320312 C 455.519531 190.96875 456.707031 192.148438 458.199219 192.746094 L 458.199219 200.53125 L 455.011719 200.53125 C 454.777344 199.574219 454.199219 197.363281 453.59375 196.605469 C 453.039062 195.914062 452.457031 195.234375 451.875 194.558594 C 449.339844 191.605469 446.945312 188.820312 446.945312 184.851562 C 446.945312 177.308594 453.082031 171.167969 460.628906 171.167969 Z M 463.058594 191.582031 L 463.058594 186.015625 C 463.058594 184.214844 463.59375 183.367188 464.09375 183.167969 C 464.179688 183.136719 464.273438 183.121094 464.363281 183.121094 C 464.683594 183.121094 465.035156 183.3125 465.367188 183.671875 C 466.152344 184.523438 466.417969 186.761719 465.480469 188.894531 C 465.121094 189.707031 464.402344 190.894531 463.058594 191.582031 Z M 327.925781 147.265625 C 326.105469 146.574219 322.453125 145.339844 318.441406 144.832031 C 318.210938 144.800781 317.988281 144.929688 317.890625 145.140625 C 317.21875 146.601562 317.992188 149.484375 319.988281 151.007812 C 320.628906 151.496094 321.628906 152.019531 322.976562 152.019531 C 324.382812 152.019531 326.171875 151.445312 328.316406 149.648438 C 328.703125 149.324219 328.886719 148.832031 328.800781 148.332031 C 328.71875 147.839844 328.390625 147.441406 327.925781 147.265625 Z M 327.628906 148.828125 C 324.945312 151.074219 322.460938 151.550781 320.636719 150.15625 C 319.160156 149.03125 318.558594 147.050781 318.753906 145.953125 C 322.480469 146.476562 325.839844 147.617188 327.546875 148.265625 L 327.550781 148.265625 C 327.695312 148.320312 327.734375 148.441406 327.746094 148.507812 C 327.753906 148.566406 327.765625 148.714844 327.628906 148.828125 Z M 378.40625 185.648438 C 378.460938 185.667969 378.519531 185.675781 378.574219 185.675781 C 378.796875 185.675781 379.007812 185.535156 379.082031 185.308594 C 379.085938 185.296875 379.53125 184.003906 380.890625 183.414062 C 382.316406 182.792969 383.460938 183.140625 385.046875 183.621094 C 385.628906 183.796875 386.289062 183.996094 387.023438 184.164062 C 387.316406 184.230469 387.597656 184.046875 387.664062 183.757812 C 387.730469 183.472656 387.550781 183.183594 387.261719 183.121094 C 386.554688 182.960938 385.933594 182.769531 385.355469 182.597656 C 383.6875 182.09375 382.25 181.660156 380.464844 182.433594 C 378.652344 183.222656 378.089844 184.90625 378.066406 184.976562 C 377.976562 185.257812 378.128906 185.558594 378.40625 185.648438 Z M 671.910156 382.515625 L 655.335938 304.621094 L 659.042969 304.621094 C 665.160156 304.621094 670.132812 299.644531 670.132812 293.53125 L 670.132812 217.472656 C 670.132812 211.359375 665.160156 206.382812 659.042969 206.382812 L 646.007812 206.382812 C 643.429688 197.375 638.71875 182.351562 634.878906 177.996094 C 629.109375 171.460938 615.609375 168.316406 615.039062 168.183594 C 614.976562 168.167969 614.914062 168.171875 614.855469 168.179688 L 610.3125 162.601562 L 610.3125 158.167969 C 611.191406 157.734375 611.976562 157.136719 612.5625 156.359375 C 613.820312 157.988281 616.027344 159.191406 618.328125 159.441406 C 620.738281 159.703125 622.898438 158.902344 624.417969 157.1875 C 626.933594 154.339844 626.839844 151.953125 626.625 146.183594 C 626.523438 143.5 626.398438 140.164062 626.460938 135.640625 C 626.695312 119.421875 623.964844 108.734375 609.664062 105.589844 C 595.695312 102.515625 583.214844 107.125 578.113281 113.273438 C 573.691406 118.605469 571.832031 128.273438 576.042969 133.941406 C 575.210938 134.863281 573.117188 137.296875 572.890625 138.742188 C 572.671875 140.15625 574.402344 141.429688 575.554688 142.109375 C 575.15625 142.90625 571.347656 150.835938 574.554688 155.019531 C 575.863281 156.726562 577.410156 157.652344 579.152344 157.765625 C 580.640625 157.875 582.09375 157.300781 583.042969 156.59375 C 583.65625 157.394531 584.679688 157.949219 586.03125 158.214844 C 586.621094 158.332031 587.253906 158.386719 587.886719 158.386719 C 589.480469 158.386719 591.085938 158.042969 592.058594 157.46875 L 592.058594 163.476562 L 585.753906 168.210938 C 584.351562 168.539062 571.589844 171.691406 566.023438 177.996094 C 562.183594 182.351562 557.472656 197.375 554.894531 206.382812 L 545.410156 206.382812 C 545.398438 206.382812 545.386719 206.390625 545.375 206.390625 L 531.636719 195.582031 C 531.480469 195.457031 531.273438 195.433594 531.097656 195.507812 C 531.058594 195.132812 531.058594 194.667969 531.0625 194.125 C 531.082031 192.4375 531.109375 189.890625 529.769531 186.71875 C 527.859375 182.203125 527.820312 177.265625 527.792969 173.996094 L 527.785156 173.015625 C 527.753906 171.21875 526.601562 171.03125 526.246094 171.015625 C 524.59375 170.945312 522.535156 173.105469 522.242188 175.988281 C 522.035156 177.996094 521.917969 179.46875 521.851562 180.441406 C 521.320312 179.769531 520.640625 178.925781 520.0625 178.269531 C 519.664062 177.816406 519.140625 177.191406 518.511719 176.4375 C 517.140625 174.796875 515.269531 172.550781 513.046875 170.160156 C 510.5 167.421875 507.566406 164.757812 505.085938 165.753906 C 504.632812 165.9375 504.347656 166.273438 504.257812 166.734375 C 503.878906 168.664062 507.5625 172.820312 510.964844 176.175781 C 510.738281 176.242188 510.519531 176.328125 510.332031 176.460938 C 510.011719 176.691406 509.394531 177.320312 509.617188 178.570312 C 508.917969 178.589844 508.195312 178.859375 507.78125 179.410156 C 507.464844 179.828125 507.167969 180.664062 508.007812 181.914062 C 507.394531 182.066406 506.859375 182.40625 506.492188 182.957031 C 505.148438 184.988281 506.035156 188.847656 508.925781 193.550781 C 511.90625 198.398438 519.148438 206.050781 519.457031 206.375 C 519.460938 206.378906 519.464844 206.378906 519.46875 206.382812 L 502.191406 206.382812 C 496.078125 206.382812 491.105469 211.359375 491.105469 217.472656 L 491.105469 228.582031 L 457.453125 228.582031 C 451.339844 228.582031 446.363281 233.558594 446.363281 239.671875 L 446.363281 293.53125 C 446.363281 299.644531 451.339844 304.621094 457.453125 304.621094 L 460.390625 304.621094 L 443.816406 382.515625 C 443.726562 382.9375 443.785156 383.371094 443.96875 383.75 L 359.089844 383.75 C 359.824219 383.101562 360.363281 382.210938 360.519531 381.242188 C 360.675781 380.257812 360.679688 378.777344 359.792969 377.300781 C 357.261719 373.078125 345.488281 365.6875 343.421875 364.414062 L 344.484375 355.113281 L 349.789062 355.207031 C 349.789062 355.207031 349.792969 355.207031 349.796875 355.207031 C 350.070312 355.207031 350.300781 354.996094 350.328125 354.722656 C 350.382812 354.183594 355.792969 300.449219 358.765625 279.101562 C 358.816406 278.652344 360.011719 268.109375 357.375 262.726562 C 351.667969 251.085938 334.414062 251.488281 333.695312 251.507812 L 332.730469 251.507812 L 332.730469 233.730469 C 335.574219 238.617188 339.894531 241.621094 344.609375 241.878906 C 344.832031 241.890625 345.054688 241.898438 345.273438 241.898438 C 351.289062 241.898438 357.253906 237.4375 362.132812 229.253906 C 370.949219 214.46875 383.417969 193.636719 383.417969 193.636719 C 383.546875 193.421875 383.511719 193.148438 383.332031 192.976562 L 382.433594 192.105469 C 384.242188 191.429688 389.144531 189.722656 392.253906 188.636719 C 393.429688 188.226562 394.394531 187.890625 394.914062 187.707031 C 396.742188 187.0625 398.8125 186.277344 400.300781 185.355469 C 403.292969 183.503906 404.605469 182.320312 404.835938 181.269531 C 404.882812 181.039062 404.878906 180.816406 404.828125 180.597656 C 405.609375 180.160156 407.222656 179.164062 407.914062 178.074219 C 408.433594 177.257812 408.449219 176.355469 407.957031 175.714844 C 407.761719 175.460938 407.484375 175.296875 407.179688 175.175781 C 407.644531 174.570312 408.0625 173.683594 407.640625 172.730469 C 407.449219 172.300781 407.109375 171.988281 406.65625 171.828125 C 405.824219 171.535156 404.617188 171.746094 402.925781 172.46875 C 402.996094 172.015625 402.9375 171.523438 402.617188 171.046875 C 401.652344 169.597656 399.515625 170.390625 397.222656 171.40625 C 393.65625 172.988281 391.191406 173.800781 391.175781 173.808594 C 389.558594 174.316406 387.941406 174.6875 386.332031 174.941406 C 386.550781 174.722656 386.777344 174.476562 387.003906 174.191406 L 387.203125 173.949219 C 388.066406 172.90625 389.667969 170.964844 388.695312 168.769531 C 388.425781 168.164062 387.992188 167.972656 387.675781 167.917969 C 386.363281 167.675781 384.601562 169.390625 382.429688 171.640625 L 382.308594 171.765625 C 382.296875 171.78125 380.933594 173.035156 378.949219 173.816406 C 376.839844 174.644531 375.015625 175.363281 373.9375 178.042969 C 373.753906 178.503906 373.597656 178.925781 373.449219 179.328125 C 373.007812 180.535156 372.65625 181.488281 371.800781 182.671875 L 357.84375 198.710938 L 359.15625 180.09375 C 359.167969 179.945312 359.113281 179.796875 359.015625 179.691406 C 358.914062 179.582031 358.769531 179.519531 358.621094 179.519531 L 341.910156 179.519531 C 340.984375 177.109375 340.082031 175.179688 339.21875 173.816406 C 333.898438 165.414062 320.289062 165.246094 317.238281 165.320312 L 317.238281 158.097656 C 319.691406 158.054688 328.226562 157.945312 329.773438 155.628906 C 331.621094 152.855469 332.722656 149.582031 333.136719 145.625 C 334.125 145.113281 336.667969 143.621094 336.402344 141.925781 C 336.179688 140.511719 334.183594 138.160156 333.3125 137.191406 C 335.164062 135.4375 336.222656 132.882812 336.386719 129.761719 C 336.628906 125.160156 334.84375 120.191406 331.835938 117.109375 C 327.488281 112.648438 320.335938 110.964844 309.316406 111.796875 C 285.105469 113.636719 285.484375 130.417969 285.710938 140.445312 C 285.730469 141.375 285.75 142.253906 285.75 143.070312 C 285.75 145.71875 286.519531 148.246094 288.035156 150.574219 C 290.558594 154.453125 294.683594 157.019531 299.394531 157.75 L 299.394531 165.324219 C 296.011719 165.242188 278.628906 165.269531 271.902344 173.769531 C 267.726562 179.058594 262.820312 192.464844 260.375 206.421875 C 260.316406 206.398438 260.25 206.382812 260.183594 206.382812 L 246.921875 206.382812 C 240.808594 206.382812 235.832031 211.359375 235.832031 217.472656 L 235.832031 293.53125 C 235.832031 299.644531 240.808594 304.621094 246.921875 304.621094 L 248.765625 304.621094 L 232.195312 382.515625 C 232.074219 383.082031 232.214844 383.664062 232.578125 384.113281 C 232.941406 384.5625 233.480469 384.820312 234.058594 384.820312 L 670.046875 384.820312 C 670.625 384.820312 671.164062 384.5625 671.527344 384.113281 C 671.890625 383.664062 672.03125 383.082031 671.910156 382.515625 Z M 659.042969 303.550781 L 592.589844 303.550781 L 594.5625 285.605469 L 607.457031 285.605469 C 615.722656 285.605469 625.210938 284.832031 625.210938 278.792969 L 625.210938 241.730469 C 633.871094 239.980469 641.773438 237.683594 644.554688 234.8125 C 645.71875 233.609375 646.972656 231.992188 647.867188 229.652344 L 669.0625 229.652344 L 669.0625 293.53125 C 669.0625 299.054688 664.570312 303.550781 659.042969 303.550781 Z M 641.339844 382.515625 L 624.765625 304.621094 L 649.128906 304.621094 L 665.875 383.308594 C 665.90625 383.46875 665.980469 383.609375 666.050781 383.75 L 641.1875 383.75 C 641.375 383.371094 641.429688 382.9375 641.339844 382.515625 Z M 527.085938 304.621094 C 527.082031 306.582031 527.125 308.382812 527.226562 309.941406 C 527.242188 310.222656 527.476562 310.441406 527.757812 310.441406 L 530.460938 310.449219 C 531.714844 310.453125 532.808594 310.457031 533.929688 310.449219 C 532.839844 331.804688 531.769531 358.332031 531.628906 361.761719 C 525.453125 363.796875 499.144531 372.667969 498.605469 376.457031 C 498.421875 377.742188 498.34375 379.15625 498.367188 380.652344 C 498.367188 380.65625 498.367188 380.65625 498.367188 380.65625 C 498.367188 380.65625 498.367188 380.660156 498.367188 380.660156 C 498.367188 380.671875 498.367188 380.683594 498.367188 380.695312 C 498.390625 381.949219 499.023438 383.054688 499.96875 383.75 L 480.246094 383.75 C 480.316406 383.609375 480.390625 383.46875 480.425781 383.3125 L 497.167969 304.621094 Z M 532.554688 263.425781 C 536.5625 252.566406 549.1875 252.765625 555.246094 252.855469 C 556.425781 252.875 562.515625 252.886719 573.84375 252.886719 C 573.804688 253.808594 573.796875 254.710938 573.851562 255.5625 C 574.082031 258.957031 575.359375 260.460938 576.53125 260.460938 C 576.542969 260.460938 576.554688 260.460938 576.566406 260.460938 C 576.910156 260.453125 577.277344 260.292969 577.589844 259.957031 C 578.046875 261.261719 578.929688 261.761719 579.757812 261.761719 C 579.773438 261.761719 579.792969 261.761719 579.808594 261.761719 C 580.859375 261.738281 581.742188 260.945312 581.9375 259.929688 C 582.222656 260.085938 582.546875 260.183594 582.886719 260.195312 C 582.90625 260.199219 582.929688 260.199219 582.949219 260.199219 C 583.496094 260.199219 584.957031 259.9375 585.339844 257.472656 C 585.648438 257.652344 585.933594 257.722656 586.167969 257.722656 C 586.253906 257.722656 586.332031 257.714844 586.402344 257.703125 C 587.171875 257.578125 587.835938 256.894531 588.441406 255.613281 C 588.800781 254.847656 589.140625 253.902344 589.457031 252.882812 C 605.355469 252.875 621.144531 252.859375 624.140625 252.859375 L 624.140625 278.792969 C 624.140625 283.882812 615.226562 284.535156 607.457031 284.535156 L 594.085938 284.535156 C 593.8125 284.535156 593.582031 284.742188 593.554688 285.011719 L 590.875 309.375 L 534.492188 309.375 C 534.488281 309.375 534.488281 309.375 534.488281 309.375 C 534.488281 309.375 534.484375 309.375 534.484375 309.375 C 533.160156 309.390625 531.917969 309.386719 530.464844 309.378906 L 528.261719 309.375 C 527.535156 296.089844 530.597656 268.734375 532.554688 263.425781 Z M 592.824219 227.542969 L 594.503906 240.902344 C 592.761719 242.726562 590.863281 243.859375 590.84375 243.871094 C 590.726562 243.941406 590.636719 244.054688 590.601562 244.1875 C 590.414062 244.847656 590.199219 245.761719 589.953125 246.796875 C 589.324219 249.441406 588.460938 253.058594 587.472656 255.15625 C 586.882812 256.417969 586.410156 256.621094 586.234375 256.648438 C 586.039062 256.679688 585.808594 256.5625 585.554688 256.296875 C 585.542969 256.285156 585.523438 256.277344 585.511719 256.265625 C 586.136719 251.832031 587.464844 247.515625 587.480469 247.46875 C 587.566406 247.1875 587.410156 246.890625 587.128906 246.800781 C 586.839844 246.710938 586.542969 246.871094 586.457031 247.152344 C 586.441406 247.203125 584.882812 252.253906 584.324219 257.105469 C 584.171875 258.417969 583.660156 259.144531 582.925781 259.128906 C 582.433594 259.113281 582.023438 258.757812 582.011719 258.476562 C 582.011719 258.460938 582.003906 258.449219 582 258.433594 C 582.171875 251.800781 583.160156 247.003906 583.171875 246.953125 C 583.230469 246.664062 583.046875 246.382812 582.757812 246.320312 C 582.472656 246.265625 582.1875 246.445312 582.125 246.734375 C 582.113281 246.789062 580.992188 252.214844 580.910156 259.523438 C 580.902344 260.207031 580.320312 260.679688 579.78125 260.695312 C 579.773438 260.695312 579.765625 260.695312 579.757812 260.695312 C 578.984375 260.695312 578.449219 259.78125 578.359375 258.296875 C 577.871094 250.214844 579.609375 245.9375 579.625 245.894531 C 579.738281 245.625 579.613281 245.308594 579.339844 245.195312 C 579.066406 245.082031 578.753906 245.210938 578.640625 245.480469 C 578.566406 245.65625 576.902344 249.738281 577.257812 257.578125 C 577.253906 257.597656 577.242188 257.617188 577.242188 257.640625 C 577.222656 258.769531 576.863281 259.386719 576.539062 259.394531 C 576.539062 259.394531 576.535156 259.394531 576.535156 259.394531 C 576.058594 259.394531 575.105469 258.257812 574.921875 255.488281 C 574.609375 250.871094 576 244.675781 576.519531 242.34375 C 577.226562 239.199219 582.199219 233.386719 588.996094 229.484375 C 590.289062 228.746094 591.929688 227.957031 592.824219 227.542969 Z M 624.140625 251.789062 C 621.171875 251.792969 605.570312 251.808594 589.777344 251.8125 C 590.242188 250.191406 590.652344 248.480469 590.992188 247.046875 C 591.210938 246.125 591.40625 245.304688 591.574219 244.675781 C 592.046875 244.378906 593.335938 243.523438 594.671875 242.246094 L 595.070312 245.421875 C 595.105469 245.691406 595.332031 245.890625 595.601562 245.890625 C 595.617188 245.890625 595.632812 245.890625 595.648438 245.886719 C 596.65625 245.800781 611.058594 244.496094 624.140625 241.941406 Z M 535 310.441406 L 552.898438 310.441406 L 543.308594 361.742188 C 541.746094 362.238281 538.886719 363.164062 535.445312 364.335938 C 535.414062 364.242188 535.371094 364.15625 535.289062 364.089844 L 532.695312 361.914062 C 532.808594 359.078125 533.894531 332.09375 535 310.441406 Z M 546.882812 372.535156 C 546.984375 372.628906 547.113281 372.675781 547.246094 372.675781 C 547.328125 372.675781 547.414062 372.65625 547.492188 372.617188 L 552.367188 370.082031 L 561.824219 370.082031 L 561.867188 380.160156 L 510 380.128906 C 510 378.871094 510.0625 377.679688 510.21875 376.605469 C 510.519531 374.496094 527.390625 367.929688 543.636719 362.757812 L 548.605469 367.4375 L 546.75 371.9375 C 546.664062 372.144531 546.71875 372.386719 546.882812 372.535156 Z M 532.035156 362.753906 L 534.363281 364.707031 C 524.035156 368.253906 509.554688 373.699219 509.160156 376.453125 C 509 377.578125 508.933594 378.820312 508.933594 380.128906 L 499.445312 380.121094 C 499.445312 378.875 499.507812 377.6875 499.664062 376.605469 C 499.996094 374.277344 518.695312 367.140625 532.035156 362.753906 Z M 561.964844 369.011719 L 552.238281 369.011719 C 552.152344 369.011719 552.066406 369.03125 551.988281 369.070312 L 548.296875 370.992188 L 549.734375 367.503906 C 549.820312 367.300781 549.769531 367.0625 549.609375 366.910156 L 544.351562 361.964844 L 553.984375 310.441406 L 580.070312 310.441406 Z M 562.9375 380.261719 L 562.894531 369.625 L 581.1875 310.441406 L 591.355469 310.441406 C 591.625 310.441406 591.855469 310.238281 591.886719 309.96875 L 592.472656 304.621094 L 618.558594 304.621094 L 635.304688 383.308594 C 635.335938 383.46875 635.410156 383.609375 635.480469 383.75 L 561.109375 383.75 C 562.210938 382.980469 562.9375 381.707031 562.9375 380.261719 Z M 659.042969 207.453125 C 664.570312 207.453125 669.0625 211.945312 669.0625 217.472656 L 669.0625 228.582031 L 648.230469 228.582031 C 649.273438 225.160156 649.542969 220.347656 647.914062 213.335938 C 647.832031 213.015625 647.238281 210.726562 646.3125 207.453125 Z M 609.664062 163.496094 L 613.921875 168.722656 C 611.710938 171.695312 606.164062 178.359375 603.363281 178.359375 C 600.757812 178.359375 598.40625 172.632812 597.503906 169.78125 C 600.585938 169.105469 607.734375 164.707031 609.664062 163.496094 Z M 573.949219 138.90625 C 574.132812 137.738281 576.308594 135.210938 577.132812 134.335938 C 577.199219 134.265625 577.246094 134.179688 577.265625 134.089844 C 577.277344 134.042969 577.28125 133.988281 577.277344 133.9375 C 577.277344 133.921875 577.273438 133.90625 577.273438 133.890625 C 577.246094 133.71875 576.460938 127.863281 579.191406 122.199219 C 579.824219 127.0625 583.128906 129.894531 586.027344 130.882812 C 588.753906 131.8125 591.46875 131.363281 593.238281 129.75 C 593.871094 132.238281 595.019531 133.90625 596.65625 134.71875 C 599.25 136.003906 602.058594 134.613281 602.214844 134.53125 C 602.394531 134.421875 606.695312 131.863281 609.855469 135.738281 C 611.238281 137.4375 611.359375 139.734375 610.164062 141.59375 C 608.957031 143.480469 606.195312 145.113281 602.070312 144.039062 C 601.90625 144 601.738281 144.035156 601.609375 144.136719 C 601.476562 144.238281 601.398438 144.394531 601.398438 144.558594 L 601.398438 154.246094 C 601.398438 156.523438 602.777344 158.222656 605.085938 158.789062 C 606.347656 159.097656 607.851562 159.035156 609.242188 158.59375 L 609.242188 162.496094 C 606.230469 164.394531 598.8125 168.808594 596.8125 168.808594 C 595.769531 168.808594 594.019531 165.757812 593.125 163.636719 L 593.125 154.378906 C 593.125 154.234375 593.070312 154.097656 592.96875 153.996094 C 592.867188 153.898438 592.710938 153.863281 592.585938 153.84375 C 588.402344 153.898438 581.453125 153.414062 580.410156 151.851562 C 578.617188 149.164062 577.5625 145.957031 577.191406 142.042969 C 577.175781 141.859375 577.058594 141.695312 576.890625 141.613281 C 575.628906 141.003906 573.820312 139.726562 573.949219 138.90625 Z M 592.371094 164.574219 C 593.011719 166.007812 594.480469 168.921875 596.066406 169.6875 C 594.394531 173.257812 591.34375 178.359375 589.445312 178.359375 C 587.707031 178.359375 586.710938 172.960938 586.527344 168.964844 Z M 554.589844 207.453125 C 553.941406 209.746094 553.457031 211.558594 553.195312 212.542969 L 546.726562 207.453125 Z M 553.175781 213.886719 C 553.316406 214 553.503906 214.03125 553.675781 213.972656 C 553.847656 213.917969 553.980469 213.777344 554.023438 213.601562 C 554.097656 213.3125 561.511719 184.722656 566.824219 178.703125 C 571.683594 173.199219 582.742188 170.082031 585.480469 169.378906 C 585.628906 172.054688 586.316406 179.429688 589.445312 179.429688 C 592.171875 179.429688 595.382812 173.523438 596.714844 170.804688 C 597.652344 173.570312 600.035156 179.429688 603.363281 179.429688 C 607.152344 179.429688 613.59375 170.96875 614.867188 169.242188 C 615.878906 169.484375 628.726562 172.640625 634.074219 178.703125 C 639.386719 184.722656 646.804688 213.3125 646.875 213.589844 C 649.777344 226.089844 646.503906 231.265625 643.785156 234.066406 C 637.40625 240.652344 600.847656 244.324219 596.066406 244.777344 L 593.796875 226.683594 C 593.792969 226.65625 593.777344 226.636719 593.769531 226.609375 C 593.761719 226.585938 593.761719 226.558594 593.753906 226.535156 C 593.75 226.523438 593.738281 226.519531 593.734375 226.511719 C 593.71875 226.476562 593.695312 226.449219 593.671875 226.421875 C 593.652344 226.394531 593.632812 226.367188 593.605469 226.347656 C 593.582031 226.324219 593.550781 226.3125 593.523438 226.292969 C 593.492188 226.277344 593.460938 226.257812 593.429688 226.246094 C 593.398438 226.238281 593.371094 226.234375 593.339844 226.230469 C 593.300781 226.226562 593.261719 226.21875 593.222656 226.222656 C 593.214844 226.222656 593.207031 226.21875 593.199219 226.222656 C 593.171875 226.226562 593.148438 226.238281 593.125 226.246094 C 593.097656 226.253906 593.070312 226.253906 593.046875 226.265625 C 592.9375 226.3125 590.363281 227.46875 588.464844 228.558594 C 582.0625 232.234375 576.355469 238.1875 575.476562 242.113281 C 574.871094 244.808594 574.148438 248.410156 573.898438 251.816406 C 570.84375 251.816406 568.175781 251.816406 565.875 251.816406 L 568.042969 235.664062 C 568.078125 235.425781 567.945312 235.195312 567.722656 235.101562 C 567.5 235.007812 567.246094 235.074219 567.097656 235.261719 C 564.511719 238.523438 560.089844 242.414062 553.6875 242.414062 C 543.433594 242.414062 521.121094 212.820312 518.367188 209.117188 L 531.339844 196.707031 Z M 510.957031 177.332031 C 511.457031 176.96875 512.589844 177.070312 513.539062 177.863281 C 515.140625 179.199219 519.097656 183.640625 518.511719 185.710938 C 518.460938 185.882812 518.320312 186.347656 517.453125 186.625 C 517.429688 186.199219 517.328125 185.753906 517.125 185.296875 C 515.851562 182.441406 513.90625 180.441406 510.820312 178.820312 C 510.804688 178.8125 510.789062 178.808594 510.773438 178.804688 C 510.621094 178.351562 510.488281 177.667969 510.957031 177.332031 Z M 508.636719 180.050781 C 508.960938 179.617188 509.863281 179.527344 510.324219 179.765625 C 513.179688 181.269531 514.976562 183.109375 516.148438 185.734375 C 516.714844 187.003906 516.195312 187.6875 515.835938 187.980469 C 515.472656 188.273438 515.03125 188.371094 514.738281 188.324219 C 514.6875 188.03125 514.589844 187.714844 514.4375 187.371094 C 513.5 185.261719 510.714844 182.441406 509.367188 181.914062 C 508.613281 181.109375 508.347656 180.433594 508.636719 180.050781 Z M 509.835938 192.992188 C 506.746094 187.960938 506.542969 184.816406 507.382812 183.550781 C 507.816406 182.898438 508.464844 182.839844 508.945312 182.902344 C 509.789062 183.160156 512.5625 185.78125 513.460938 187.804688 C 513.589844 188.097656 513.667969 188.363281 513.695312 188.574219 C 513.679688 188.648438 513.679688 188.726562 513.699219 188.796875 C 513.691406 188.863281 513.675781 188.921875 513.652344 188.96875 C 513.539062 189.191406 513.382812 189.304688 513.148438 189.332031 C 512.191406 189.429688 510.421875 188.195312 509.386719 186.960938 C 509.195312 186.734375 508.859375 186.707031 508.632812 186.894531 C 508.40625 187.085938 508.378906 187.421875 508.566406 187.648438 C 509.488281 188.75 511.464844 190.40625 513.035156 190.40625 C 513.113281 190.40625 513.195312 190.402344 513.269531 190.394531 C 513.867188 190.324219 514.328125 190 514.605469 189.449219 C 514.617188 189.429688 514.628906 189.410156 514.636719 189.386719 C 515.238281 189.460938 515.949219 189.265625 516.511719 188.808594 C 516.871094 188.515625 517.125 188.15625 517.28125 187.757812 C 518.507812 187.503906 519.28125 186.925781 519.542969 186 C 520.382812 183.019531 515.210938 177.863281 514.222656 177.042969 C 513.671875 176.582031 513.039062 176.289062 512.414062 176.152344 C 512.386719 176.09375 512.351562 176.035156 512.300781 175.988281 C 506.863281 170.714844 505.136719 167.816406 505.308594 166.941406 C 505.324219 166.851562 505.359375 166.796875 505.484375 166.746094 C 507.609375 165.878906 510.992188 169.519531 512.261719 170.890625 C 514.464844 173.257812 516.328125 175.492188 517.6875 177.121094 C 518.328125 177.886719 518.855469 178.519531 519.261719 178.976562 C 520.148438 179.980469 521.300781 181.476562 521.710938 182.007812 C 521.597656 183.347656 521.324219 186.464844 521.09375 188.523438 C 520.785156 191.320312 521.097656 195.5 522.058594 197.261719 C 522.15625 197.441406 522.339844 197.539062 522.527344 197.539062 C 522.617188 197.539062 522.703125 197.519531 522.785156 197.472656 C 523.042969 197.332031 523.140625 197.007812 522.996094 196.75 C 522.144531 195.1875 521.871094 191.222656 522.15625 188.640625 C 522.390625 186.554688 522.664062 183.402344 522.777344 182.070312 C 522.796875 182.019531 522.832031 181.976562 522.832031 181.917969 C 522.832031 181.898438 522.90625 179.976562 523.304688 176.097656 C 523.558594 173.613281 525.308594 172.085938 526.171875 172.085938 C 526.183594 172.085938 526.191406 172.085938 526.203125 172.085938 C 526.53125 172.097656 526.703125 172.417969 526.714844 173.03125 L 526.722656 174.003906 C 526.75 177.355469 526.792969 182.421875 528.785156 187.136719 C 530.039062 190.097656 530.011719 192.417969 529.996094 194.113281 C 529.984375 195.042969 529.988281 195.757812 530.1875 196.332031 L 520.316406 205.773438 C 520.292969 205.726562 520.269531 205.679688 520.230469 205.640625 C 520.15625 205.5625 512.757812 197.746094 509.835938 192.992188 Z M 447.433594 293.53125 L 447.433594 239.671875 C 447.433594 234.144531 451.929688 229.652344 457.453125 229.652344 L 491.644531 229.652344 C 491.941406 229.652344 492.175781 229.410156 492.175781 229.117188 C 492.175781 229.09375 492.175781 229.074219 492.171875 229.050781 L 492.171875 217.472656 C 492.171875 211.945312 496.667969 207.453125 502.191406 207.453125 L 518.5625 207.453125 L 517.289062 208.667969 C 517.097656 208.855469 517.070312 209.15625 517.226562 209.371094 C 518.246094 210.765625 542.265625 243.480469 553.6875 243.480469 C 559.609375 243.480469 563.921875 240.390625 566.742188 237.320312 L 564.796875 251.8125 C 559.21875 251.808594 556.074219 251.800781 555.265625 251.789062 C 549.441406 251.703125 535.824219 251.488281 531.554688 263.054688 C 530.519531 265.859375 529.359375 273.269531 528.476562 281.691406 L 513.082031 281.679688 C 513.253906 281.253906 513.324219 280.792969 513.253906 280.328125 L 507.886719 244.4375 C 507.675781 243.03125 506.359375 242.054688 504.953125 242.269531 L 460.972656 248.847656 C 459.566406 249.058594 458.59375 250.375 458.804688 251.78125 L 463.453125 282.25 C 463.457031 282.269531 463.46875 282.285156 463.472656 282.308594 C 463.484375 282.34375 463.496094 282.378906 463.515625 282.414062 C 463.527344 282.441406 463.546875 282.464844 463.5625 282.488281 C 463.589844 282.519531 463.613281 282.546875 463.644531 282.574219 C 463.664062 282.59375 463.691406 282.605469 463.714844 282.621094 C 463.746094 282.640625 463.78125 282.65625 463.816406 282.667969 C 463.847656 282.679688 463.882812 282.683594 463.917969 282.6875 C 463.9375 282.691406 463.957031 282.703125 463.980469 282.703125 L 528.367188 282.761719 C 527.664062 289.777344 527.160156 297.375 527.097656 303.550781 L 457.453125 303.550781 C 451.929688 303.550781 447.433594 299.054688 447.433594 293.53125 Z M 464.441406 281.632812 L 459.859375 251.621094 C 459.738281 250.796875 460.308594 250.027344 461.132812 249.902344 L 505.113281 243.324219 C 505.941406 243.210938 506.707031 243.773438 506.832031 244.597656 L 512.199219 280.488281 C 512.261719 280.917969 512.128906 281.347656 511.851562 281.675781 Z M 474.539062 383.75 L 449.675781 383.75 C 449.746094 383.609375 449.820312 383.46875 449.855469 383.3125 L 466.597656 304.621094 L 490.960938 304.621094 L 474.386719 382.515625 C 474.296875 382.9375 474.351562 383.371094 474.539062 383.75 Z M 293.316406 304.621094 C 292.855469 328.761719 291.957031 356.734375 291.945312 357.109375 C 291.941406 357.253906 291.996094 357.394531 292.09375 357.496094 C 292.191406 357.601562 292.328125 357.660156 292.472656 357.660156 L 295.992188 357.714844 L 293.488281 380.921875 C 293.488281 382.042969 293.976562 383.042969 294.742188 383.75 L 268.625 383.75 C 268.695312 383.609375 268.765625 383.46875 268.800781 383.3125 L 285.542969 304.621094 Z M 322.222656 358.117188 C 322.226562 358.117188 322.230469 358.117188 322.230469 358.117188 C 322.503906 358.117188 322.734375 357.910156 322.761719 357.640625 C 322.765625 357.625 322.910156 356.21875 322.984375 354.730469 L 324.035156 354.75 L 322.761719 368.753906 C 319.765625 366.664062 317.050781 364.964844 316.15625 364.414062 L 316.894531 358.035156 Z M 315.308594 365.144531 C 315.367188 365.183594 317.953125 366.765625 321.074219 368.894531 C 319.023438 368.359375 316.355469 368.054688 313.863281 368.984375 C 311.460938 369.882812 309.65625 371.769531 308.5 374.59375 L 295.246094 374.59375 L 297.066406 357.730469 L 315.820312 358.019531 L 315.054688 364.628906 C 315.03125 364.835938 315.128906 365.039062 315.308594 365.144531 Z M 342.574219 365.144531 C 342.632812 365.183594 345.152344 366.726562 348.21875 368.816406 C 346.21875 368.332031 343.703125 368.105469 341.339844 368.984375 C 338.941406 369.882812 337.136719 371.769531 335.980469 374.59375 L 330.191406 374.59375 C 328.429688 372.925781 326.070312 371.109375 323.769531 369.46875 L 325.109375 354.769531 L 343.410156 355.09375 L 342.320312 364.628906 C 342.296875 364.835938 342.394531 365.039062 342.574219 365.144531 Z M 333.710938 252.578125 C 333.886719 252.558594 351.015625 252.183594 356.414062 263.195312 C 358.914062 268.296875 357.714844 278.871094 357.703125 278.964844 C 354.886719 299.230469 349.867188 348.65625 349.316406 354.128906 L 323.050781 353.664062 C 323.613281 346.882812 328.949219 282.121094 328.894531 270.96875 C 328.839844 258.847656 310.1875 254.171875 309.394531 253.980469 C 309.105469 253.917969 308.816406 254.089844 308.746094 254.375 C 308.679688 254.660156 308.851562 254.949219 309.140625 255.019531 C 309.324219 255.066406 327.773438 259.6875 327.828125 270.972656 C 327.882812 282.640625 322 353.429688 321.941406 354.144531 C 321.9375 354.148438 321.941406 354.148438 321.941406 354.152344 C 321.941406 354.160156 321.9375 354.164062 321.9375 354.167969 C 321.898438 355.269531 321.804688 356.414062 321.746094 357.039062 L 293.03125 356.601562 C 293.207031 351.058594 294.652344 304.753906 294.652344 282.226562 C 294.652344 281.933594 294.414062 281.695312 294.121094 281.691406 L 281.824219 281.636719 L 281.824219 252.425781 C 281.921875 252.519531 282.054688 252.578125 282.199219 252.578125 Z M 374.453125 179.695312 C 374.597656 179.304688 374.75 178.890625 374.929688 178.445312 C 375.835938 176.1875 377.304688 175.609375 379.351562 174.808594 C 381.511719 173.957031 382.976562 172.605469 383.058594 172.527344 L 383.199219 172.382812 C 384.398438 171.136719 386.652344 168.828125 387.492188 168.96875 C 387.53125 168.976562 387.621094 168.992188 387.714844 169.203125 C 388.425781 170.792969 387.144531 172.339844 386.382812 173.265625 L 386.171875 173.519531 C 385.402344 174.476562 384.660156 175.019531 384.394531 175.195312 C 383.785156 175.253906 383.175781 175.304688 382.570312 175.328125 C 382.273438 175.335938 382.042969 175.585938 382.054688 175.878906 C 382.0625 176.167969 382.300781 176.394531 382.589844 176.394531 C 382.59375 176.394531 382.601562 176.394531 382.605469 176.394531 C 383.269531 176.371094 383.933594 176.320312 384.601562 176.253906 C 384.621094 176.25 384.636719 176.253906 384.65625 176.25 C 386.917969 176.019531 389.210938 175.546875 391.5 174.824219 C 391.527344 174.816406 394.035156 173.988281 397.652344 172.382812 C 399.488281 171.570312 401.25 170.917969 401.726562 171.640625 C 402.128906 172.242188 401.679688 172.902344 401.472656 173.15625 C 401.40625 173.191406 401.347656 173.21875 401.277344 173.253906 C 397.035156 175.457031 393.660156 176.355469 389.742188 177.398438 C 389.457031 177.472656 389.292969 177.765625 389.367188 178.050781 C 389.429688 178.289062 389.648438 178.449219 389.886719 178.449219 C 389.933594 178.449219 389.980469 178.441406 390.027344 178.429688 C 393.996094 177.375 397.421875 176.460938 401.769531 174.199219 C 401.804688 174.183594 401.832031 174.171875 401.867188 174.152344 C 401.960938 174.132812 402.046875 174.097656 402.121094 174.027344 C 404.800781 172.6875 405.894531 172.695312 406.304688 172.839844 C 406.480469 172.898438 406.589844 173 406.664062 173.164062 C 407.007812 173.945312 406.097656 174.824219 405.824219 175.0625 C 405.632812 175.09375 405.449219 175.117188 405.25 175.179688 C 404.429688 175.4375 403.507812 175.859375 402.4375 176.347656 C 401.175781 176.921875 399.746094 177.574219 398.1875 178.085938 C 396.445312 178.65625 391.152344 180.226562 391.101562 180.242188 C 390.816406 180.324219 390.65625 180.625 390.742188 180.90625 C 390.808594 181.140625 391.023438 181.289062 391.253906 181.289062 C 391.304688 181.289062 391.355469 181.28125 391.40625 181.269531 C 391.457031 181.253906 396.765625 179.675781 398.519531 179.101562 C 400.136719 178.574219 401.597656 177.90625 402.882812 177.320312 C 403.917969 176.84375 404.8125 176.4375 405.570312 176.199219 C 406.28125 175.976562 406.859375 176.039062 407.109375 176.367188 C 407.320312 176.640625 407.28125 177.074219 407.011719 177.503906 C 406.472656 178.347656 405.042969 179.257812 404.242188 179.703125 C 403.164062 178.886719 401.101562 179.730469 398.746094 180.710938 L 397.859375 181.074219 C 396.023438 181.820312 392.136719 182.898438 392.097656 182.910156 C 391.8125 182.988281 391.648438 183.285156 391.726562 183.570312 C 391.804688 183.851562 392.097656 184.023438 392.382812 183.941406 C 392.546875 183.898438 396.367188 182.835938 398.261719 182.0625 L 399.15625 181.695312 C 400.886719 180.976562 403.265625 179.988281 403.703125 180.65625 C 403.796875 180.789062 403.820312 180.902344 403.789062 181.042969 C 403.640625 181.730469 402.277344 182.875 399.738281 184.445312 C 398.335938 185.316406 396.332031 186.074219 394.558594 186.699219 C 394.039062 186.882812 393.078125 187.21875 391.902344 187.628906 C 388.269531 188.894531 382.894531 190.765625 381.582031 191.289062 L 372.914062 182.917969 C 373.667969 181.785156 374.046875 180.804688 374.453125 179.695312 Z M 357.753906 200.445312 L 372.257812 183.773438 L 382.285156 193.449219 C 380.589844 196.285156 369.347656 215.070312 361.214844 228.707031 C 356.367188 236.832031 350.527344 241.144531 344.667969 240.8125 C 339.75 240.542969 335.273438 236.992188 332.683594 231.320312 C 332.5625 231.050781 332.242188 230.933594 331.976562 231.054688 C 331.757812 231.152344 331.648438 231.378906 331.675781 231.605469 C 331.671875 231.625 331.664062 231.644531 331.664062 231.664062 L 331.664062 251.285156 L 281.824219 251.285156 L 281.824219 247.648438 C 299.699219 244.988281 320.964844 227.988281 321.175781 227.816406 C 321.304688 227.714844 321.363281 227.566406 321.367188 227.414062 C 322.394531 226.835938 323.457031 226.183594 324.554688 225.472656 L 324.449219 226.910156 C 324.441406 227.058594 324.492188 227.203125 324.59375 227.3125 C 324.695312 227.421875 324.835938 227.480469 324.984375 227.480469 L 355.320312 227.480469 C 355.601562 227.480469 355.835938 227.265625 355.855469 226.984375 L 357.722656 200.46875 C 357.730469 200.460938 357.742188 200.453125 357.753906 200.445312 Z M 324.527344 207.324219 C 324.632812 207.46875 324.796875 207.542969 324.960938 207.542969 C 325.070312 207.542969 325.179688 207.511719 325.277344 207.441406 C 326.320312 206.679688 327.472656 205.796875 328.839844 204.746094 C 330.761719 203.273438 333.152344 201.4375 336.285156 199.144531 C 338.296875 197.671875 339.382812 197.734375 339.570312 197.988281 C 339.6875 198.144531 339.589844 198.644531 338.992188 199.222656 C 335.96875 201.585938 330.5 207.140625 330.265625 207.378906 C 330.058594 207.589844 330.0625 207.925781 330.273438 208.132812 C 330.480469 208.339844 330.820312 208.335938 331.027344 208.125 C 331.082031 208.074219 336.105469 202.972656 339.15625 200.460938 C 339.175781 200.449219 339.199219 200.445312 339.214844 200.433594 C 339.410156 200.289062 339.582031 200.144531 339.734375 200 C 340.84375 199.148438 341.742188 198.859375 342.089844 199.242188 C 342.464844 199.667969 342.324219 200.734375 341.824219 201.246094 C 338.175781 204.960938 332.542969 209.867188 332.484375 209.917969 C 332.261719 210.109375 332.238281 210.449219 332.433594 210.671875 C 332.539062 210.792969 332.6875 210.855469 332.835938 210.855469 C 332.960938 210.855469 333.085938 210.8125 333.1875 210.722656 C 333.242188 210.675781 338.28125 206.289062 341.9375 202.648438 C 341.941406 202.648438 341.941406 202.648438 341.945312 202.648438 C 341.949219 202.648438 342.574219 202.671875 342.78125 203.03125 C 342.902344 203.238281 342.996094 203.765625 342.304688 204.960938 C 340.707031 207.71875 334.894531 212.523438 334.835938 212.570312 C 334.605469 212.757812 334.574219 213.09375 334.761719 213.320312 C 334.867188 213.449219 335.019531 213.515625 335.175781 213.515625 C 335.292969 213.515625 335.414062 213.476562 335.511719 213.394531 C 335.703125 213.238281 339.210938 210.339844 341.570312 207.679688 C 342.0625 207.941406 342.152344 208.25 342.171875 208.460938 C 342.332031 210.390625 337.980469 214.722656 330.527344 220.046875 C 328.621094 221.40625 326.75 222.730469 324.953125 223.929688 C 324.894531 223.957031 324.84375 223.988281 324.796875 224.03125 C 323.441406 224.933594 322.128906 225.753906 320.878906 226.464844 L 312.839844 213.941406 C 313.449219 213.40625 315.035156 211.980469 318.148438 208.9375 C 321.855469 205.3125 323.304688 203.96875 326.265625 202.414062 L 326.066406 205.402344 C 326.0625 205.441406 326.074219 205.472656 326.078125 205.507812 C 325.578125 205.886719 325.097656 206.246094 324.644531 206.578125 C 324.40625 206.75 324.355469 207.085938 324.527344 207.324219 Z M 335.347656 142.089844 C 335.472656 142.90625 333.664062 144.1875 332.402344 144.796875 C 332.234375 144.878906 332.121094 145.039062 332.101562 145.226562 C 331.730469 149.136719 330.675781 152.34375 328.882812 155.035156 C 327.84375 156.597656 320.863281 157.082031 316.710938 157.023438 C 316.5625 157.027344 316.425781 157.078125 316.328125 157.179688 C 316.226562 157.28125 316.167969 157.417969 316.167969 157.558594 L 316.167969 165.707031 C 316.148438 165.769531 316.136719 165.835938 316.140625 165.902344 C 316.140625 165.941406 316.15625 165.976562 316.167969 166.015625 L 316.167969 169.042969 C 316.167969 169.0625 315.984375 170.914062 310.96875 170.914062 C 304.269531 170.914062 300.988281 166.496094 300.460938 165.71875 L 300.460938 157.882812 C 301.027344 157.933594 301.59375 157.960938 302.171875 157.960938 L 307.359375 157.960938 C 307.65625 157.960938 307.894531 157.722656 307.894531 157.425781 L 307.894531 147.738281 C 307.894531 147.574219 307.816406 147.417969 307.6875 147.316406 C 307.554688 147.214844 307.386719 147.179688 307.226562 147.222656 C 303.101562 148.292969 300.335938 146.660156 299.128906 144.773438 C 297.933594 142.914062 298.058594 140.617188 299.441406 138.917969 C 302.285156 135.425781 306.050781 137.152344 306.902344 137.609375 C 307.101562 138.382812 307.777344 141.195312 307.777344 143.789062 C 307.777344 143.953125 307.855469 144.109375 307.984375 144.210938 C 308.078125 144.285156 308.195312 144.324219 308.3125 144.324219 C 308.359375 144.324219 308.402344 144.316406 308.449219 144.304688 C 320.675781 141.070312 326.324219 125.566406 327.738281 121.019531 C 328.945312 123.535156 331.226562 129.878906 332.019531 137.210938 C 332.023438 137.230469 332.035156 137.25 332.039062 137.269531 C 332.046875 137.304688 332.054688 137.339844 332.070312 137.371094 C 332.085938 137.40625 332.105469 137.433594 332.128906 137.464844 C 332.140625 137.480469 332.144531 137.503906 332.160156 137.519531 C 333.304688 138.734375 335.183594 141.046875 335.347656 142.089844 Z M 288.933594 149.992188 C 287.53125 147.839844 286.820312 145.507812 286.820312 143.070312 C 286.820312 142.246094 286.800781 141.359375 286.777344 140.421875 C 286.546875 130.148438 286.195312 114.625 309.398438 112.867188 C 320.070312 112.046875 326.960938 113.640625 331.070312 117.855469 C 333.835938 120.691406 335.542969 125.453125 335.320312 129.707031 C 335.222656 131.585938 334.710938 134.105469 332.949219 136.027344 C 331.898438 127.933594 329.015625 120.625 327.996094 119.328125 C 327.871094 119.167969 327.660156 119.097656 327.46875 119.136719 C 327.269531 119.175781 327.113281 119.328125 327.058594 119.523438 C 327.007812 119.722656 321.804688 139.058594 308.832031 143.082031 C 308.714844 140.136719 307.910156 137.242188 307.875 137.113281 C 307.867188 137.085938 307.847656 137.066406 307.839844 137.039062 C 307.820312 137.003906 307.808594 136.96875 307.785156 136.9375 C 307.753906 136.894531 307.71875 136.867188 307.679688 136.835938 C 307.664062 136.824219 307.65625 136.808594 307.640625 136.800781 C 307.640625 136.800781 307.628906 136.796875 307.628906 136.792969 C 307.625 136.792969 307.617188 136.789062 307.613281 136.785156 C 307.332031 136.621094 302.28125 133.742188 298.609375 138.246094 C 296.929688 140.308594 296.78125 143.097656 298.230469 145.351562 C 299.570312 147.445312 302.507812 149.285156 306.824219 148.414062 L 306.824219 156.890625 L 302.171875 156.890625 C 296.691406 156.890625 291.746094 154.3125 288.933594 149.992188 Z M 272.742188 174.433594 C 279.265625 166.183594 297.214844 166.339844 299.632812 166.402344 C 300.390625 167.515625 303.867188 171.984375 310.96875 171.984375 C 317.0625 171.984375 317.238281 169.359375 317.238281 169.058594 L 317.238281 166.394531 C 320.050781 166.347656 333.347656 166.539062 338.3125 174.390625 C 339.09375 175.621094 339.914062 177.359375 340.761719 179.519531 L 328.285156 179.519531 C 328.003906 179.519531 327.769531 179.738281 327.75 180.019531 L 326.347656 201.167969 C 322.859375 202.925781 321.34375 204.320312 317.398438 208.171875 C 313.941406 211.550781 312.363281 212.941406 311.960938 213.285156 C 311.914062 213.300781 311.863281 213.3125 311.820312 213.34375 C 311.570312 213.503906 311.5 213.832031 311.660156 214.082031 L 320.128906 227.28125 C 317.222656 229.550781 298.082031 244.074219 281.824219 246.5625 L 281.824219 239.671875 C 281.824219 233.558594 276.851562 228.582031 270.734375 228.582031 L 260.171875 228.582031 C 258.332031 210.113281 266.519531 182.304688 272.742188 174.433594 Z M 246.921875 207.453125 L 260.183594 207.453125 C 260.1875 207.453125 260.191406 207.449219 260.195312 207.449219 C 258.984375 214.757812 258.46875 222.15625 259.097656 228.582031 L 236.902344 228.582031 L 236.902344 217.472656 C 236.902344 211.945312 241.398438 207.453125 246.921875 207.453125 Z M 236.902344 293.53125 L 236.902344 229.652344 L 259.660156 229.652344 C 259.667969 229.652344 259.675781 229.65625 259.683594 229.65625 C 259.703125 229.65625 259.722656 229.65625 259.742188 229.652344 C 259.742188 229.652344 259.746094 229.652344 259.746094 229.652344 L 270.734375 229.652344 C 276.261719 229.652344 280.753906 234.144531 280.753906 239.671875 L 280.753906 282.25 C 280.753906 282.546875 280.996094 282.785156 281.289062 282.785156 C 281.390625 282.785156 281.476562 282.75 281.558594 282.703125 L 293.585938 282.761719 C 293.578125 288.546875 293.480469 295.828125 293.335938 303.550781 L 246.921875 303.550781 C 241.398438 303.550781 236.902344 299.054688 236.902344 293.53125 Z M 262.914062 383.75 L 238.054688 383.75 C 238.125 383.609375 238.199219 383.46875 238.230469 383.3125 L 254.972656 304.621094 L 279.335938 304.621094 L 262.765625 382.515625 C 262.675781 382.9375 262.730469 383.371094 262.914062 383.75 Z M 234.058594 383.75 C 233.804688 383.75 233.566406 383.636719 233.410156 383.441406 C 233.25 383.242188 233.1875 382.988281 233.238281 382.738281 L 249.863281 304.621094 L 253.882812 304.621094 L 237.183594 383.089844 C 237.105469 383.472656 236.761719 383.75 236.367188 383.75 Z M 264.628906 383.75 C 264.375 383.75 264.136719 383.636719 263.976562 383.441406 C 263.816406 383.242188 263.757812 382.988281 263.808594 382.738281 L 280.429688 304.621094 L 284.453125 304.621094 L 267.753906 383.089844 C 267.671875 383.472656 267.332031 383.75 266.9375 383.75 Z M 445.679688 383.75 C 445.425781 383.75 445.191406 383.636719 445.03125 383.441406 C 444.871094 383.242188 444.808594 382.988281 444.863281 382.738281 L 461.484375 304.621094 L 465.503906 304.621094 L 448.808594 383.089844 C 448.726562 383.472656 448.382812 383.75 447.992188 383.75 Z M 476.25 383.75 C 475.996094 383.75 475.761719 383.636719 475.601562 383.441406 C 475.441406 383.242188 475.378906 382.988281 475.433594 382.738281 L 492.054688 304.621094 L 496.074219 304.621094 L 479.378906 383.089844 C 479.296875 383.472656 478.953125 383.75 478.5625 383.75 Z M 637.167969 383.75 C 636.773438 383.75 636.429688 383.472656 636.347656 383.089844 L 619.652344 304.621094 L 623.671875 304.621094 L 640.292969 382.738281 C 640.347656 382.988281 640.285156 383.242188 640.125 383.441406 C 639.96875 383.636719 639.730469 383.75 639.476562 383.75 Z M 670.695312 383.441406 C 670.535156 383.636719 670.300781 383.75 670.046875 383.75 L 667.734375 383.75 C 667.34375 383.75 667 383.472656 666.917969 383.089844 L 650.222656 304.621094 L 654.242188 304.621094 L 670.863281 382.738281 C 670.917969 382.988281 670.855469 383.242188 670.695312 383.441406 Z M 478.230469 100.695312 L 478.230469 130.992188 C 478.230469 134.222656 480.859375 136.851562 484.085938 136.851562 L 528.042969 136.851562 L 537.417969 150.269531 C 537.523438 150.414062 537.6875 150.496094 537.859375 150.496094 C 537.910156 150.496094 537.964844 150.488281 538.019531 150.472656 C 538.242188 150.402344 538.390625 150.195312 538.390625 149.964844 L 538.390625 136.851562 L 539.496094 136.851562 C 542.722656 136.851562 545.351562 134.222656 545.351562 130.992188 L 545.351562 100.695312 C 545.351562 97.46875 542.722656 94.839844 539.496094 94.839844 L 484.089844 94.839844 C 480.859375 94.839844 478.230469 97.46875 478.230469 100.695312 Z M 544.28125 100.695312 L 544.28125 130.992188 C 544.28125 133.632812 542.136719 135.78125 539.496094 135.78125 L 537.859375 135.78125 C 537.5625 135.78125 537.324219 136.019531 537.324219 136.316406 L 537.324219 148.265625 L 528.757812 136.011719 C 528.660156 135.867188 528.496094 135.78125 528.320312 135.78125 L 484.085938 135.78125 C 481.449219 135.78125 479.300781 133.632812 479.300781 130.992188 L 479.300781 100.695312 C 479.300781 98.054688 481.449219 95.910156 484.085938 95.910156 L 539.496094 95.910156 C 542.136719 95.910156 544.28125 98.054688 544.28125 100.695312 Z M 487.445312 130.164062 L 536.136719 130.164062 C 536.433594 130.164062 536.671875 129.925781 536.671875 129.628906 L 536.671875 122.167969 C 536.671875 121.871094 536.433594 121.632812 536.136719 121.632812 L 487.445312 121.632812 C 487.148438 121.632812 486.910156 121.871094 486.910156 122.167969 L 486.910156 129.628906 C 486.910156 129.925781 487.148438 130.164062 487.445312 130.164062 Z M 487.980469 122.703125 L 535.601562 122.703125 L 535.601562 129.09375 L 487.980469 129.09375 Z M 488.796875 115.714844 C 489.132812 115.746094 494.929688 116.3125 499.359375 114.179688 C 500.578125 115 502.292969 115.523438 504.429688 115.714844 C 506.855469 115.933594 509.710938 115.484375 512.171875 114.21875 C 513.714844 115.246094 515.917969 115.816406 518.429688 115.816406 C 518.6875 115.816406 518.945312 115.8125 519.207031 115.796875 C 521.121094 115.710938 522.839844 115.261719 524.265625 114.503906 C 524.75 114.734375 525.285156 114.925781 525.867188 115.078125 C 528.90625 115.855469 533.625 115.171875 535.15625 113.128906 C 535.335938 112.890625 535.285156 112.558594 535.050781 112.378906 C 534.816406 112.203125 534.480469 112.25 534.300781 112.488281 C 533.167969 114.003906 529.042969 114.789062 526.132812 114.039062 C 525.867188 113.972656 525.617188 113.894531 525.375 113.808594 C 526.578125 112.921875 527.492188 111.773438 528.027344 110.40625 C 529.0625 107.769531 528.441406 106.433594 527.976562 105.871094 C 527.4375 105.210938 526.585938 104.929688 525.652344 105.105469 C 524.316406 105.347656 522.5625 106.574219 521.636719 109.296875 C 521.273438 110.367188 521.347656 111.425781 521.851562 112.359375 C 522.152344 112.917969 522.601562 113.417969 523.167969 113.84375 C 522.003906 114.355469 520.648438 114.664062 519.15625 114.730469 C 516.835938 114.839844 514.726562 114.421875 513.230469 113.605469 C 514.753906 112.621094 516.050781 111.28125 516.90625 109.542969 C 518.417969 106.449219 518.679688 103.898438 517.617188 102.546875 C 517.03125 101.804688 516.105469 101.511719 515.074219 101.738281 C 513.355469 102.121094 510.988281 104.085938 509.980469 108.378906 C 509.542969 110.242188 509.859375 111.832031 510.914062 113.105469 C 511.015625 113.226562 511.125 113.34375 511.238281 113.460938 C 509.101562 114.453125 506.667969 114.84375 504.523438 114.648438 C 502.84375 114.496094 501.464844 114.136719 500.4375 113.585938 C 501.78125 112.742188 502.925781 111.585938 503.636719 110.007812 C 504.925781 107.144531 504.285156 105.675781 503.789062 105.054688 C 503.238281 104.363281 502.371094 104.082031 501.417969 104.273438 C 500.046875 104.554688 498.285156 105.921875 497.453125 108.921875 C 497.042969 110.390625 497.230469 111.757812 498 112.871094 C 498.128906 113.054688 498.273438 113.234375 498.4375 113.40625 C 494.289062 115.171875 488.984375 114.660156 488.90625 114.648438 C 488.597656 114.617188 488.351562 114.835938 488.320312 115.125 C 488.289062 115.417969 488.503906 115.683594 488.796875 115.714844 Z M 522.792969 111.847656 C 522.425781 111.175781 522.378906 110.433594 522.648438 109.640625 C 523.429688 107.355469 524.855469 106.335938 525.84375 106.15625 C 525.960938 106.132812 526.074219 106.125 526.183594 106.125 C 526.585938 106.125 526.921875 106.269531 527.152344 106.550781 C 527.6875 107.199219 527.644531 108.460938 527.03125 110.015625 C 526.503906 111.363281 525.539062 112.472656 524.25 113.277344 C 523.589844 112.882812 523.085938 112.394531 522.792969 111.847656 Z M 511.019531 108.625 C 511.859375 105.058594 513.777344 103.121094 515.304688 102.78125 C 515.441406 102.753906 515.589844 102.730469 515.746094 102.730469 C 516.101562 102.730469 516.488281 102.84375 516.777344 103.210938 C 517.070312 103.585938 517.882812 105.113281 515.945312 109.074219 C 515.132812 110.730469 513.808594 112.015625 512.242188 112.933594 C 512.054688 112.769531 511.886719 112.601562 511.738281 112.421875 C 510.90625 111.417969 510.664062 110.140625 511.019531 108.625 Z M 498.480469 109.207031 C 499.1875 106.671875 500.621094 105.53125 501.632812 105.324219 C 501.757812 105.296875 501.878906 105.285156 501.992188 105.285156 C 502.390625 105.285156 502.726562 105.433594 502.957031 105.722656 C 503.53125 106.445312 503.421875 107.882812 502.660156 109.570312 C 501.984375 111.074219 500.824219 112.144531 499.453125 112.90625 C 499.230469 112.707031 499.039062 112.492188 498.878906 112.261719 C 498.296875 111.417969 498.160156 110.363281 498.480469 109.207031 Z M 350.664062 81.171875 L 363.914062 81.171875 L 363.914062 95.375 C 363.914062 95.601562 364.058594 95.808594 364.277344 95.878906 C 364.332031 95.898438 364.390625 95.910156 364.445312 95.910156 C 364.609375 95.910156 364.769531 95.832031 364.871094 95.699219 L 376.011719 81.171875 L 430 81.171875 C 433.230469 81.171875 435.855469 78.542969 435.855469 75.3125 L 435.855469 52.203125 C 435.855469 48.972656 433.230469 46.347656 430 46.347656 L 350.664062 46.347656 C 347.433594 46.347656 344.804688 48.972656 344.804688 52.203125 L 344.804688 75.3125 C 344.804688 78.542969 347.433594 81.171875 350.664062 81.171875 Z M 345.875 52.203125 C 345.875 49.5625 348.023438 47.414062 350.664062 47.414062 L 430 47.414062 C 432.636719 47.414062 434.789062 49.5625 434.789062 52.203125 L 434.789062 75.3125 C 434.789062 77.953125 432.636719 80.101562 430 80.101562 L 375.746094 80.101562 C 375.582031 80.101562 375.425781 80.179688 375.324219 80.308594 L 364.980469 93.800781 L 364.980469 80.636719 C 364.980469 80.339844 364.742188 80.101562 364.445312 80.101562 L 350.664062 80.101562 C 348.023438 80.101562 345.875 77.953125 345.875 75.3125 Z M 356.078125 55.148438 L 426.496094 55.148438 C 426.792969 55.148438 427.03125 54.910156 427.03125 54.613281 C 427.03125 54.320312 426.792969 54.078125 426.496094 54.078125 L 356.078125 54.078125 C 355.78125 54.078125 355.542969 54.320312 355.542969 54.613281 C 355.542969 54.910156 355.78125 55.148438 356.078125 55.148438 Z M 356.078125 63.746094 L 414.488281 63.746094 C 414.78125 63.746094 415.019531 63.507812 415.019531 63.210938 C 415.019531 62.917969 414.78125 62.679688 414.488281 62.679688 L 356.078125 62.679688 C 355.78125 62.679688 355.542969 62.917969 355.542969 63.210938 C 355.542969 63.507812 355.78125 63.746094 356.078125 63.746094 Z M 356.078125 72.34375 L 414.488281 72.34375 C 414.78125 72.34375 415.019531 72.105469 415.019531 71.808594 C 415.019531 71.515625 414.78125 71.273438 414.488281 71.273438 L 356.078125 71.273438 C 355.78125 71.273438 355.542969 71.515625 355.542969 71.808594 C 355.542969 72.105469 355.78125 72.34375 356.078125 72.34375 Z M 423.21875 58.59375 C 421.195312 58.59375 420 59.945312 420 62.140625 L 420 62.796875 L 421.96875 62.796875 L 421.96875 61.988281 C 421.96875 61.042969 422.410156 60.523438 423.199219 60.523438 C 423.992188 60.523438 424.433594 61.042969 424.433594 61.988281 C 424.433594 63.316406 423.894531 64.050781 423.296875 64.800781 C 422.640625 65.632812 421.929688 66.558594 421.929688 68.503906 L 421.929688 68.8125 L 423.664062 68.8125 L 423.664062 68.503906 C 423.664062 67.191406 424.300781 66.402344 424.953125 65.613281 C 425.707031 64.707031 426.476562 63.722656 426.476562 61.929688 C 426.476562 59.847656 425.242188 58.59375 423.21875 58.59375 Z M 421.773438 72.28125 L 423.816406 72.28125 L 423.816406 70.238281 L 421.773438 70.238281 Z M 478.46875 59.699219 C 491.605469 59.699219 502.292969 49.011719 502.292969 35.871094 C 502.292969 22.734375 491.605469 12.046875 478.46875 12.046875 C 465.332031 12.046875 454.644531 22.734375 454.644531 35.871094 C 454.644531 49.011719 465.332031 59.699219 478.46875 59.699219 Z M 478.46875 13.117188 C 491.015625 13.117188 501.226562 23.324219 501.226562 35.871094 C 501.226562 48.421875 491.015625 58.628906 478.46875 58.628906 C 465.921875 58.628906 455.710938 48.421875 455.710938 35.871094 C 455.710938 23.324219 465.921875 13.117188 478.46875 13.117188 Z M 467.839844 34.671875 L 474.695312 34.671875 L 474.695312 49.519531 C 474.695312 49.816406 474.933594 50.054688 475.230469 50.054688 L 481.707031 50.054688 C 482.003906 50.054688 482.242188 49.816406 482.242188 49.519531 L 482.242188 34.671875 L 489.101562 34.671875 C 489.3125 34.671875 489.503906 34.546875 489.589844 34.355469 C 489.675781 34.164062 489.640625 33.9375 489.5 33.78125 L 478.867188 21.867188 C 478.664062 21.640625 478.273438 21.640625 478.070312 21.867188 L 467.441406 33.78125 C 467.300781 33.9375 467.265625 34.164062 467.351562 34.355469 C 467.4375 34.546875 467.628906 34.671875 467.839844 34.671875 Z M 478.46875 23.027344 L 487.90625 33.601562 L 481.707031 33.601562 C 481.410156 33.601562 481.171875 33.84375 481.171875 34.136719 L 481.171875 48.984375 L 475.765625 48.984375 L 475.765625 34.136719 C 475.765625 33.84375 475.527344 33.601562 475.230469 33.601562 L 469.03125 33.601562 Z M 494.261719 259.75 C 494.445312 259.519531 494.410156 259.183594 494.179688 258.996094 C 493.949219 258.8125 493.613281 258.847656 493.429688 259.078125 L 489.675781 263.71875 C 489.492188 263.949219 489.527344 264.285156 489.753906 264.46875 C 489.855469 264.550781 489.972656 264.589844 490.09375 264.589844 C 490.246094 264.589844 490.402344 264.519531 490.507812 264.390625 Z M 484.566406 265.75 C 484.761719 265.75 484.949219 265.640625 485.042969 265.453125 C 485.175781 265.191406 485.070312 264.871094 484.804688 264.738281 L 478.324219 261.460938 C 478.058594 261.328125 477.738281 261.433594 477.605469 261.699219 C 477.472656 261.960938 477.578125 262.28125 477.839844 262.414062 L 484.324219 265.691406 C 484.402344 265.730469 484.484375 265.75 484.566406 265.75 Z M 485.53125 269.15625 L 480.683594 274.617188 C 480.488281 274.839844 480.511719 275.175781 480.730469 275.371094 C 480.832031 275.460938 480.960938 275.507812 481.085938 275.507812 C 481.234375 275.507812 481.378906 275.445312 481.484375 275.328125 L 486.328125 269.867188 C 486.527344 269.648438 486.503906 269.308594 486.285156 269.113281 C 486.0625 268.917969 485.726562 268.933594 485.53125 269.15625 Z M 497.433594 271.3125 L 491.226562 268.082031 C 490.96875 267.949219 490.640625 268.046875 490.503906 268.3125 C 490.367188 268.574219 490.472656 268.894531 490.734375 269.03125 L 496.941406 272.261719 C 497.019531 272.300781 497.105469 272.320312 497.1875 272.320312 C 497.378906 272.320312 497.566406 272.21875 497.664062 272.035156 C 497.800781 271.773438 497.695312 271.449219 497.433594 271.3125 Z M 585.585938 148.902344 C 585.667969 148.90625 585.753906 148.910156 585.84375 148.910156 C 587.527344 148.910156 590.289062 148.074219 591.683594 143.070312 C 591.820312 142.585938 591.691406 142.078125 591.339844 141.714844 C 590.996094 141.355469 590.503906 141.210938 590.019531 141.324219 C 590.015625 141.324219 590.015625 141.324219 590.015625 141.324219 C 588.125 141.785156 584.410156 142.835938 580.820312 144.683594 C 580.613281 144.789062 580.496094 145.019531 580.539062 145.25 C 580.8125 146.835938 583.078125 148.773438 585.585938 148.902344 Z M 590.269531 142.367188 C 590.425781 142.324219 590.523438 142.40625 590.570312 142.457031 C 590.613281 142.496094 590.703125 142.613281 590.65625 142.785156 C 589.714844 146.15625 587.898438 147.941406 585.640625 147.835938 C 583.785156 147.742188 582.171875 146.449219 581.707031 145.433594 C 585.074219 143.757812 588.492188 142.796875 590.269531 142.367188 Z M 590.269531 142.367188 " fill-opacity="1" fill-rule="nonzero"/></g></svg>