<svg xmlns="http://www.w3.org/2000/svg" xmlns:xlink="http://www.w3.org/1999/xlink" width="500" zoomAndPan="magnify" viewBox="0 0 375 374.999991" height="500" preserveAspectRatio="xMidYMid meet" version="1.0"><defs><filter x="0%" y="0%" width="100%" height="100%" id="78c7c3edcf"><feColorMatrix values="0 0 0 0 1 0 0 0 0 1 0 0 0 0 1 0 0 0 1 0" color-interpolation-filters="sRGB"/></filter><mask id="ceeedda92c"><g filter="url(#78c7c3edcf)"><rect x="-37.5" width="450" fill="#000000" y="-37.499999" height="449.999989" fill-opacity="0.5"/></g></mask><clipPath id="3c2ac63bf7"><path d="M 2 4 L 271 4 L 271 248 L 2 248 Z M 2 4 " clip-rule="nonzero"/></clipPath><clipPath id="f8431954e3"><path d="M 0.675781 3.171875 L 270.601562 -3.191406 L 276.433594 244.238281 L 6.511719 250.605469 Z M 0.675781 3.171875 " clip-rule="nonzero"/></clipPath><clipPath id="a6c5d0e39a"><path d="M 0.675781 3.171875 L 270.601562 -3.191406 L 276.433594 244.238281 L 6.511719 250.605469 Z M 0.675781 3.171875 " clip-rule="nonzero"/></clipPath><clipPath id="c9e0d8b598"><path d="M 122 22 L 271 22 L 271 211 L 122 211 Z M 122 22 " clip-rule="nonzero"/></clipPath><clipPath id="b4a54baa4f"><path d="M 0.675781 3.171875 L 270.601562 -3.191406 L 276.433594 244.238281 L 6.511719 250.605469 Z M 0.675781 3.171875 " clip-rule="nonzero"/></clipPath><clipPath id="aa0689befa"><path d="M 0.675781 3.171875 L 270.601562 -3.191406 L 276.433594 244.238281 L 6.511719 250.605469 Z M 0.675781 3.171875 " clip-rule="nonzero"/></clipPath><clipPath id="b824aa5b90"><path d="M 5 23 L 110 23 L 110 198 L 5 198 Z M 5 23 " clip-rule="nonzero"/></clipPath><clipPath id="b71ea1e097"><path d="M 0.675781 3.171875 L 270.601562 -3.191406 L 276.433594 244.238281 L 6.511719 250.605469 Z M 0.675781 3.171875 " clip-rule="nonzero"/></clipPath><clipPath id="75726b1efb"><path d="M 0.675781 3.171875 L 270.601562 -3.191406 L 276.433594 244.238281 L 6.511719 250.605469 Z M 0.675781 3.171875 " clip-rule="nonzero"/></clipPath><clipPath id="3b65105c28"><path d="M 66 5 L 125 5 L 125 47 L 66 47 Z M 66 5 " clip-rule="nonzero"/></clipPath><clipPath id="09c7ae3e88"><path d="M 0.675781 3.171875 L 270.601562 -3.191406 L 276.433594 244.238281 L 6.511719 250.605469 Z M 0.675781 3.171875 " clip-rule="nonzero"/></clipPath><clipPath id="5f8484361a"><path d="M 0.675781 3.171875 L 270.601562 -3.191406 L 276.433594 244.238281 L 6.511719 250.605469 Z M 0.675781 3.171875 " clip-rule="nonzero"/></clipPath><clipPath id="6e240c3d8f"><path d="M 55 13 L 87 13 L 87 41 L 55 41 Z M 55 13 " clip-rule="nonzero"/></clipPath><clipPath id="79961d9d39"><path d="M 0.675781 3.171875 L 270.601562 -3.191406 L 276.433594 244.238281 L 6.511719 250.605469 Z M 0.675781 3.171875 " clip-rule="nonzero"/></clipPath><clipPath id="f774ad01ec"><path d="M 0.675781 3.171875 L 270.601562 -3.191406 L 276.433594 244.238281 L 6.511719 250.605469 Z M 0.675781 3.171875 " clip-rule="nonzero"/></clipPath><clipPath id="3e746ee89c"><path d="M 92 5 L 271 5 L 271 248 L 92 248 Z M 92 5 " clip-rule="nonzero"/></clipPath><clipPath id="49335bce8a"><path d="M 0.675781 3.171875 L 270.601562 -3.191406 L 276.433594 244.238281 L 6.511719 250.605469 Z M 0.675781 3.171875 " clip-rule="nonzero"/></clipPath><clipPath id="aa0f3a55b1"><path d="M 0.675781 3.171875 L 270.601562 -3.191406 L 276.433594 244.238281 L 6.511719 250.605469 Z M 0.675781 3.171875 " clip-rule="nonzero"/></clipPath><clipPath id="d58d02f698"><rect x="0" width="275" y="0" height="252"/></clipPath><mask id="1e599845dc"><g filter="url(#78c7c3edcf)"><rect x="-37.5" width="450" fill="#000000" y="-37.499999" height="449.999989" fill-opacity="0.5"/></g></mask><clipPath id="b9824eacb3"><path d="M 179.269531 0.421875 L 319.347656 0.421875 L 319.347656 178.65625 L 179.269531 178.65625 Z M 179.269531 0.421875 " clip-rule="nonzero"/></clipPath><clipPath id="ac4f8fe587"><path d="M 1.675781 0.421875 L 141.394531 0.421875 L 141.394531 178.65625 L 1.675781 178.65625 Z M 1.675781 0.421875 " clip-rule="nonzero"/></clipPath><clipPath id="168d5a61b2"><rect x="0" width="321" y="0" height="179"/></clipPath></defs><g mask="url(#ceeedda92c)"><g transform="matrix(1, 0, 0, 1, 49, 35)"><g clip-path="url(#d58d02f698)"><g clip-path="url(#3c2ac63bf7)"><g clip-path="url(#f8431954e3)"><g clip-path="url(#a6c5d0e39a)"><path fill="#e3dbd8" d="M 138.4375 42.898438 L 140.492188 39.542969 C 149.425781 21.867188 164.207031 10.667969 184.84375 5.949219 C 208.207031 1.511719 227.914062 5.21875 243.960938 17.074219 C 249.585938 20.886719 255.328125 27.808594 261.1875 37.847656 C 266.328125 47.367188 269.378906 58.28125 270.335938 70.597656 C 272.003906 89.277344 266.792969 109.191406 254.703125 130.34375 C 249.738281 140.679688 235.226562 158.28125 211.164062 183.140625 C 188.960938 204.546875 164.8125 226.066406 138.722656 247.703125 C 72.128906 192.039062 35.121094 157.90625 27.695312 145.300781 C 11.5 126.679688 3.171875 105.058594 2.710938 80.445312 C 3.320312 61.695312 8.03125 45.617188 16.847656 32.203125 C 20.355469 26.964844 24.523438 22.414062 29.355469 18.554688 C 36.082031 13.464844 42.921875 10.007812 49.875 8.179688 C 68.394531 3.628906 84.660156 4.453125 98.671875 10.65625 C 111.40625 16.417969 124.660156 27.164062 138.4375 42.898438 " fill-opacity="1" fill-rule="nonzero"/></g></g></g><g clip-path="url(#c9e0d8b598)"><g clip-path="url(#b4a54baa4f)"><g clip-path="url(#aa0689befa)"><path fill="#86e7fd" d="M 192.695312 22.679688 C 192.316406 22.6875 191.953125 22.722656 191.613281 22.789062 C 188.429688 23.421875 187.300781 26.867188 183.328125 28.652344 C 179.355469 30.441406 172.542969 30.574219 170.503906 32.71875 C 168.464844 34.859375 171.203125 39.011719 168.238281 41.40625 C 165.273438 43.800781 156.605469 44.441406 153.878906 46.878906 C 151.234375 49.246094 154.167969 53.296875 159.085938 53.628906 C 159.242188 53.640625 159.398438 53.648438 159.558594 53.648438 C 159.675781 53.652344 159.789062 53.652344 159.90625 53.648438 C 164.367188 53.578125 170.15625 50.691406 173.773438 50.632812 C 173.949219 50.628906 174.121094 50.632812 174.285156 50.644531 C 174.65625 50.671875 175 50.730469 175.308594 50.839844 C 178.675781 51.992188 178.222656 58.351562 175.523438 60.765625 C 174.453125 61.722656 173.027344 62.058594 171.449219 62.082031 C 171.050781 62.089844 170.640625 62.078125 170.226562 62.050781 C 168.132812 61.90625 165.863281 61.390625 163.816406 61.136719 C 163.3125 61.070312 162.824219 61.023438 162.347656 60.992188 C 161.734375 60.949219 161.148438 60.933594 160.585938 60.945312 C 158.082031 60.984375 156.132812 61.523438 155.003906 62.484375 C 153.429688 63.828125 153.453125 66 150.699219 67.777344 C 147.945312 69.554688 142.414062 70.9375 141.675781 73.230469 C 140.941406 75.519531 145.003906 78.71875 144.140625 79.910156 C 143.277344 81.105469 137.488281 80.296875 134.144531 82.625 C 130.960938 84.84375 129.996094 89.910156 133.949219 90.175781 C 134.085938 90.1875 134.226562 90.1875 134.371094 90.1875 C 134.441406 90.1875 134.507812 90.183594 134.578125 90.179688 C 139.253906 89.933594 149.496094 83.980469 156.277344 83.5625 C 156.472656 83.550781 156.660156 83.542969 156.847656 83.539062 C 157.1875 83.535156 157.515625 83.542969 157.835938 83.5625 C 163.613281 83.953125 166.945312 88.585938 173.503906 92.269531 C 180.625 96.273438 191.550781 99.160156 189.1875 100.894531 C 188.027344 101.75 183.652344 102.324219 178.667969 102.40625 C 176.710938 102.4375 174.65625 102.394531 172.667969 102.257812 C 169.417969 102.039062 166.335938 101.582031 164.109375 100.828125 C 157.046875 98.4375 158.578125 93.070312 154.417969 92.019531 C 154.0625 91.929688 153.664062 91.871094 153.230469 91.839844 C 152.953125 91.824219 152.65625 91.816406 152.347656 91.820312 C 147.554688 91.898438 139.515625 94.789062 134.0625 98.214844 C 127.714844 102.199219 124.867188 106.914062 123.570312 115.027344 C 122.273438 123.140625 122.519531 134.65625 128.238281 140.351562 C 133.953125 146.046875 145.140625 145.925781 150.589844 147.613281 C 156.039062 149.296875 155.75 152.789062 155.253906 158.761719 C 154.757812 164.734375 154.054688 173.1875 154.941406 177.707031 C 155.832031 182.226562 158.308594 182.8125 159.863281 189.058594 C 161.417969 195.304688 162.046875 207.210938 166.214844 210.070312 C 166.847656 210.503906 167.566406 210.730469 168.332031 210.78125 C 168.476562 210.789062 168.625 210.792969 168.773438 210.792969 C 173.015625 210.722656 178.621094 205.796875 181.03125 201.53125 C 183.972656 196.320312 182.144531 192.09375 184.023438 188.925781 C 185.902344 185.757812 191.484375 183.648438 192.40625 179.707031 C 193.324219 175.765625 189.582031 169.988281 193.34375 162.871094 C 197.101562 155.753906 208.367188 147.296875 209.246094 143.558594 C 210.128906 139.824219 200.621094 140.804688 195.800781 136.925781 C 190.976562 133.046875 190.835938 124.300781 192.304688 123.402344 C 192.390625 123.351562 192.484375 123.324219 192.578125 123.324219 C 192.59375 123.320312 192.613281 123.324219 192.628906 123.324219 C 194.199219 123.429688 197.125 129.648438 200.851562 132.382812 C 202.351562 133.480469 203.980469 134.015625 205.613281 134.125 C 205.882812 134.144531 206.148438 134.148438 206.417969 134.144531 C 208.859375 134.105469 211.253906 133.164062 213.167969 131.789062 C 216.574219 129.351562 218.460938 125.5625 217.332031 122.582031 C 216.203125 119.605469 212.058594 117.445312 207.910156 115.28125 C 207.675781 111.445312 207.445312 107.613281 207.945312 107.605469 C 207.949219 107.605469 207.953125 107.605469 207.953125 107.605469 C 207.972656 107.605469 207.992188 107.613281 208.015625 107.625 C 208.605469 107.964844 210.027344 112.640625 214.035156 114.6875 C 218.042969 116.734375 224.636719 116.152344 228.757812 117.582031 C 232.882812 119.011719 234.539062 122.457031 235.136719 127.105469 C 235.730469 131.75 235.265625 137.601562 236.828125 140.480469 C 238.386719 143.359375 241.972656 143.269531 244.167969 145.226562 C 244.320312 145.363281 244.464844 145.511719 244.605469 145.664062 C 245.609375 144.371094 246.546875 143.125 247.425781 141.925781 L 247.429688 141.925781 C 246.25 139.136719 244.335938 137.160156 246.441406 133.945312 C 248.3125 131.09375 253.351562 127.269531 257.167969 125.871094 C 267.496094 106.378906 271.886719 87.953125 270.335938 70.597656 C 269.378906 58.28125 266.328125 47.367188 261.1875 37.847656 C 259.101562 34.273438 257.03125 31.097656 254.976562 28.3125 L 254.972656 28.3125 C 249.039062 29.753906 240.894531 29.847656 236.472656 30.167969 C 232.003906 30.492188 231.347656 31.046875 227.910156 31.308594 C 224.476562 31.570312 218.265625 31.539062 213.414062 34.015625 C 208.558594 36.492188 205.066406 41.472656 200.710938 43.09375 C 199.535156 43.535156 198.292969 43.726562 197.097656 43.746094 C 196.738281 43.753906 196.386719 43.742188 196.039062 43.71875 C 193.253906 43.53125 190.914062 42.46875 190.511719 41.515625 C 189.886719 40.046875 193.855469 38.84375 197.082031 36.386719 C 200.308594 33.933594 202.785156 30.222656 201.410156 27.277344 C 200.261719 24.828125 196.4375 22.90625 193.355469 22.699219 C 193.128906 22.683594 192.910156 22.679688 192.695312 22.679688 Z M 192.695312 22.679688 " fill-opacity="1" fill-rule="nonzero"/></g></g></g><g clip-path="url(#b824aa5b90)"><g clip-path="url(#b71ea1e097)"><g clip-path="url(#75726b1efb)"><path fill="#86e7fd" d="M 44.300781 23.203125 C 44.171875 23.207031 44.039062 23.222656 43.90625 23.25 C 42.179688 23.617188 40.171875 26.277344 37.609375 26.460938 C 37.535156 26.464844 37.460938 26.46875 37.382812 26.472656 C 37.253906 26.472656 37.125 26.46875 36.996094 26.460938 C 34.566406 26.296875 31.796875 24.335938 30.171875 24.179688 C 30.148438 24.179688 30.125 24.175781 30.105469 24.175781 C 30.042969 24.171875 29.984375 24.167969 29.925781 24.171875 C 28.363281 24.195312 27.910156 26 26.292969 26.632812 C 25.808594 26.824219 25.222656 26.910156 24.5625 26.917969 C 24.273438 26.925781 23.972656 26.914062 23.660156 26.894531 C 22.929688 26.84375 22.136719 26.730469 21.308594 26.585938 C 21.28125 26.621094 21.25 26.65625 21.222656 26.691406 C 19.824219 28.355469 18.367188 30.191406 16.847656 32.203125 C 11.46875 40.382812 7.621094 49.558594 5.296875 59.722656 C 6.273438 60.59375 7.046875 62.007812 7.308594 64.808594 C 7.742188 69.421875 6.789062 77.789062 8.050781 82.359375 C 9.316406 86.929688 12.792969 87.699219 14.207031 89.171875 C 15.625 90.648438 14.976562 92.828125 14.988281 94.445312 C 14.996094 96.066406 15.664062 97.121094 16.328125 98.171875 C 16.988281 99.398438 17.644531 100.621094 18.789062 101.375 C 19.40625 101.78125 20.164062 102.050781 20.796875 102.09375 C 20.871094 102.097656 20.941406 102.097656 21.007812 102.097656 C 21.457031 102.089844 21.820312 101.953125 21.988281 101.648438 C 22.414062 100.882812 21.636719 99.070312 20.605469 97.519531 C 19.574219 95.96875 18.289062 94.679688 17.714844 92.59375 C 17.179688 90.652344 17.261719 88.019531 18.207031 88.003906 C 18.222656 88.003906 18.234375 88.003906 18.25 88.003906 C 18.308594 88.007812 18.367188 88.019531 18.429688 88.042969 C 19.578125 88.457031 21.75 92.160156 22.664062 94.621094 C 23.578125 97.085938 23.238281 98.308594 24.222656 100.152344 C 25.203125 102 27.511719 104.46875 27.707031 105.9375 C 27.90625 107.40625 25.992188 107.871094 26.617188 108.929688 C 27.238281 109.984375 30.398438 111.632812 32.296875 112.625 C 34.191406 113.617188 34.820312 113.957031 35.453125 114.296875 C 37.480469 116.335938 39.511719 118.375 41.921875 118.953125 C 42.355469 119.058594 42.804688 119.113281 43.25 119.144531 C 44.390625 119.222656 45.527344 119.121094 46.433594 119.179688 C 47.136719 119.230469 47.703125 119.375 48.019531 119.777344 C 48.90625 120.902344 47.882812 124.027344 49.578125 125.320312 C 51.269531 126.613281 55.683594 126.070312 57.492188 127.296875 C 59.300781 128.519531 58.503906 131.511719 57.28125 134.832031 C 56.0625 138.152344 54.414062 141.808594 54.355469 144.695312 C 54.296875 147.582031 55.828125 149.699219 56.648438 152.664062 C 57.46875 155.628906 57.582031 159.445312 59.667969 161.804688 C 61.753906 164.167969 65.804688 165.078125 66.617188 168.9375 C 67.324219 172.308594 65.5625 177.925781 64.011719 183.101562 C 68.902344 187.574219 74.273438 192.394531 80.117188 197.5625 C 80.511719 197.132812 80.847656 196.601562 81.046875 195.851562 C 81.40625 194.488281 81.324219 192.398438 82.039062 191.824219 C 82.253906 191.652344 82.546875 191.621094 82.886719 191.613281 C 83.054688 191.609375 83.234375 191.613281 83.425781 191.613281 C 84.113281 191.601562 84.921875 191.496094 85.71875 190.648438 C 87.175781 189.089844 88.578125 185.027344 89.980469 180.964844 C 92.152344 178.167969 94.328125 175.367188 96.445312 174.679688 C 96.890625 174.53125 97.335938 174.480469 97.769531 174.472656 C 98.027344 174.46875 98.28125 174.480469 98.53125 174.496094 C 98.796875 174.515625 99.054688 174.539062 99.304688 174.554688 C 99.511719 174.570312 99.714844 174.578125 99.910156 174.578125 C 100.628906 174.566406 101.246094 174.382812 101.691406 173.65625 C 102.769531 171.902344 102.871094 166.976562 104.144531 163.152344 C 105.417969 159.324219 107.863281 156.597656 108.71875 154.554688 C 109.574219 152.511719 108.839844 151.15625 108.101562 149.800781 C 106.851562 147.757812 105.605469 145.71875 103.40625 145.21875 C 103.101562 145.148438 102.777344 145.109375 102.4375 145.085938 C 101.535156 145.027344 100.535156 145.085938 99.539062 145.019531 C 98.242188 144.933594 96.953125 144.628906 95.894531 143.550781 C 93.71875 141.34375 92.511719 135.882812 90.457031 133.441406 C 88.402344 131.003906 85.5 131.582031 83.582031 130.753906 C 81.664062 129.925781 80.734375 127.691406 79.1875 126.160156 C 77.96875 124.953125 76.367188 124.183594 74.882812 124.082031 C 74.75 124.074219 74.617188 124.070312 74.484375 124.070312 C 74.222656 124.078125 73.96875 124.101562 73.722656 124.152344 C 72.382812 124.417969 71.277344 125.367188 70.332031 125.382812 C 70.292969 125.382812 70.253906 125.382812 70.21875 125.382812 C 69.960938 125.363281 69.710938 125.269531 69.476562 125.066406 C 68.351562 124.089844 67.460938 120.609375 66.355469 120.34375 C 66.324219 120.335938 66.289062 120.328125 66.253906 120.328125 C 66.238281 120.324219 66.21875 120.324219 66.203125 120.324219 C 65.128906 120.34375 63.820312 123.082031 61.460938 124.207031 C 60.640625 124.601562 59.691406 124.796875 58.746094 124.8125 C 58.539062 124.816406 58.332031 124.808594 58.128906 124.796875 C 56.449219 124.683594 54.867188 123.996094 54.140625 122.808594 C 52.914062 120.816406 54.089844 117.421875 53.070312 116.007812 C 52.050781 114.589844 48.839844 115.152344 48.226562 113.804688 C 47.609375 112.453125 49.589844 109.191406 49.417969 107.433594 C 49.324219 106.4375 48.53125 105.925781 47.59375 105.859375 C 47.507812 105.855469 47.425781 105.851562 47.339844 105.855469 C 46.691406 105.867188 45.992188 106.078125 45.417969 106.484375 C 43.945312 107.515625 43.246094 109.796875 41.53125 109.824219 C 41.484375 109.824219 41.441406 109.824219 41.398438 109.820312 C 41.386719 109.820312 41.371094 109.820312 41.359375 109.820312 C 39.542969 109.695312 36.644531 107.160156 36.246094 104.382812 C 35.847656 101.589844 37.984375 98.546875 40.121094 95.507812 C 40.980469 94.796875 41.839844 94.085938 42.816406 94.070312 C 42.84375 94.070312 42.871094 94.070312 42.902344 94.070312 C 42.929688 94.070312 42.960938 94.074219 42.992188 94.074219 C 43.882812 94.136719 44.886719 94.734375 46.4375 94.839844 C 46.609375 94.851562 46.792969 94.855469 46.980469 94.855469 C 46.992188 94.851562 47.003906 94.851562 47.015625 94.851562 C 47.984375 94.835938 49.144531 94.625 50.21875 94.609375 C 50.421875 94.605469 50.621094 94.609375 50.8125 94.621094 C 51.632812 94.675781 52.367188 94.902344 52.871094 95.492188 C 54.128906 96.976562 53.945312 100.769531 54.535156 102.082031 C 54.703125 102.460938 54.9375 102.632812 55.203125 102.652344 C 55.222656 102.652344 55.242188 102.652344 55.261719 102.652344 C 55.902344 102.640625 56.695312 101.773438 57.152344 100.761719 C 57.820312 99.304688 57.789062 97.550781 57.757812 95.800781 C 56.875 94.035156 55.992188 92.265625 57.390625 90.898438 C 58.789062 89.53125 62.46875 88.566406 63.863281 86.328125 C 65.261719 84.089844 64.378906 80.582031 65.476562 79.195312 C 66.578125 77.804688 69.664062 78.535156 71.507812 77.40625 C 73.355469 76.28125 73.964844 73.300781 74.921875 72.335938 C 75.183594 72.070312 75.46875 71.957031 75.773438 71.953125 C 75.8125 71.953125 75.847656 71.953125 75.886719 71.957031 C 76.675781 72.007812 77.582031 72.738281 78.492188 73.46875 C 80.195312 70.429688 81.898438 67.390625 84.417969 67.261719 C 84.457031 67.257812 84.492188 67.257812 84.53125 67.257812 C 84.632812 67.257812 84.734375 67.257812 84.839844 67.265625 C 87.261719 67.429688 90.273438 69.855469 91.835938 69.960938 C 91.855469 69.960938 91.875 69.960938 91.898438 69.960938 C 91.917969 69.960938 91.9375 69.964844 91.960938 69.960938 C 93.527344 69.9375 93.4375 67.289062 92.078125 65.679688 C 90.703125 64.050781 88.015625 63.484375 87.957031 62.621094 C 87.894531 61.757812 90.457031 60.597656 89.851562 58.617188 C 89.242188 56.636719 85.460938 53.835938 81.683594 51.035156 C 81.367188 48.527344 81.050781 46.019531 80.113281 44.207031 C 79.308594 42.644531 78.042969 41.597656 77.28125 41.546875 C 77.257812 41.542969 77.234375 41.542969 77.210938 41.542969 C 77.113281 41.542969 77.027344 41.5625 76.953125 41.601562 C 76.289062 41.933594 76.519531 43.722656 76.433594 45.167969 C 76.367188 46.207031 76.136719 47.070312 75.625 47.078125 C 75.613281 47.078125 75.597656 47.078125 75.585938 47.078125 C 75.394531 47.066406 75.167969 46.9375 74.894531 46.664062 C 73.859375 45.613281 72.199219 42.414062 70.308594 40.664062 C 69.335938 39.765625 68.300781 39.25 67.304688 39.183594 C 67.214844 39.175781 67.121094 39.175781 67.03125 39.175781 C 66.191406 39.1875 65.382812 39.53125 64.671875 40.246094 C 63.050781 41.875 61.921875 45.433594 62.539062 47.234375 C 63.160156 49.035156 65.523438 49.078125 65.125 51.414062 C 64.726562 53.75 61.566406 58.382812 60.0625 58.824219 C 59.984375 58.847656 59.910156 58.859375 59.839844 58.859375 C 59.820312 58.859375 59.800781 58.859375 59.78125 58.859375 C 58.570312 58.777344 58.625 55.367188 57.476562 53.222656 C 56.246094 50.921875 53.636719 50.070312 51.027344 49.21875 C 48.832031 48.195312 46.632812 47.171875 45.472656 45.523438 C 44.308594 43.871094 44.179688 41.589844 45.277344 40.113281 C 46.375 38.640625 48.699219 37.96875 50.378906 36.539062 C 52.054688 35.109375 53.082031 32.921875 54.109375 30.734375 C 54.667969 31.429688 55.226562 32.125 56.03125 32.179688 C 56.074219 32.179688 56.113281 32.183594 56.15625 32.183594 C 56.53125 32.175781 56.960938 32.03125 57.464844 31.691406 C 59.140625 30.558594 61.652344 27.246094 60.300781 26.058594 C 59.941406 25.742188 59.308594 25.574219 58.476562 25.519531 C 58.191406 25.5 57.875 25.492188 57.542969 25.5 C 55.21875 25.539062 51.871094 26.136719 48.523438 26.738281 C 47.238281 25.023438 45.953125 23.308594 44.46875 23.207031 C 44.414062 23.203125 44.355469 23.203125 44.300781 23.203125 Z M 44.300781 23.203125 " fill-opacity="1" fill-rule="nonzero"/></g></g></g><g clip-path="url(#3b65105c28)"><g clip-path="url(#09c7ae3e88)"><g clip-path="url(#5f8484361a)"><path fill="#86e7fd" d="M 69.152344 5.199219 C 68.148438 5.21875 67.144531 5.253906 66.144531 5.3125 C 65.953125 7.601562 67.609375 11.054688 69.113281 12.195312 C 69.507812 12.496094 69.890625 12.632812 70.277344 12.660156 C 70.332031 12.664062 70.390625 12.664062 70.445312 12.664062 C 71.726562 12.644531 73.027344 11.445312 74.753906 10.808594 C 75.484375 10.539062 76.289062 10.371094 77.15625 10.359375 C 77.355469 10.355469 77.558594 10.359375 77.761719 10.375 C 79.5 10.492188 81.4375 11.238281 83.433594 13.011719 C 86.695312 15.902344 90.121094 21.515625 91.671875 24.554688 C 93.222656 27.59375 92.898438 28.054688 91.304688 29.25 C 89.714844 30.449219 86.851562 32.378906 87.996094 36.417969 C 89.089844 40.28125 93.855469 46.074219 97.285156 46.304688 C 97.371094 46.3125 97.457031 46.3125 97.542969 46.3125 C 97.609375 46.3125 97.671875 46.308594 97.738281 46.300781 C 101.1875 46.007812 102.9375 39.277344 105.417969 35.886719 C 107.898438 32.492188 111.109375 32.441406 114.570312 31.859375 C 118.03125 31.277344 121.746094 30.164062 123.296875 28.882812 C 123.621094 28.617188 123.847656 28.347656 124.015625 28.074219 C 115.351562 20.1875 106.902344 14.382812 98.671875 10.65625 C 88.683594 6.863281 78.84375 5.042969 69.152344 5.199219 Z M 69.152344 5.199219 " fill-opacity="1" fill-rule="nonzero"/></g></g></g><g clip-path="url(#6e240c3d8f)"><g clip-path="url(#79961d9d39)"><g clip-path="url(#f774ad01ec)"><path fill="#86e7fd" d="M 57.027344 15.9375 L 57.148438 15.636719 C 57.761719 13.976562 58.472656 13.273438 59.285156 13.523438 C 59.488281 13.515625 59.933594 13.757812 60.613281 14.25 C 60.746094 14.304688 61.867188 15.316406 63.976562 17.289062 C 64.683594 17.859375 65.105469 18.152344 65.246094 18.164062 C 65.597656 18.304688 65.902344 18.316406 66.164062 18.203125 L 67.34375 17.441406 C 67.652344 17.308594 67.882812 17.257812 68.035156 17.277344 C 68.21875 17.277344 68.457031 17.328125 68.746094 17.4375 C 68.851562 17.4375 69.332031 17.707031 70.1875 18.253906 C 70.839844 18.640625 72.503906 20.042969 75.179688 22.460938 C 76.734375 24.308594 78.070312 25.65625 79.191406 26.507812 C 80.007812 27.078125 80.507812 27.394531 80.691406 27.453125 L 84.339844 28.898438 C 85.078125 29.324219 85.488281 29.613281 85.570312 29.773438 C 86.039062 30.265625 86.339844 30.925781 86.472656 31.746094 C 86.554688 31.941406 86.566406 32.570312 86.5 33.636719 C 86.445312 34.058594 86.347656 34.457031 86.210938 34.824219 C 86.074219 35.195312 85.898438 35.511719 85.679688 35.773438 L 85.320312 36.113281 C 84.660156 36.457031 84.121094 36.519531 83.703125 36.296875 L 83.082031 36.039062 C 82.652344 35.820312 82.210938 35.542969 81.757812 35.207031 C 81.160156 34.800781 79.96875 33.777344 78.183594 32.132812 C 77.941406 31.894531 77.683594 31.71875 77.40625 31.601562 L 77.328125 31.667969 C 77.304688 31.753906 77.328125 31.90625 77.394531 32.125 C 78.15625 34.15625 78.570312 35.367188 78.636719 35.761719 C 78.847656 36.648438 78.910156 37.332031 78.828125 37.8125 C 78.625 38.722656 78.34375 39.273438 77.984375 39.464844 C 77.601562 39.789062 77.085938 39.996094 76.433594 40.082031 C 75.171875 40.226562 73.558594 39.90625 71.59375 39.121094 C 68.96875 37.980469 67.171875 37.046875 66.210938 36.328125 C 64.132812 34.976562 63.046875 33.808594 62.957031 32.820312 L 63.046875 32.378906 C 63.167969 32.101562 63.363281 31.84375 63.628906 31.605469 L 65.382812 30.21875 L 65.730469 29.851562 C 65.9375 29.601562 66.050781 29.324219 66.0625 29.027344 L 65.976562 28.554688 L 65.683594 28.027344 C 65.417969 27.65625 65.046875 27.261719 64.570312 26.839844 C 64.09375 26.421875 63.554688 25.984375 62.953125 25.535156 C 59.742188 23.234375 57.941406 21.898438 57.542969 21.515625 C 57.179688 21.277344 56.664062 20.714844 55.984375 19.832031 C 55.589844 19.167969 55.460938 18.574219 55.597656 18.054688 C 55.847656 17.285156 56.324219 16.582031 57.027344 15.9375 " fill-opacity="1" fill-rule="nonzero"/></g></g></g><g clip-path="url(#3e746ee89c)"><g clip-path="url(#49335bce8a)"><g clip-path="url(#aa0f3a55b1)"><path fill="#86e7fd" d="M 217.34375 5.449219 C 238.414062 25.488281 250.960938 41.265625 254.984375 52.777344 C 258.382812 62.863281 259.683594 70.445312 258.886719 75.515625 C 258.609375 82.023438 257.097656 89.09375 254.359375 96.730469 C 246.785156 114.863281 237.839844 130.308594 227.523438 143.070312 C 210.125 164.789062 195.320312 179.566406 183.113281 187.402344 C 169.261719 196.867188 155.328125 202.820312 141.316406 205.265625 C 132.578125 207.101562 121.199219 208.132812 107.171875 208.359375 C 102.535156 208.433594 97.613281 208.421875 92.402344 208.324219 C 105.804688 219.964844 121.242188 233.09375 138.722656 247.699219 C 164.8125 226.066406 188.960938 204.546875 211.164062 183.140625 C 227.835938 165.917969 239.921875 152.179688 247.425781 141.925781 L 247.429688 141.925781 L 247.425781 141.925781 C 250.753906 137.378906 253.179688 133.519531 254.703125 130.34375 C 266.792969 109.191406 272.003906 89.277344 270.335938 70.597656 C 269.378906 58.28125 266.328125 47.367188 261.1875 37.847656 C 255.324219 27.804688 249.585938 20.886719 243.976562 17.085938 C 236.625 11.617188 228.464844 7.882812 219.492188 5.882812 Z M 217.34375 5.449219 " fill-opacity="0.125" fill-rule="nonzero"/></g></g></g></g></g></g><g mask="url(#1e599845dc)"><g transform="matrix(1, 0, 0, 1, 27, 172)"><g clip-path="url(#168d5a61b2)"><g clip-path="url(#b9824eacb3)"><path fill="#86e7fd" d="M 319.132812 17.859375 C 317.222656 -9.453125 301.792969 0.699219 300.003906 12.148438 C 299.214844 17.191406 297.824219 21.074219 298.113281 35.683594 C 298.140625 37.007812 297.191406 40.074219 296.875 41.257812 C 294.957031 48.402344 283.121094 65.410156 278.726562 71.597656 C 269.460938 84.636719 254.347656 86.667969 253.019531 85.859375 C 254.542969 81.046875 269.164062 64.824219 271.273438 64.558594 C 273.929688 62.34375 277.59375 58.957031 279.125 53.03125 C 283.273438 36.980469 268.449219 35.628906 261.824219 41.296875 C 259.09375 43.632812 259.785156 43.519531 256.910156 45.65625 C 249.984375 50.8125 243.195312 61.089844 229.976562 69.46875 C 216.59375 77.953125 197.636719 83.929688 187.484375 103.050781 C 175.03125 126.507812 180.710938 164.066406 182.738281 173.835938 C 182.878906 174.519531 183.292969 177.476562 184.296875 178.652344 L 223.542969 178.652344 C 225.699219 178.273438 225.902344 177.179688 226.246094 174.332031 C 226.410156 172.976562 225.683594 164.859375 227.230469 155.078125 C 229.679688 139.617188 246.53125 129.804688 251.625 128.386719 C 257.117188 126.855469 283.523438 109.058594 285.265625 106.519531 C 285.859375 105.648438 287.75 104.285156 288.40625 102.847656 C 289.726562 99.945312 309.03125 71.460938 310.980469 67.65625 C 312.917969 63.867188 315.316406 58.140625 315.792969 54.597656 C 316.261719 51.058594 320.332031 35.054688 319.132812 17.859375 " fill-opacity="1" fill-rule="nonzero"/></g><g clip-path="url(#ac4f8fe587)"><path fill="#86e7fd" d="M 1.894531 17.859375 C 3.804688 -9.453125 19.234375 0.699219 21.023438 12.148438 C 21.8125 17.191406 23.203125 21.074219 22.914062 35.683594 C 22.886719 37.007812 23.835938 40.074219 24.15625 41.257812 C 26.070312 48.402344 37.90625 65.410156 42.300781 71.597656 C 51.566406 84.636719 66.683594 86.667969 68.011719 85.859375 C 66.484375 81.046875 51.867188 64.824219 49.753906 64.558594 C 47.097656 62.34375 43.429688 58.957031 41.902344 53.03125 C 37.757812 36.980469 52.578125 35.628906 59.203125 41.296875 C 61.933594 43.632812 61.242188 43.519531 64.113281 45.65625 C 71.042969 50.8125 77.832031 61.089844 91.050781 69.46875 C 104.433594 77.953125 123.394531 83.929688 133.542969 103.050781 C 145.996094 126.507812 140.320312 164.066406 138.285156 173.835938 C 138.144531 174.519531 137.734375 177.476562 136.730469 178.652344 L 97.480469 178.652344 C 95.328125 178.273438 95.121094 177.179688 94.78125 174.332031 C 94.617188 172.976562 95.34375 164.859375 93.792969 155.078125 C 91.347656 139.617188 74.496094 129.804688 69.40625 128.386719 C 63.910156 126.855469 37.507812 109.058594 35.761719 106.519531 C 35.167969 105.648438 33.277344 104.285156 32.625 102.847656 C 31.300781 99.945312 11.996094 71.460938 10.046875 67.65625 C 8.109375 63.867188 5.710938 58.140625 5.238281 54.597656 C 4.765625 51.058594 0.695312 35.054688 1.894531 17.859375 " fill-opacity="1" fill-rule="nonzero"/></g></g></g></g></svg>