<svg xmlns="http://www.w3.org/2000/svg" xmlns:xlink="http://www.w3.org/1999/xlink" width="500" zoomAndPan="magnify" viewBox="0 0 375 374.999991" height="500" preserveAspectRatio="xMidYMid meet" version="1.0"><defs><filter x="0%" y="0%" width="100%" height="100%" id="4225d7cf07"><feColorMatrix values="0 0 0 0 1 0 0 0 0 1 0 0 0 0 1 0 0 0 1 0" color-interpolation-filters="sRGB"/></filter><mask id="41dcd1bf0d"><g filter="url(#4225d7cf07)"><rect x="-37.5" width="450" fill="#000000" y="-37.499999" height="449.999989" fill-opacity="0.5"/></g></mask><clipPath id="0221a33f18"><path d="M 0.660156 157 L 87 157 L 87 317 L 0.660156 317 Z M 0.660156 157 " clip-rule="nonzero"/></clipPath><clipPath id="ee9659f92c"><path d="M 66 1.082031 L 287 1.082031 L 287 111 L 66 111 Z M 66 1.082031 " clip-rule="nonzero"/></clipPath><clipPath id="a95b76188e"><rect x="0" width="355" y="0" height="346"/></clipPath><clipPath id="75850953f9"><path d="M 138.390625 43.175781 L 156.359375 43.175781 L 156.359375 61.144531 L 138.390625 61.144531 Z M 138.390625 43.175781 " clip-rule="nonzero"/></clipPath><clipPath id="0eed4c7443"><path d="M 147.375 43.175781 C 142.414062 43.175781 138.390625 47.195312 138.390625 52.160156 C 138.390625 57.121094 142.414062 61.144531 147.375 61.144531 C 152.335938 61.144531 156.359375 57.121094 156.359375 52.160156 C 156.359375 47.195312 152.335938 43.175781 147.375 43.175781 Z M 147.375 43.175781 " clip-rule="nonzero"/></clipPath><clipPath id="f80682d3be"><path d="M 178.515625 43.175781 L 196.484375 43.175781 L 196.484375 61.144531 L 178.515625 61.144531 Z M 178.515625 43.175781 " clip-rule="nonzero"/></clipPath><clipPath id="c5a84bbd1d"><path d="M 187.5 43.175781 C 182.539062 43.175781 178.515625 47.195312 178.515625 52.160156 C 178.515625 57.121094 182.539062 61.144531 187.5 61.144531 C 192.460938 61.144531 196.484375 57.121094 196.484375 52.160156 C 196.484375 47.195312 192.460938 43.175781 187.5 43.175781 Z M 187.5 43.175781 " clip-rule="nonzero"/></clipPath><clipPath id="665c6be371"><path d="M 218.640625 43.175781 L 236.609375 43.175781 L 236.609375 61.144531 L 218.640625 61.144531 Z M 218.640625 43.175781 " clip-rule="nonzero"/></clipPath><clipPath id="3d59d79742"><path d="M 227.625 43.175781 C 222.664062 43.175781 218.640625 47.195312 218.640625 52.160156 C 218.640625 57.121094 222.664062 61.144531 227.625 61.144531 C 232.585938 61.144531 236.609375 57.121094 236.609375 52.160156 C 236.609375 47.195312 232.585938 43.175781 227.625 43.175781 Z M 227.625 43.175781 " clip-rule="nonzero"/></clipPath></defs><g mask="url(#41dcd1bf0d)"><g transform="matrix(1, 0, 0, 1, 10, 14)"><g clip-path="url(#a95b76188e)"><path fill="#86e7fd" d="M 160.992188 171.378906 C 127.179688 166.566406 106.199219 182.523438 102.242188 185.859375 C 101.246094 186.699219 100.3125 187.738281 99.410156 188.988281 L 125.238281 316.9375 Z M 160.992188 171.378906 " fill-opacity="1" fill-rule="nonzero"/><path fill="#86e7fd" d="M 67.824219 196.363281 L 92.761719 316.9375 L 118.472656 316.9375 L 94.652344 194.871094 C 89.839844 201.027344 75.351562 203.925781 67.824219 196.363281 Z M 67.824219 196.363281 " fill-opacity="1" fill-rule="nonzero"/><path fill="#86e7fd" d="M 64.488281 180.363281 C 66.78125 187.1875 70.292969 191.882812 74.605469 194.039062 C 82.355469 177.210938 83.371094 163.488281 77.617188 153.230469 C 70.339844 140.257812 52.003906 132.074219 23.097656 128.886719 C 22.378906 140.96875 17.59375 147.957031 12.320312 152.003906 C 29.972656 153.316406 57.09375 158.898438 64.488281 180.363281 Z M 64.488281 180.363281 " fill-opacity="1" fill-rule="nonzero"/><g clip-path="url(#0221a33f18)"><path fill="#86e7fd" d="M 86.84375 316.9375 L 58.953125 182.097656 C 50.6875 158.519531 11.4375 157.324219 0.660156 157.449219 L 34.238281 316.9375 Z M 86.84375 316.9375 " fill-opacity="1" fill-rule="nonzero"/></g><path fill="#86e7fd" d="M 182.847656 151.765625 L 198.5 151.765625 L 204.851562 139.078125 C 186.007812 137.601562 108.53125 134.300781 86.191406 177.398438 C 85.15625 183.007812 83.214844 189 80.367188 195.367188 C 85.390625 195.289062 90.351562 192.179688 93.90625 186.75 C 95.328125 184.582031 96.832031 182.839844 98.507812 181.429688 C 102.832031 177.78125 125.867188 160.253906 162.558594 165.757812 C 165.730469 157.40625 173.722656 151.765625 182.847656 151.765625 Z M 182.847656 151.765625 " fill-opacity="1" fill-rule="nonzero"/><path fill="#86e7fd" d="M 350.378906 163.386719 C 347.476562 159.683594 343.113281 157.5625 338.40625 157.5625 L 182.847656 157.5625 C 175.492188 157.5625 169.125 162.550781 167.371094 169.699219 L 131.207031 316.9375 L 312.242188 316.9375 C 317.550781 316.9375 319.695312 312.738281 320.5625 309.214844 L 353.183594 176.402344 C 354.304688 171.835938 353.285156 167.089844 350.378906 163.386719 Z M 283.957031 255.902344 C 280.472656 262.703125 274.960938 267.980469 268.441406 270.753906 C 265.203125 272.132812 261.902344 272.824219 258.6875 272.824219 C 255.246094 272.824219 251.898438 272.035156 248.824219 270.457031 C 242.878906 267.414062 238.722656 261.820312 237.125 254.710938 C 235.570312 247.792969 236.632812 240.238281 240.117188 233.4375 C 243.601562 226.636719 249.113281 221.359375 255.636719 218.585938 C 262.339844 215.730469 269.308594 215.835938 275.253906 218.882812 C 287.339844 225.074219 291.246094 241.679688 283.957031 255.902344 Z M 283.957031 255.902344 " fill-opacity="1" fill-rule="nonzero"/><path fill="#86e7fd" d="M 272.609375 224.039062 C 270.375 222.894531 267.921875 222.320312 265.382812 222.320312 C 262.933594 222.320312 260.40625 222.851562 257.90625 223.914062 C 252.628906 226.164062 248.144531 230.480469 245.273438 236.082031 C 242.40625 241.679688 241.519531 247.84375 242.777344 253.4375 C 243.992188 258.839844 247.078125 263.050781 251.464844 265.300781 C 255.855469 267.546875 261.078125 267.589844 266.167969 265.421875 C 271.445312 263.175781 275.933594 258.855469 278.800781 253.257812 C 284.628906 241.882812 281.851562 228.773438 272.609375 224.039062 Z M 272.609375 224.039062 " fill-opacity="1" fill-rule="nonzero"/><path fill="#86e7fd" d="M 312.242188 322.734375 L 140.457031 322.734375 C 143.214844 325.8125 144.898438 329.875 144.898438 334.324219 C 144.898438 338.773438 143.214844 342.835938 140.457031 345.917969 L 312.242188 345.917969 C 318.632812 345.917969 323.835938 340.714844 323.835938 334.324219 C 323.835938 327.933594 318.636719 322.734375 312.242188 322.734375 Z M 312.242188 322.734375 " fill-opacity="1" fill-rule="nonzero"/><path fill="#86e7fd" d="M 127.511719 322.734375 L 28.988281 322.734375 C 22.597656 322.734375 17.394531 327.933594 17.394531 334.324219 C 17.394531 340.714844 22.597656 345.917969 28.988281 345.917969 L 127.511719 345.917969 C 133.902344 345.917969 139.101562 340.714844 139.101562 334.324219 C 139.101562 327.933594 133.902344 322.734375 127.511719 322.734375 Z M 127.511719 322.734375 " fill-opacity="1" fill-rule="nonzero"/><g clip-path="url(#ee9659f92c)"><path fill="#86e7fd" d="M 102.253906 76.367188 C 103.632812 76.441406 104.894531 77.054688 105.804688 78.09375 C 106.707031 79.125 107.148438 80.445312 107.042969 81.816406 L 104.859375 110.183594 L 140.550781 79.253906 C 142.65625 77.429688 145.351562 76.421875 148.140625 76.421875 L 205.40625 76.421875 C 208.195312 76.421875 210.890625 77.429688 212.996094 79.253906 L 248.683594 110.183594 L 246.503906 81.816406 C 246.394531 80.445312 246.835938 79.125 247.742188 78.09375 C 248.652344 77.054688 249.914062 76.441406 251.292969 76.367188 C 271.253906 75.285156 286.886719 58.761719 286.886719 38.753906 C 286.886719 17.980469 269.988281 1.082031 249.214844 1.082031 L 104.328125 1.082031 C 83.554688 1.082031 66.65625 17.980469 66.65625 38.753906 C 66.660156 58.761719 82.292969 75.285156 102.253906 76.367188 Z M 102.253906 76.367188 " fill-opacity="1" fill-rule="nonzero"/></g></g></g></g><g clip-path="url(#75850953f9)"><g clip-path="url(#0eed4c7443)"><path fill="#ffffff" d="M 138.390625 43.175781 L 156.359375 43.175781 L 156.359375 61.144531 L 138.390625 61.144531 Z M 138.390625 43.175781 " fill-opacity="1" fill-rule="nonzero"/></g></g><g clip-path="url(#f80682d3be)"><g clip-path="url(#c5a84bbd1d)"><path fill="#ffffff" d="M 178.515625 43.175781 L 196.484375 43.175781 L 196.484375 61.144531 L 178.515625 61.144531 Z M 178.515625 43.175781 " fill-opacity="1" fill-rule="nonzero"/></g></g><g clip-path="url(#665c6be371)"><g clip-path="url(#3d59d79742)"><path fill="#ffffff" d="M 218.640625 43.175781 L 236.609375 43.175781 L 236.609375 61.144531 L 218.640625 61.144531 Z M 218.640625 43.175781 " fill-opacity="1" fill-rule="nonzero"/></g></g></svg>