<svg xmlns="http://www.w3.org/2000/svg" xmlns:xlink="http://www.w3.org/1999/xlink" width="500" zoomAndPan="magnify" viewBox="0 0 375 374.999991" height="500" preserveAspectRatio="xMidYMid meet" version="1.0"><defs><filter x="0%" y="0%" width="100%" height="100%" id="c739f559b5"><feColorMatrix values="0 0 0 0 1 0 0 0 0 1 0 0 0 0 1 0 0 0 1 0" color-interpolation-filters="sRGB"/></filter><mask id="2909f30b54"><g filter="url(#c739f559b5)"><rect x="-37.5" width="450" fill="#000000" y="-37.499999" height="449.999989" fill-opacity="0.5"/></g></mask><clipPath id="963bbca541"><path d="M 1 4.078125 L 366 4.078125 L 366 294 L 1 294 Z M 1 4.078125 " clip-rule="nonzero"/></clipPath><clipPath id="4ee551723e"><rect x="0" width="371" y="0" height="297"/></clipPath><mask id="c32f905e19"><g filter="url(#c739f559b5)"><rect x="-37.5" width="450" fill="#000000" y="-37.499999" height="449.999989" fill-opacity="0.5"/></g></mask><clipPath id="6930c32a6a"><path d="M 137 64 L 221.40625 64 L 221.40625 142 L 137 142 Z M 137 64 " clip-rule="nonzero"/></clipPath><clipPath id="901d5c8c49"><path d="M 150 0.59375 L 205 0.59375 L 205 54 L 150 54 Z M 150 0.59375 " clip-rule="nonzero"/></clipPath><clipPath id="0f46f14585"><path d="M 0.90625 64 L 86 64 L 86 142 L 0.90625 142 Z M 0.90625 64 " clip-rule="nonzero"/></clipPath><clipPath id="85aa51be89"><path d="M 18 0.59375 L 72 0.59375 L 72 54 L 18 54 Z M 18 0.59375 " clip-rule="nonzero"/></clipPath><clipPath id="655ea94706"><rect x="0" width="222" y="0" height="164"/></clipPath></defs><g mask="url(#2909f30b54)"><g transform="matrix(1, 0, 0, 1, 2, 51)"><g clip-path="url(#4ee551723e)"><g clip-path="url(#963bbca541)"><path fill="#ffffff" d="M 9.863281 283.871094 C 22.992188 273.617188 38.992188 253.511719 50.890625 210.027344 C 44.734375 205.511719 36.941406 198.949219 30.375 189.511719 C -0.800781 146.4375 5.351562 70.949219 46.785156 33.617188 C 46.785156 33.617188 85.351562 4.488281 161.660156 4.898438 C 184.222656 4.898438 191.195312 8.179688 227.300781 8.179688 C 265.863281 7.769531 272.015625 4.078125 288.835938 9 C 322.886719 19.257812 341.761719 47.15625 346.273438 54.128906 C 361.863281 78.746094 363.914062 103.359375 364.734375 115.667969 C 366.785156 147.257812 371.296875 211.257812 329.863281 242.847656 C 304.835938 262.128906 272.015625 262.949219 251.914062 263.359375 C 238.785156 263.769531 218.273438 262.539062 198.582031 259.257812 C 178.480469 255.976562 162.070312 251.050781 149.351562 246.949219 C 135.402344 242.4375 133.351562 240.796875 123.09375 238.332031 C 115.300781 236.28125 108.324219 235.460938 104.222656 234.640625 C 100.121094 237.101562 93.554688 241.207031 86.992188 247.359375 C 84.121094 250.230469 82.480469 252.28125 80.839844 253.921875 C 80.839844 253.921875 72.222656 262.949219 58.273438 273.207031 C 36.941406 287.972656 3.300781 296.179688 1.660156 292.078125 C 0.839844 290.4375 6.582031 286.332031 9.863281 283.871094 Z M 9.863281 283.871094 " fill-opacity="1" fill-rule="nonzero"/></g></g></g></g><g mask="url(#c32f905e19)"><g transform="matrix(1, 0, 0, 1, 84, 90)"><g clip-path="url(#655ea94706)"><path fill="#86e7fd" d="M 122.65625 85.785156 L 99.71875 85.785156 C 81.808594 85.785156 67.296875 100.300781 67.296875 118.207031 L 67.296875 155.128906 C 95.617188 165.453125 126.714844 165.453125 155.035156 155.128906 L 155.035156 118.207031 C 155.078125 100.300781 140.566406 85.785156 122.65625 85.785156 Z M 122.65625 85.785156 " fill-opacity="1" fill-rule="nonzero"/><path fill="#86e7fd" d="M 137.785156 48.554688 C 137.785156 49.425781 137.742188 50.296875 137.660156 51.164062 C 137.574219 52.03125 137.445312 52.890625 137.273438 53.746094 C 137.105469 54.597656 136.894531 55.445312 136.640625 56.277344 C 136.386719 57.109375 136.09375 57.929688 135.761719 58.734375 C 135.429688 59.539062 135.054688 60.328125 134.644531 61.09375 C 134.234375 61.863281 133.789062 62.609375 133.304688 63.332031 C 132.820312 64.058594 132.300781 64.757812 131.75 65.429688 C 131.195312 66.105469 130.613281 66.75 129.996094 67.363281 C 129.378906 67.980469 128.734375 68.566406 128.0625 69.117188 C 127.386719 69.671875 126.6875 70.1875 125.964844 70.671875 C 125.242188 71.15625 124.492188 71.605469 123.726562 72.015625 C 122.957031 72.425781 122.171875 72.796875 121.367188 73.128906 C 120.5625 73.464844 119.742188 73.757812 118.910156 74.011719 C 118.074219 74.261719 117.230469 74.472656 116.375 74.644531 C 115.523438 74.8125 114.660156 74.941406 113.792969 75.027344 C 112.925781 75.113281 112.058594 75.15625 111.1875 75.15625 C 110.316406 75.15625 109.445312 75.113281 108.578125 75.027344 C 107.710938 74.941406 106.851562 74.8125 105.996094 74.644531 C 105.144531 74.472656 104.300781 74.261719 103.464844 74.011719 C 102.632812 73.757812 101.8125 73.464844 101.007812 73.128906 C 100.203125 72.796875 99.417969 72.425781 98.648438 72.015625 C 97.878906 71.605469 97.132812 71.15625 96.410156 70.671875 C 95.683594 70.1875 94.984375 69.671875 94.3125 69.117188 C 93.640625 68.566406 92.996094 67.980469 92.378906 67.363281 C 91.761719 66.75 91.179688 66.105469 90.625 65.429688 C 90.074219 64.757812 89.554688 64.058594 89.070312 63.332031 C 88.585938 62.609375 88.140625 61.863281 87.726562 61.09375 C 87.316406 60.328125 86.945312 59.539062 86.613281 58.734375 C 86.277344 57.929688 85.984375 57.109375 85.734375 56.277344 C 85.480469 55.445312 85.269531 54.597656 85.097656 53.746094 C 84.929688 52.890625 84.800781 52.03125 84.714844 51.164062 C 84.628906 50.296875 84.585938 49.425781 84.585938 48.554688 C 84.585938 47.683594 84.628906 46.816406 84.714844 45.949219 C 84.800781 45.082031 84.929688 44.222656 85.097656 43.367188 C 85.269531 42.511719 85.480469 41.667969 85.734375 40.835938 C 85.984375 40 86.277344 39.179688 86.613281 38.375 C 86.945312 37.570312 87.316406 36.785156 87.726562 36.015625 C 88.140625 35.25 88.585938 34.503906 89.070312 33.777344 C 89.554688 33.054688 90.074219 32.355469 90.625 31.679688 C 91.179688 31.007812 91.761719 30.363281 92.378906 29.746094 C 92.996094 29.132812 93.640625 28.546875 94.3125 27.996094 C 94.984375 27.441406 95.683594 26.921875 96.410156 26.4375 C 97.132812 25.957031 97.878906 25.507812 98.648438 25.097656 C 99.417969 24.6875 100.203125 24.316406 101.007812 23.980469 C 101.8125 23.648438 102.632812 23.355469 103.464844 23.101562 C 104.300781 22.847656 105.144531 22.636719 105.996094 22.46875 C 106.851562 22.296875 107.710938 22.171875 108.578125 22.085938 C 109.445312 22 110.316406 21.957031 111.1875 21.957031 C 112.058594 21.957031 112.925781 22 113.792969 22.085938 C 114.660156 22.171875 115.523438 22.296875 116.375 22.46875 C 117.230469 22.636719 118.074219 22.847656 118.910156 23.101562 C 119.742188 23.355469 120.5625 23.648438 121.367188 23.980469 C 122.171875 24.316406 122.957031 24.6875 123.726562 25.097656 C 124.492188 25.507812 125.242188 25.957031 125.964844 26.4375 C 126.6875 26.921875 127.386719 27.441406 128.0625 27.996094 C 128.734375 28.546875 129.378906 29.132812 129.996094 29.746094 C 130.613281 30.363281 131.195312 31.007812 131.75 31.679688 C 132.300781 32.355469 132.820312 33.054688 133.304688 33.777344 C 133.789062 34.503906 134.234375 35.25 134.644531 36.015625 C 135.054688 36.785156 135.429688 37.570312 135.761719 38.375 C 136.09375 39.179688 136.386719 40 136.640625 40.835938 C 136.894531 41.667969 137.105469 42.511719 137.273438 43.367188 C 137.445312 44.222656 137.574219 45.082031 137.660156 45.949219 C 137.742188 46.816406 137.785156 47.683594 137.785156 48.554688 Z M 137.785156 48.554688 " fill-opacity="1" fill-rule="nonzero"/><g clip-path="url(#6930c32a6a)"><path fill="#86e7fd" d="M 189.042969 64.4375 L 166.105469 64.4375 C 153.488281 64.4375 142.550781 71.671875 137.210938 82.214844 C 151.417969 87.992188 161.472656 101.929688 161.472656 118.164062 L 161.472656 140.484375 C 181.589844 143.042969 202.1875 140.792969 221.464844 133.78125 L 221.464844 96.859375 C 221.464844 78.949219 206.953125 64.4375 189.042969 64.4375 Z M 189.042969 64.4375 " fill-opacity="1" fill-rule="nonzero"/></g><g clip-path="url(#901d5c8c49)"><path fill="#86e7fd" d="M 204.175781 27.207031 C 204.175781 28.078125 204.132812 28.945312 204.046875 29.8125 C 203.960938 30.679688 203.832031 31.539062 203.664062 32.394531 C 203.492188 33.25 203.28125 34.09375 203.027344 34.925781 C 202.777344 35.761719 202.484375 36.578125 202.148438 37.386719 C 201.816406 38.191406 201.445312 38.976562 201.035156 39.746094 C 200.621094 40.511719 200.175781 41.257812 199.691406 41.984375 C 199.207031 42.707031 198.6875 43.40625 198.136719 44.082031 C 197.585938 44.753906 197 45.398438 196.382812 46.015625 C 195.769531 46.628906 195.121094 47.214844 194.449219 47.765625 C 193.777344 48.320312 193.078125 48.839844 192.351562 49.324219 C 191.628906 49.804688 190.882812 50.253906 190.113281 50.664062 C 189.34375 51.074219 188.558594 51.445312 187.753906 51.78125 C 186.949219 52.113281 186.128906 52.40625 185.296875 52.660156 C 184.460938 52.914062 183.617188 53.125 182.765625 53.292969 C 181.910156 53.464844 181.050781 53.589844 180.183594 53.675781 C 179.316406 53.761719 178.445312 53.804688 177.574219 53.804688 C 176.703125 53.804688 175.835938 53.761719 174.96875 53.675781 C 174.101562 53.589844 173.238281 53.464844 172.386719 53.292969 C 171.53125 53.125 170.6875 52.914062 169.855469 52.660156 C 169.019531 52.40625 168.199219 52.113281 167.394531 51.78125 C 166.589844 51.445312 165.804688 51.074219 165.035156 50.664062 C 164.269531 50.253906 163.523438 49.804688 162.796875 49.324219 C 162.074219 48.839844 161.375 48.320312 160.699219 47.765625 C 160.027344 47.214844 159.382812 46.628906 158.765625 46.015625 C 158.152344 45.398438 157.566406 44.753906 157.011719 44.082031 C 156.460938 43.40625 155.941406 42.707031 155.457031 41.984375 C 154.972656 41.257812 154.527344 40.511719 154.117188 39.746094 C 153.707031 38.976562 153.332031 38.191406 153 37.386719 C 152.667969 36.578125 152.375 35.761719 152.121094 34.925781 C 151.867188 34.09375 151.65625 33.25 151.488281 32.394531 C 151.316406 31.539062 151.1875 30.679688 151.105469 29.8125 C 151.019531 28.945312 150.976562 28.078125 150.976562 27.207031 C 150.976562 26.335938 151.019531 25.464844 151.105469 24.597656 C 151.1875 23.730469 151.316406 22.871094 151.488281 22.015625 C 151.65625 21.160156 151.867188 20.316406 152.121094 19.484375 C 152.375 18.652344 152.667969 17.832031 153 17.027344 C 153.332031 16.222656 153.707031 15.433594 154.117188 14.667969 C 154.527344 13.898438 154.972656 13.152344 155.457031 12.429688 C 155.941406 11.703125 156.460938 11.003906 157.011719 10.332031 C 157.566406 9.65625 158.152344 9.011719 158.765625 8.398438 C 159.382812 7.78125 160.027344 7.195312 160.699219 6.644531 C 161.375 6.089844 162.074219 5.574219 162.796875 5.089844 C 163.523438 4.605469 164.269531 4.15625 165.035156 3.746094 C 165.804688 3.335938 166.589844 2.964844 167.394531 2.632812 C 168.199219 2.296875 169.019531 2.003906 169.855469 1.75 C 170.6875 1.5 171.53125 1.289062 172.386719 1.117188 C 173.238281 0.949219 174.101562 0.820312 174.96875 0.734375 C 175.835938 0.648438 176.703125 0.605469 177.574219 0.605469 C 178.445312 0.605469 179.316406 0.648438 180.183594 0.734375 C 181.050781 0.820312 181.910156 0.949219 182.765625 1.117188 C 183.617188 1.289062 184.460938 1.5 185.296875 1.75 C 186.128906 2.003906 186.949219 2.296875 187.753906 2.632812 C 188.558594 2.964844 189.34375 3.335938 190.113281 3.746094 C 190.882812 4.15625 191.628906 4.605469 192.351562 5.089844 C 193.078125 5.574219 193.777344 6.089844 194.449219 6.644531 C 195.121094 7.195312 195.769531 7.78125 196.382812 8.398438 C 197 9.011719 197.585938 9.65625 198.136719 10.332031 C 198.6875 11.003906 199.207031 11.703125 199.691406 12.429688 C 200.175781 13.152344 200.621094 13.898438 201.035156 14.667969 C 201.445312 15.433594 201.816406 16.222656 202.148438 17.027344 C 202.484375 17.832031 202.777344 18.652344 203.027344 19.484375 C 203.28125 20.316406 203.492188 21.160156 203.664062 22.015625 C 203.832031 22.871094 203.960938 23.730469 204.046875 24.597656 C 204.132812 25.464844 204.175781 26.335938 204.175781 27.207031 Z M 204.175781 27.207031 " fill-opacity="1" fill-rule="nonzero"/></g><g clip-path="url(#0f46f14585)"><path fill="#86e7fd" d="M 85.160156 82.257812 C 79.824219 71.714844 68.882812 64.480469 56.269531 64.480469 L 33.328125 64.480469 C 15.421875 64.4375 0.90625 78.949219 0.90625 96.859375 L 0.90625 133.78125 C 20.230469 140.835938 40.785156 143.042969 60.898438 140.484375 L 60.898438 118.164062 C 60.898438 101.929688 70.957031 87.992188 85.160156 82.257812 Z M 85.160156 82.257812 " fill-opacity="1" fill-rule="nonzero"/></g><g clip-path="url(#85aa51be89)"><path fill="#86e7fd" d="M 71.398438 27.207031 C 71.398438 28.078125 71.355469 28.945312 71.269531 29.8125 C 71.183594 30.679688 71.058594 31.539062 70.886719 32.394531 C 70.71875 33.25 70.503906 34.09375 70.253906 34.925781 C 70 35.761719 69.707031 36.578125 69.375 37.386719 C 69.039062 38.191406 68.667969 38.976562 68.257812 39.746094 C 67.847656 40.511719 67.398438 41.257812 66.914062 41.984375 C 66.429688 42.707031 65.914062 43.40625 65.359375 44.082031 C 64.808594 44.753906 64.222656 45.398438 63.605469 46.015625 C 62.992188 46.628906 62.347656 47.214844 61.671875 47.765625 C 61 48.320312 60.300781 48.839844 59.578125 49.324219 C 58.851562 49.804688 58.105469 50.253906 57.335938 50.664062 C 56.570312 51.074219 55.78125 51.445312 54.976562 51.78125 C 54.171875 52.113281 53.355469 52.40625 52.519531 52.660156 C 51.6875 52.914062 50.84375 53.125 49.988281 53.292969 C 49.132812 53.464844 48.273438 53.589844 47.40625 53.675781 C 46.539062 53.761719 45.671875 53.804688 44.796875 53.804688 C 43.925781 53.804688 43.058594 53.761719 42.191406 53.675781 C 41.324219 53.589844 40.464844 53.464844 39.609375 53.292969 C 38.753906 53.125 37.910156 52.914062 37.078125 52.660156 C 36.242188 52.40625 35.425781 52.113281 34.621094 51.78125 C 33.816406 51.445312 33.027344 51.074219 32.261719 50.664062 C 31.492188 50.253906 30.746094 49.804688 30.019531 49.324219 C 29.296875 48.839844 28.597656 48.320312 27.925781 47.765625 C 27.25 47.214844 26.605469 46.628906 25.988281 46.015625 C 25.375 45.398438 24.789062 44.753906 24.238281 44.082031 C 23.683594 43.40625 23.167969 42.707031 22.683594 41.984375 C 22.199219 41.257812 21.75 40.511719 21.339844 39.746094 C 20.929688 38.976562 20.558594 38.191406 20.222656 37.386719 C 19.890625 36.578125 19.597656 35.761719 19.34375 34.925781 C 19.09375 34.09375 18.878906 33.25 18.710938 32.394531 C 18.539062 31.539062 18.414062 30.679688 18.328125 29.8125 C 18.242188 28.945312 18.199219 28.078125 18.199219 27.207031 C 18.199219 26.335938 18.242188 25.464844 18.328125 24.597656 C 18.414062 23.730469 18.539062 22.871094 18.710938 22.015625 C 18.878906 21.160156 19.09375 20.316406 19.34375 19.484375 C 19.597656 18.652344 19.890625 17.832031 20.222656 17.027344 C 20.558594 16.222656 20.929688 15.433594 21.339844 14.667969 C 21.75 13.898438 22.199219 13.152344 22.683594 12.429688 C 23.167969 11.703125 23.683594 11.003906 24.238281 10.332031 C 24.789062 9.65625 25.375 9.011719 25.988281 8.398438 C 26.605469 7.78125 27.25 7.195312 27.925781 6.644531 C 28.597656 6.089844 29.296875 5.574219 30.019531 5.089844 C 30.746094 4.605469 31.492188 4.15625 32.261719 3.746094 C 33.027344 3.335938 33.816406 2.964844 34.621094 2.632812 C 35.425781 2.296875 36.242188 2.003906 37.078125 1.75 C 37.910156 1.5 38.753906 1.289062 39.609375 1.117188 C 40.464844 0.949219 41.324219 0.820312 42.191406 0.734375 C 43.058594 0.648438 43.925781 0.605469 44.796875 0.605469 C 45.671875 0.605469 46.539062 0.648438 47.40625 0.734375 C 48.273438 0.820312 49.132812 0.949219 49.988281 1.117188 C 50.84375 1.289062 51.6875 1.5 52.519531 1.75 C 53.355469 2.003906 54.171875 2.296875 54.976562 2.632812 C 55.78125 2.964844 56.570312 3.335938 57.335938 3.746094 C 58.105469 4.15625 58.851562 4.605469 59.578125 5.089844 C 60.300781 5.574219 61 6.089844 61.671875 6.644531 C 62.347656 7.195312 62.992188 7.78125 63.605469 8.398438 C 64.222656 9.011719 64.808594 9.65625 65.359375 10.332031 C 65.914062 11.003906 66.429688 11.703125 66.914062 12.429688 C 67.398438 13.152344 67.847656 13.898438 68.257812 14.667969 C 68.667969 15.433594 69.039062 16.222656 69.375 17.027344 C 69.707031 17.832031 70 18.652344 70.253906 19.484375 C 70.503906 20.316406 70.71875 21.160156 70.886719 22.015625 C 71.058594 22.871094 71.183594 23.730469 71.269531 24.597656 C 71.355469 25.464844 71.398438 26.335938 71.398438 27.207031 Z M 71.398438 27.207031 " fill-opacity="1" fill-rule="nonzero"/></g></g></g></g></svg>